# https://github.com/mikedh/trimesh
v 0.74172212 0.15671010 0.10000000
v 0.23927424 0.20192949 0.37469418
v 0.23927424 -0.20218167 0.37469418
v -0.25453985 0.24802812 0.24142198
v 0.05786716 0.20346348 0.37564622
v 0.05786716 -0.20371566 0.37564622
v 0.56712293 0.19333841 0.29413260
v 0.05313945 -0.25091236 0.24662592
v -0.01300280 -0.25034276 0.24569271
v -0.01300280 0.25009058 0.24569271
v -0.74390010 -0.03363396 0.10000000
v -0.12544403 0.22783339 0.32714849
v -0.12544403 -0.22808554 0.32714849
v -0.11032188 -0.25076777 0.24336006
v -0.11032188 0.25051559 0.24336006
v 0.11171090 -0.20257808 0.37882077
v 0.11171090 0.20232592 0.37882077
v 0.43483190 -0.04035278 0.37479816
v -0.16702176 -0.21181772 0.32749163
v -0.16702176 0.21156556 0.32749163
v 0.05360252 -0.24903383 0.25166911
v 0.14949350 0.20129296 0.37690693
v 0.14949350 -0.20154514 0.37690693
v 0.24113282 0.20198215 0.37543177
v -0.19613787 -0.21671632 0.31168162
v -0.61979929 -0.24695443 0.17200693
v 0.05310695 -0.25174060 0.24624737
v -0.21957424 0.21950549 0.29716060
v -0.21957424 -0.21975764 0.29716060
v -0.49144033 -0.15040574 0.10812682
v 0.08617485 -0.20307556 0.37792072
v 0.08617485 0.20282338 0.37792072
v 0.05120937 0.20420043 0.37745607
v 0.12490946 0.17671804 0.39869332
v 0.58266257 -0.21924572 0.10000000
v 0.58099972 0.26400166 0.10000000
v 0.41653414 0.24107235 0.25285348
v 0.26662338 -0.20255210 0.37026216
v 0.26662338 0.20229992 0.37026216
v -0.07703216 0.21851825 0.34941589
v 0.11167190 0.20234021 0.37902220
v 0.11167190 -0.20259237 0.37902220
v -0.25341807 -0.24945734 0.24011078
v -0.09808185 -0.22333542 0.34125069
v -0.16138750 0.23430821 0.30793911
v -0.16138750 -0.23456039 0.30793911
v -0.09955559 -0.19992119 0.36174467
v 0.18819560 0.24733489 0.24841983
v 0.18819560 -0.24758706 0.24841983
v -0.15382969 -0.21000593 0.33515602
v 0.06491651 -0.27985011 0.10000000
v -0.14532634 -0.23150022 0.31607627
v -0.14532634 0.23124804 0.31607627
v 0.55478544 -0.19338587 0.30076308
v 0.55478544 0.19313371 0.30076308
v -0.35288904 0.11544836 0.24970961
v -0.58752032 -0.16665559 0.10000000
v -0.27024866 0.22791136 0.26804125
v -0.23462456 -0.22188853 0.28804735
v -0.09727972 0.22281377 0.34141190
v -0.12550251 -0.22832794 0.32755694
v -0.12550251 0.22807576 0.32755694
v 0.37922121 -0.24150072 0.24949314
v 0.50847351 0.19200719 0.32302320
v 0.50847351 -0.19225934 0.32302320
v -0.25587640 0.22517530 0.27637837
v -0.04993085 -0.25137050 0.24436864
v -0.04993085 0.25111835 0.24436864
v -0.15480122 -0.23376756 0.31236624
v -0.15480122 0.23351538 0.31236624
v -0.25996503 0.22459937 0.27191634
v -0.25996503 -0.22485155 0.27191634
v -0.17641826 0.23762525 0.30016516
v -0.34818082 0.01450062 0.10000000
v 0.43476692 -0.03363164 0.37528555
v -0.69797911 0.24602526 0.10000000
v -0.60757225 -0.25298215 0.17004567
v 0.20422429 -0.20136999 0.37575670
v 0.20422429 0.20111784 0.37575670
v 0.04284313 0.18928980 0.39706618
v 0.13808853 0.24805558 0.24830059
v -0.22086519 -0.25069011 0.24062774
v -0.65488844 -0.23906863 0.15241042
v -0.17371200 0.23661422 0.30154616
v -0.17371200 -0.23686640 0.30154616
v -0.22199982 0.22077790 0.29730357
v -0.22199982 -0.22103008 0.29730357
v -0.16182423 -0.25406627 0.23899821
v -0.04805925 -0.25093933 0.24460325
v -0.04805925 0.25068715 0.24460325
v 0.19098024 -0.20131540 0.37608486
v 0.19098024 0.20106325 0.37608486
v -0.41322097 0.26160941 0.10000000
v -0.16238504 -0.21170141 0.33083903
v -0.36398759 -0.02053418 0.10000000
v -0.17189912 -0.23595807 0.30120187
v -0.14443928 -0.20800860 0.33954481
v -0.14443928 0.20775642 0.33954481
v -0.10758923 -0.20079846 0.35707335
v 0.19853156 0.17543392 0.39777055
v -0.19038609 0.31232130 0.26989438
v 0.32419083 -0.24606834 0.24865379
v 0.32419083 0.24581619 0.24865379
v 0.25771598 -0.29442289 0.10000000
v -0.36482222 -0.02864492 0.10000000
v 0.64472300 0.24975939 0.10000000
v 0.27599430 -0.24732549 0.24853063
v 0.27599430 0.24707331 0.24853063
v -0.13122773 -0.20564961 0.34625001
v -0.13122773 0.20539746 0.34625001
v -0.07102606 -0.21769437 0.35036732
v 0.59846318 0.27097121 0.10000000
v 0.15032204 0.17640124 0.39881355
v 0.07190076 -0.20343069 0.37723512
v 0.07190076 0.20317852 0.37723512
v 0.08040412 -0.25008348 0.24793473
v 0.28764080 -0.27310806 0.20235393
v 0.14131657 -0.21652515 0.34893489
v 0.03693530 0.20453445 0.37371940
v 0.03693530 -0.20478663 0.37371940
v 0.37140278 0.24234789 0.24898781
v 0.37140278 -0.24260007 0.24898781
v 0.22968237 0.24866708 0.24818622
v 0.22968237 -0.24891925 0.24818622
v 0.25519243 0.20233079 0.37419380
v 0.07188777 -0.25170583 0.24652615
v 0.58166522 -0.19102757 0.10000000
v -0.23451994 0.24944432 0.24195377
v -0.19757860 0.21547670 0.30958064
v -0.19757860 -0.21572888 0.30958064
v 0.18715260 0.17591125 0.39823519
v -0.09968565 -0.24751579 0.26204880
v 0.06734920 -0.24207987 0.28160195
v 0.51809875 0.19194710 0.31838169
v 0.07187478 0.20314474 0.37537652
v 0.07187478 -0.20339689 0.37537652
v 0.26556087 0.20257352 0.37202002
v 0.24277657 -0.20181729 0.37302863
v -0.52664014 -0.18800392 0.10000000
v -0.49143990 -0.15036473 0.10736259
v 0.37137680 -0.24218772 0.24917789
v 0.23058891 0.20157369 0.37303381
v 0.29578565 0.24503504 0.24878245
v 0.29578565 -0.24528722 0.24878245
v -0.11710963 -0.20187200 0.35213119
v -0.12183732 -0.22741880 0.32746205
v -0.12183732 0.22716662 0.32746205
v 0.07185529 0.20294847 0.37655276
v 0.07185529 -0.20320065 0.37655276
v 0.08035865 -0.25040222 0.24723482
v -0.25487179 -0.22484408 0.27595387
v 0.24286794 0.20205655 0.37507434
v 0.24286794 -0.20230870 0.37507434
v -0.20942057 0.24987127 0.24200902
v -0.25099833 -0.22470241 0.27917067
v 0.09880000 -0.20285998 0.37863298
v 0.13892358 0.17642333 0.39876156
v 0.23246700 -0.20170954 0.37433026
v 0.23246700 0.20145739 0.37433026
v 0.40630976 -0.24044710 0.24927700
v 0.40630976 0.24019492 0.24927700
v 0.47583645 0.19318902 0.34124029
v 0.10868583 0.20217775 0.37813517
v 0.08033914 -0.25075249 0.24690536
v -0.17004033 -0.21242924 0.32606875
v 0.07182929 0.20293612 0.37606537
v 0.07182929 -0.20318830 0.37606537
v 0.28914088 -0.27262696 0.20355252
v -0.61855317 -0.24754975 0.17078608
v -0.04840448 0.21356358 0.36046854
v 0.37731104 -0.18964265 0.10000000
v 0.08032615 0.25114530 0.24667269
v 0.50167913 0.19305933 0.32809421
v 0.18663113 -0.24732077 0.24882257
v 0.43557601 0.04093177 0.37362841
v -0.23383498 -0.22107068 0.28807206
v -0.23383498 0.22081853 0.28807206
v -0.20342112 -0.25123435 0.24095267
v 0.41099849 -0.23521430 0.10000000
v -0.72908364 -0.10097492 0.15859430
v -0.12094376 -0.20413188 0.35180303
v -0.17101835 0.25130810 0.24173965
v -0.17101835 -0.25156028 0.24173965
v -0.69771119 0.24652932 0.10000000
v 0.10864033 -0.20221448 0.37752429
v 0.39681539 -0.24268747 0.24896311
v 0.28201357 0.17643247 0.39335450
v 0.11587212 -0.25074082 0.24717137
v -0.26306191 -0.22559270 0.27041580
v -0.26306191 0.22534054 0.27041580
v -0.00910894 -0.20846244 0.36913625
v 0.18327295 -0.25054552 0.24746585
v -0.38055686 -0.18545949 0.10000000
v 0.09197276 0.20253495 0.37601234
v 0.14736195 -0.24827136 0.24819401
v 0.57318833 -0.28566400 0.10000000
v -0.07944418 0.21908020 0.34699205
v 0.24044894 -0.20217734 0.37454583
v 0.56770421 -0.19352543 0.29364729
v 0.18042333 0.20134398 0.37907419
v 0.22483119 0.17510250 0.39671127
v -0.14838391 0.20728951 0.33644923
v -0.14838391 -0.20754169 0.33644923
v 0.05121670 -0.24950629 0.24747933
v 0.43552402 -0.00012609 0.37491187
v -0.17541336 0.24072898 0.27734844
v -0.17189853 0.23570549 0.30120167
v 0.16434918 0.17618483 0.39867709
v -0.14555378 -0.23190508 0.31689313
v -0.01526464 0.20883282 0.36830154
v -0.45748476 0.17952667 0.10000000
v -0.19347642 -0.25312340 0.23848848
v -0.17768913 0.21277332 0.32099696
v -0.17768913 -0.21302547 0.32099696
v 0.13126178 -0.25134842 0.24712174
v -0.14368221 0.20695353 0.33910648
v -0.14368221 -0.20720570 0.33910648
v 0.13125529 -0.25158789 0.24691672
v 0.43549151 -0.02187684 0.37445049
v 0.43549151 0.02162466 0.37445049
v -0.08983844 -0.22125296 0.34284478
v -0.08983844 0.22100081 0.34284478
v 0.35093402 0.27354486 0.19202172
v -0.11629405 -0.20263266 0.35313848
v -0.11629405 0.20238051 0.35313848
v -0.06783666 -0.19463354 0.38155232
v 0.54225299 -0.19326207 0.30724959
v 0.54225299 0.19300992 0.30724959
v 0.74594226 0.12478740 0.10000000
v -0.13992605 0.25099259 0.24238364
v -0.13992605 -0.25124477 0.24238364
v 0.18573811 -0.27012970 0.21858735
v 0.25784708 0.20225702 0.37433675
v 0.37973068 -0.24243598 0.24897742
v 0.57531437 0.19335240 0.28924764
v 0.43356788 -0.07034286 0.37364201
v 0.41073144 -0.23503910 0.10000000
v -0.27116723 -0.22616425 0.26491900
v -0.27116723 0.22591207 0.26491900
v -0.14370819 -0.20845473 0.34057711
v 0.53275200 -0.19077172 0.10000000
v 0.05237764 0.24951613 0.24905055
v 0.24649411 0.20166275 0.37274785
v 0.36035039 0.09410673 0.39404042
v 0.20208628 0.17612374 0.39802724
v 0.41084887 0.17039096 0.10000000
v -0.06111995 -0.20716110 0.37590935
v 0.08586941 0.20255564 0.37726111
v 0.12933173 0.20200716 0.37889224
v 0.12933173 -0.20225934 0.37889224
v -0.15884333 -0.25289703 0.24123536
v 0.40905562 -0.24118117 0.24928179
v 0.15397453 0.19912736 0.38428743
v 0.19356991 0.20111491 0.37548699
v -0.20364240 0.21666301 0.30617929
v -0.20364240 -0.21691519 0.30617929
v -0.17302641 -0.23661261 0.30140871
v 0.10286313 0.20246921 0.37847959
v -0.70177338 -0.17433970 0.18324897
v -0.63407256 -0.27233395 0.10000000
v -0.21810590 -0.22010565 0.29905201
v -0.21810590 0.21985347 0.29905201
v 0.54503111 0.19449385 0.30945424
v -0.05412287 -0.21500795 0.35923162
v 0.24736805 0.17565217 0.39562171
v 0.08583691 0.20248576 0.37678670
v 0.08583691 -0.20273794 0.37678670
v -0.10276934 -0.19916009 0.35891604
v 0.07922463 0.20311484 0.37879476
v -0.08589957 -0.22056413 0.34434571
v 0.15292473 0.24826094 0.24792691
v 0.15292473 -0.24851309 0.24792691
v 0.14818398 0.20164517 0.37796993
v 0.18866623 0.17538249 0.39802077
v -0.24032282 0.24940339 0.24212079
v 0.05087145 -0.20407243 0.37473968
v 0.44033033 0.02890867 0.37303116
v 0.25684306 -0.24585648 0.24892444
v 0.52158175 -0.19600101 0.32130327
v 0.40640171 0.23987664 0.24949699
v -0.27282987 -0.22665424 0.26443031
v -0.15227003 0.20887775 0.33506113
v -0.15227003 -0.20912993 0.33506113
v 0.14723199 -0.20201921 0.37876878
v 0.14723199 0.20176703 0.37876878
v -0.06441287 0.25044119 0.24455352
v -0.06441287 -0.25069337 0.24455352
v 0.12927974 0.17643112 0.39866734
v -0.57681827 -0.15652451 0.13564502
v 0.11608780 0.24991182 0.24730133
v -0.16077988 0.20943792 0.32992989
v -0.16077988 -0.20969010 0.32992989
v 0.23321108 -0.20176805 0.37306954
v 0.23321108 0.20151587 0.37306954
v 0.37021031 0.24382015 0.24882339
v 0.37021031 -0.24407231 0.24882339
v 0.16052177 0.17558204 0.39853666
v -0.34006110 -0.20981837 0.24903293
v 0.45806750 -0.19017429 0.34555466
v 0.56672003 0.19235064 0.29347138
v 0.35817916 0.27650549 0.10000000
v 0.33343205 0.26661255 0.10000000
v -0.25416024 -0.24920956 0.24048879
v 0.20768153 -0.20141678 0.37485015
v 0.12926025 -0.20227396 0.37909370
v 0.12926025 0.20202178 0.37909370
v 0.39191872 -0.24327820 0.24886043
v -0.16459455 -0.25232450 0.24162723
v 0.43472897 0.04061291 0.37501954
v -0.49174549 -0.16086430 0.10000000
v 0.04421368 0.20458157 0.37676722
v -0.27611632 -0.22804015 0.26435756
v -0.03703770 -0.25106736 0.24473744
v -0.03703770 0.25081518 0.24473744
v 0.17838280 0.17600547 0.39843663
v -0.21871215 0.24961789 0.24799731
v -0.73115013 -0.04543150 0.16121038
v -0.37211813 0.02953975 0.10000000
v 0.09900949 0.20221283 0.37755353
v 0.14718650 -0.20203643 0.37817414
v 0.14718650 0.20178425 0.37817414
v 0.04209442 0.20435112 0.37527424
v -0.17311090 0.21152170 0.32327536
v -0.17311090 -0.21177385 0.32327536
v -0.19637775 0.25104639 0.24279992
v -0.16460754 -0.24994863 0.24232452
v 0.55836024 0.20004259 0.10000000
v 0.04420069 0.20457345 0.37632532
v 0.04420069 -0.20482560 0.37632532
v -0.15610419 -0.20937979 0.33263816
v -0.15610419 0.20912761 0.33263816
v -0.08902289 -0.25106119 0.24366873
v -0.08902289 0.25080901 0.24366873
v -0.38100620 -0.18029465 0.10000000
v -0.23028029 0.22220271 0.29259408
v -0.20022510 0.24989238 0.25136749
v 0.22749236 0.17615558 0.39712719
v 0.57140874 0.19301934 0.29117543
v 0.57673638 0.19262971 0.28787987
v 0.22181911 0.20145672 0.37361216
v 0.22181911 -0.20170890 0.37361216
v -0.27553587 0.22578471 0.26169962
v -0.27553587 -0.22603689 0.26169962
v 0.34085959 -0.24598937 0.24835258
v 0.04040553 -0.25210452 0.24601180
v 0.22748587 0.17566982 0.39676000
v 0.29456717 0.20395706 0.36944660
v 0.05782307 -0.20392283 0.37473025
v -0.08560584 0.19606010 0.36680849
v 0.59588852 0.19697709 0.28381162
v -0.12021267 0.20269212 0.35085099
v 0.34747189 -0.24275148 0.24946188
v -0.25335146 -0.24842763 0.24088086
v 0.52131464 -0.19239419 0.31689539
v 0.27093517 -0.20315450 0.37228973
v 0.27093517 0.20290234 0.37228973
v 0.52981800 0.19415593 0.31671604
v 0.08763700 -0.25016178 0.24755228
v 0.26335127 0.17664239 0.39527656
v 0.09141917 0.20258358 0.37784922
v 0.09141917 -0.20283576 0.37784922
v -0.22491345 0.22062030 0.29449912
v -0.22491345 -0.22087248 0.29449912
v -0.18542240 -0.21498773 0.31766808
v 0.15849397 0.24856702 0.24779598
v 0.15849397 -0.24881917 0.24779598
v -0.12022567 -0.20270187 0.35070801
v -0.12022567 0.20244972 0.35070801
v -0.58425191 -0.15820448 0.10000000
v -0.09122685 -0.22181392 0.34395585
v 0.01109381 -0.24982873 0.24686895
v 0.01109381 0.24957655 0.24686895
v -0.23532740 0.22234925 0.28879273
v -0.23532740 -0.22260143 0.28879273
v 0.13775079 0.22338397 0.33217759
v -0.08244959 0.25063746 0.24396052
v -0.08244959 -0.25088961 0.24396052
v -0.14575524 0.23201976 0.31765702
v -0.14575524 -0.23227191 0.31765702
v 0.41192531 -0.16711720 0.37867435
v 0.22178664 0.20128613 0.37406381
v -0.18185535 -0.25225529 0.24085129
v -0.62054110 -0.26759954 0.10000000
v -0.69847983 0.24547895 0.10000000
v 0.16153935 0.16088575 0.40114709
v -0.12120371 0.22697232 0.32803035
v -0.12120371 -0.22722450 0.32803035
v 0.49671764 -0.19442986 0.33225214
v 0.51183327 -0.19283090 0.32185381
v 0.51183327 0.19257874 0.32185381
v 0.16696485 0.17596487 0.39855686
v 0.16789738 -0.20160492 0.37586391
v 0.16789738 0.20135274 0.37586391
v -0.12027116 -0.25324210 0.24244929
v 0.51086172 -0.19198640 0.32179693
v -0.68260115 -0.23691821 0.10000000
v 0.16883642 -0.20179110 0.37812542
v 0.16883642 0.20153895 0.37812542
v -0.19737518 0.25092502 0.24251330
v 0.75584834 0.17880259 0.17521349
v 0.06480726 -0.24212119 0.27843451
v 0.55905174 0.19220865 0.29762687
v 0.26516433 -0.20293187 0.37254203
v 0.26516433 0.20267969 0.37254203
v -0.27196207 0.22769739 0.26691393
v -0.12969390 -0.20360467 0.34592936
v 0.55498270 0.19366573 0.30305719
v -0.27583553 0.22900037 0.26452303
v -0.26864287 -0.22679363 0.26825634
v 0.47630061 0.19265911 0.34029093
v -0.12408583 -0.20517231 0.35057479
v -0.08874213 -0.19631037 0.36528398
v -0.70079457 0.23480888 0.10000000
v 0.10739587 0.17677816 0.39833265
v -0.48838676 0.24941327 0.21900777
v 0.40526110 -0.19688814 0.37482364
v -0.15716020 0.23322652 0.30887360
v -0.69615164 0.24539844 0.10000000
v 0.33887755 0.24499638 0.24876231
v 0.33887755 -0.24524855 0.24876231
v 0.46642138 0.19152466 0.34270797
v 0.16785188 0.24860016 0.24785057
v 0.16785188 -0.24885231 0.24785057
v 0.43523806 -0.00012609 0.37534404
v 0.28861387 -0.20354387 0.36828903
v 0.57087440 -0.20337427 0.29699034
v 0.14611749 -0.25079605 0.24743238
v 0.52877500 0.19292056 0.31398729
v 0.52877500 -0.19317274 0.31398729
v 0.52786208 0.19967744 0.10000000
v 0.49474856 -0.19139992 0.32928230
v -0.11938410 -0.20348982 0.35210521
v 0.43427303 -0.04706220 0.37519131
v -0.14680476 -0.20751275 0.33735838
v -0.14680476 0.20726060 0.33735838
v 0.74467161 0.13575349 0.10000000
v -0.73079746 -0.06882617 0.16054285
v 0.26604487 -0.20272809 0.37175330
v 0.11963587 0.17626445 0.39853088
v 0.19522705 -0.20156982 0.37684195
v 0.19522705 0.20131767 0.37684195
v -0.58917484 -0.17097296 0.10000000
v -0.25338360 0.24877235 0.24064886
v -0.25338360 -0.24902453 0.24064886
v -0.17137578 -0.23575253 0.30079752
v -0.19599900 0.25009471 0.24196941
v 0.24151298 0.17616078 0.39637659
v -0.13170213 -0.22945706 0.32434210
v -0.13170213 0.22920491 0.32434210
v -0.24517367 0.22404506 0.28334662
v -0.24517367 -0.22429721 0.28334662
v 0.47805496 0.18408064 0.10000000
v 0.48904933 -0.19157181 0.33189504
v 0.17063652 -0.20184049 0.37852508
v 0.17063652 0.20158831 0.37852508
v 0.26772736 0.17535485 0.39404294
v 0.19708563 0.20134235 0.37846010
v -0.24194573 -0.22453238 0.28584907
v -0.22128075 0.24994047 0.24205678
v 0.54099551 0.19420206 0.31128132
v 0.53438324 0.19370980 0.31393693
v 0.53438324 -0.19396198 0.31393693
v 0.55846521 -0.19385095 0.30078030
v 0.11487569 -0.25004838 0.24752434
v 0.22541281 -0.20160589 0.37481115
v 0.22541281 0.20135374 0.37481115
v -0.15297998 -0.23279680 0.31112249
v -0.30086924 0.23244235 0.25351760
v 0.60098206 0.19238459 0.27545104
v 0.10879821 0.20195762 0.37680143
v -0.02780975 0.25119536 0.24481867
v -0.02780975 -0.25144751 0.24481867
v 0.21784201 0.17569550 0.39719866
v 0.52582779 0.17752710 0.32181644
v -0.07788432 -0.27686931 0.10000000
v 0.06949630 -0.25030086 0.24751751
v -0.17407526 -0.23701248 0.30117428
v 0.46591962 0.19052698 0.34219646
v 0.41529727 -0.24175851 0.24905020
v 0.20931916 0.20137679 0.37619210
v 0.20931916 -0.20162897 0.37619210
v 0.11766682 -0.24869864 0.24800264
v 0.47993975 -0.19302734 0.33857153
v 0.01764806 -0.20606553 0.37261985
v -0.49144469 -0.17437897 0.10000000
v -0.73165795 -0.02601898 0.16625247
v 0.04302771 -0.20462577 0.37375188
v 0.00531039 -0.28517227 0.18575697
v -0.13271915 -0.20608015 0.34574963
v 0.09970807 -0.25160055 0.24686149
v -0.25744589 0.24978573 0.23900947
v 0.39059585 0.18448534 0.10000000
v -0.11854254 -0.22724755 0.33148529
v 0.11765383 -0.24901997 0.24762052
v 0.11765383 0.24876782 0.24762052
v 0.55510062 0.19406624 0.30394119
v -0.16390893 -0.20996629 0.32821329
v -0.16390893 0.20971412 0.32821329
v 0.22346976 -0.24712955 0.24844973
v 0.22346976 0.24687740 0.24844973
v 0.19889222 0.20143757 0.37819040
v 0.07889971 0.20294621 0.37749505
v 0.07889971 -0.20319836 0.37749505
v 0.55997181 -0.14652806 0.31630603
v 0.29671993 -0.20400867 0.37182956
v 0.14503546 0.17592587 0.39866084
v -0.21135552 0.25055915 0.24262703
v -0.17620745 -0.21319347 0.32223363
v -0.17620745 0.21294129 0.32223363
v 0.01086637 0.25217274 0.24547436
v 0.01086637 -0.25242489 0.24547436
v 0.34781185 -0.26886002 0.20709881
v -0.17622046 -0.21203283 0.32152789
v -0.17622046 0.21178065 0.32152789
v -0.25113998 -0.22424003 0.27801197
v -0.25113998 0.22398785 0.27801197
v -0.15921375 0.21033116 0.33184532
v -0.15921375 -0.21058332 0.33184532
v -0.15920723 0.20941779 0.33085495
v -0.15920723 -0.20966995 0.33085495
v 0.18660023 -0.20138657 0.37672498
v 0.18660023 0.20113439 0.37672498
v 0.05053353 -0.24960908 0.24707984
v 0.05053353 0.24935690 0.24707984
v 0.50302419 -0.19333752 0.32750197
v -0.13276464 0.20521841 0.34483009
v -0.13276464 -0.20547059 0.34483009
v 0.49555115 -0.19203872 0.32902788
v 0.49555115 0.19178657 0.32902788
v -0.16300239 0.23469326 0.30720053
v -0.16300239 -0.23494541 0.30720053
v -0.16956901 0.21207252 0.32627753
v -0.13277114 -0.20500431 0.34450840
v -0.13277114 0.20475214 0.34450840
v -0.04084491 -0.21245993 0.36050217
v 0.44830017 0.19008490 0.35018488
v -0.61285857 -0.20412510 0.10000000
v 0.75149958 0.10851455 0.10000000
v 0.04390827 -0.20437364 0.37450571
v 0.04390827 0.20412146 0.37450571
v 0.40309025 -0.23594236 0.28193332
v -0.11104321 0.19970472 0.35503280
v 0.31979780 -0.24389912 0.24920487
v -0.18209579 -0.25035642 0.24165192
v -0.18209579 0.25010424 0.24165192
v -0.22716227 0.21936998 0.29211448
v -0.22716227 -0.21962216 0.29211448
v 0.14689407 0.20173389 0.37940888
v -0.14649122 -0.20944044 0.33941083
v -0.08932181 -0.22120196 0.34430370
v -0.17247080 0.23607550 0.30138303
v -0.17247080 -0.23632765 0.30138303
v -0.46961220 -0.14932199 0.11795195
v 0.32167587 -0.24421625 0.24895368
v 0.32167587 0.24396407 0.24895368
v -0.14223302 -0.20752607 0.34050498
v -0.14223302 0.20727392 0.34050498
v -0.73133165 -0.04963595 0.16130219
v -0.16868863 -0.24955645 0.24266764
v 0.13365002 0.17614519 0.39865758
v 0.13365002 0.20215111 0.37774200
v 0.13365002 -0.20240326 0.37774200
v -0.17342284 0.23647873 0.30132162
v 0.52008317 0.19385961 0.32109118
v 0.52008317 -0.19411176 0.32109118
v -0.17252946 0.23626782 0.30148199
v 0.14875915 -0.20194773 0.37847633
v 0.14875915 0.20169555 0.37847633
v 0.41808206 0.18503405 0.10000000
v 0.21111926 -0.20180768 0.37651703
v 0.21111926 0.20155551 0.37651703
v -0.19553545 -0.24885168 0.24226018
v 0.37540226 -0.19244771 0.10000000
v 0.32543852 0.24427308 0.24884614
v 0.32543852 -0.24452526 0.24884614
v -0.25194840 0.24897349 0.24274074
v -0.10446344 -0.20056419 0.35899368
v -0.08084446 0.25102184 0.24373568
v -0.08084446 -0.25127401 0.24373568
v 0.43194568 -0.23754392 0.24831103
v 0.55219251 0.19267653 0.30155199
v 0.46054669 -0.19095120 0.34474886
v 0.46054669 0.19069902 0.34474886
v -0.11202126 -0.25158269 0.24294187
v -0.11202126 0.25133051 0.24294187
v -0.22030207 -0.21915428 0.29627517
v -0.22030207 0.21890210 0.29627517
v 0.05048154 0.25004738 0.24642576
v 0.05048154 -0.25029956 0.24642576
v 0.41826470 0.18918934 0.17306807
v 0.51722706 -0.19358539 0.32134270
v 0.51722706 0.19333322 0.32134270
v -0.11515127 0.21677498 0.35367246
v 0.30746678 -0.24633348 0.24866612
v 0.30746678 0.24608130 0.24866612
v 0.72546799 -0.20460870 0.23601996
v -0.19575056 -0.24914280 0.24184752
v -0.24582515 0.22216340 0.28058572
v 0.46714597 -0.19158870 0.34211370
v 0.46714597 0.19133652 0.34211370
v 0.29886564 -0.24759022 0.24802011
v 0.28778650 0.20364074 0.36959582
v 0.23942695 0.20151847 0.37307930
v 0.55027545 -0.19348305 0.30349213
v 0.18651574 0.20152789 0.37825864
v 0.09486339 -0.25119018 0.24688098
v 0.43594317 -0.00012609 0.37409632
v 0.11095719 0.20230792 0.37844158
v 0.49830328 -0.19416961 0.33137581
v -0.28741587 0.22637672 0.25398714
v -0.28741587 -0.22662890 0.25398714
v -0.74415166 -0.10085874 0.10000000
v 0.07217696 0.20338031 0.37788172
v 0.07217696 -0.20363246 0.37788172
v -0.09789014 -0.22274018 0.33976057
v -0.09789014 0.22248800 0.33976057
v 0.21484292 -0.24957008 0.24793733
v 0.25358405 0.20191683 0.37258865
v -0.74279527 -0.09919819 0.10000000
v 0.05207933 -0.25076270 0.24649008
v -0.10923662 -0.22559076 0.33648821
v -0.27734743 -0.22640527 0.26067173
v -0.27734743 0.22615309 0.26067173
v -0.72905555 -0.09750558 0.15859621
v 0.16097317 -0.25101830 0.24724717
v -0.72990328 -0.08155749 0.15959990
v 0.57888960 0.20892258 0.10000000
v -0.14892979 -0.25009810 0.24279047
v -0.23386553 0.22056637 0.28801161
v -0.23386553 -0.22081855 0.28801161
v 0.40563374 -0.18430678 0.10000000
v -0.14515412 0.23120514 0.31562885
v -0.14515412 -0.23145732 0.31562885
v 0.07215095 0.20326594 0.37744955
v 0.07215095 -0.20351809 0.37744955
v -0.13237300 0.20384962 0.34458051
v -0.69910465 0.24488600 0.10000000
v 0.23087810 -0.24639003 0.24894199
v -0.08785426 -0.23332011 0.31388861
v 0.21292585 -0.20188242 0.37686470
v 0.21292585 0.20163024 0.37686470
v 0.28473486 -0.24585778 0.24869310
v 0.28473486 0.24560563 0.24869310
v -0.38294807 -0.17578870 0.10000000
v -0.20932051 -0.25132211 0.24046724
v -0.12532380 -0.22794030 0.32671991
v -0.12532380 0.22768815 0.32671991
v -0.17162271 -0.21285488 0.32548031
v -0.16311936 -0.23444796 0.30542189
v 0.20819817 0.17574260 0.39758208
v 0.22520488 -0.20195130 0.37569495
v 0.22520488 0.20169912 0.37569495
v 0.11563291 -0.24959998 0.24795396
v -0.20805539 0.25909560 0.26320854
v -0.11399681 0.20077926 0.35358364
v 0.31181001 0.20478940 0.36442950
v -0.18551889 -0.21535326 0.31812136
v 0.35218139 -0.27411145 0.19023108
v 0.23274318 -0.24669122 0.24862745
v 0.23274318 0.24643907 0.24862745
v -0.17413324 -0.23697206 0.30167301
v 0.54370253 -0.28889084 0.10000000
v -0.07170169 -0.19433671 0.37367319
v 0.54642181 -0.19354673 0.30588556
v -0.14235649 -0.25226666 0.24223516
v -0.14235649 0.25201450 0.24223516
v -0.19233979 -0.21438693 0.31253294
v -0.19233979 0.21413475 0.31253294
v 0.43587169 -0.01349608 0.37408656
v 0.43587169 0.01324390 0.37408656
v -0.03654708 -0.25285413 0.24449537
v 0.55963985 0.19392102 0.30126703
v 0.28097238 0.20283627 0.36869697
v 0.43546087 -0.03010934 0.37412971
v 0.53949658 0.19339415 0.31027456
v 0.26515904 -0.20265819 0.36998971
v 0.28279179 -0.24509585 0.24905962
v -0.49152218 -0.15040901 0.10743504
v 0.43601523 -0.03149854 0.37362617
v -0.19263313 -0.31232130 0.26928189
v 0.22041868 -0.24966983 0.24777486
v -0.01295408 0.24984755 0.24614210
v -0.01295408 -0.25009973 0.24614210
v -0.19738689 0.25042787 0.24219716
v 0.21378690 0.20143334 0.37765427
v 0.74366200 0.14405780 0.10000000
v 0.05316869 -0.25060661 0.24702233
v -0.24889605 -0.22411753 0.27973051
v -0.36377609 0.01942388 0.10000000
v 0.27235835 -0.24773458 0.24844420
v 0.27235835 0.24748240 0.24844420
v -0.05957899 0.19094549 0.39040862
v 0.17599134 0.20111101 0.37682896
v 0.17599134 -0.20136319 0.37682896
v 0.13630467 0.17665826 0.39883956
v 0.08623008 0.20294198 0.37879476
v 0.21996229 -0.20146207 0.37453320
v 0.22701147 -0.20203707 0.37601988
v 0.22701147 0.20178491 0.37601988
v 0.10898179 -0.20227954 0.37770802
v 0.43486767 -0.03615080 0.37508409
v -0.01676222 -0.25113916 0.24509354
v -0.01676222 0.25088698 0.24509354
v -0.22869398 -0.22181476 0.29307854
v -0.22869398 0.22156261 0.29307854
v 0.09282936 -0.20259726 0.37646827
v 0.09282936 0.20234508 0.37646827
v -0.10721468 -0.28069705 0.10000000
v 0.53500385 -0.19301188 0.31059279
v 0.53500385 0.19275973 0.31059279
v 0.28651547 0.24511108 0.24882015
v 0.28651547 -0.24536326 0.24882015
v 0.18540773 0.17641683 0.39864785
v -0.23692993 0.22229629 0.28718144
v -0.23692993 -0.22254847 0.28718144
v -0.09993070 0.19759495 0.36023491
v 0.08620409 0.20293711 0.37835286
v 0.08620409 -0.20318927 0.37835286
v -0.25261288 -0.22598523 0.27921420
v -0.21878857 -0.21942428 0.29742607
v -0.21878857 0.21917211 0.29742607
v -0.09520299 -0.22237559 0.34023138
v 0.32051587 -0.24647027 0.24850205
v 0.32051587 0.24621812 0.24850205
v -0.25196076 0.24899852 0.24236383
v 0.45656958 0.19093329 0.34695185
v 0.11453777 -0.25106020 0.24712434
v 0.27580810 0.20309247 0.37118187
v 0.19767374 0.17581637 0.39793951
v -0.12261713 -0.25048411 0.24329541
v 0.05114737 0.24934775 0.24719157
v 0.13815025 0.24918633 0.24753050
v 0.13815025 -0.24943849 0.24753050
v 0.05311670 0.25104522 0.24636694
v 0.05311670 -0.25129740 0.24636694
v 0.25263257 0.16568919 0.39687124
v -0.02259183 0.28459652 0.19009610
v -0.10398015 -0.22437656 0.33831349
v -0.58451754 -0.16053980 0.10000000
v -0.17932351 -0.21386477 0.32078577
v 0.34526309 -0.29185070 0.10000000
v 0.01982064 0.27978131 0.10000000
v -0.68940742 0.24391886 0.10000000
v -0.27865102 0.00111603 0.10000000
v -0.01304506 -0.25069240 0.24536162
v -0.01304506 0.25044022 0.24536162
v 0.06065503 -0.20385537 0.37671849
v 0.06065503 0.20360320 0.37671849
v 0.54879588 0.19323588 0.30432550
v -0.17177868 0.23565146 0.30111888
v -0.17177868 -0.23590364 0.30111855
v 0.14945773 -0.20165788 0.37643253
v 0.14945773 0.20140573 0.37643253
v -0.07541167 -0.21854439 0.34863498
v 0.11166867 0.20234281 0.37822613
v 0.11166867 -0.20259497 0.37822613
v 0.23448479 0.17548038 0.39632136
v -0.57835511 -0.15612999 0.10000000
v 0.54533329 -0.19386516 0.30816296
v 0.54533329 0.19361298 0.30816296
v 0.49714978 -0.19176546 0.32819541
v 0.42279762 -0.08306396 0.37860860
v 0.46312986 -0.19271879 0.34659445
v -0.19611492 -0.25037325 0.24176481
v 0.07312322 -0.18904858 0.40059390
v -0.09715256 -0.25167984 0.24325738
v -0.09715256 0.25142767 0.24325738
v 0.48811176 -0.22764581 0.27579497
v -0.13117900 -0.20621694 0.34691938
v -0.10661445 0.22417925 0.33596444
v -0.10661445 -0.22443140 0.33596444
v 0.53964707 -0.19280881 0.30800863
v 0.53964707 0.19255663 0.30800863
v 0.07895302 0.27788017 0.10000000
v -0.07260103 -0.25171265 0.24380132
v -0.59339893 -0.26454464 0.16420575
v -0.06221311 -0.25332104 0.24384062
v -0.16709000 -0.25249639 0.24136826
v 0.54247717 0.19396129 0.31029288
v -0.23209111 0.24923570 0.24184396
v 0.24202312 -0.24664639 0.24857709
v 0.24202312 0.24639421 0.24857709
v -0.10379084 -0.25119798 0.24323562
v -0.10379084 0.25094580 0.24323562
v 0.03997716 -0.27234658 0.22137280
v 0.25335011 0.20230738 0.37370641
v 0.25335011 -0.20255956 0.37370641
v 0.19570469 -0.24824049 0.24810985
v 0.19570469 0.24798831 0.24810985
v 0.09933115 0.20248057 0.37820988
v 0.09933115 -0.20273275 0.37820988
v 0.37144504 -0.24282265 0.24894655
v -0.13592617 0.20507253 0.34283177
v -0.13592617 -0.20532468 0.34283177
v 0.17397029 0.17548981 0.39834567
v 0.05908370 -0.20366652 0.37596914
v 0.05908370 0.20341437 0.37596914
v 0.41017316 -0.24181862 0.24907391
v 0.43568322 -0.00012609 0.37447647
v 0.48770761 0.19259848 0.33376667
v -0.66201905 -0.25841329 0.10000000
v -0.07264003 0.25081355 0.24403429
v -0.07264003 -0.25106573 0.24403429
v -0.18932641 -0.25131008 0.24139360
v -0.25082575 -0.22293244 0.27744152
v 0.25332410 0.20226125 0.37348546
v 0.25332410 -0.20251343 0.37348546
v -0.17220232 -0.23846962 0.30161804
v -0.12177557 -0.22795882 0.33031720
v -0.49173021 -0.16101471 0.10000000
v -0.10760548 -0.20033382 0.35675492
v -0.23383858 0.22130915 0.28832159
v -0.23383858 -0.22156133 0.28832159
v 0.51596958 0.19282764 0.32018724
v 0.51596958 -0.19307979 0.32018724
v -0.29033630 -0.22684462 0.25234917
v -0.45775589 -0.15172204 0.13139856
v 0.75132474 0.00167126 0.10000000
v -0.07123142 0.21748101 0.35028973
v -0.18613757 0.21437162 0.31649446
v -0.18613757 -0.21462380 0.31649446
v 0.17770694 -0.20158544 0.37746580
v 0.17770694 0.20133326 0.37746580
v 0.57358899 0.19280782 0.28976168
v 0.06457449 0.27950093 0.10000000
v 0.28163829 0.24747850 0.24834998
v 0.28163829 -0.24773068 0.24834998
v -0.11046160 -0.22514886 0.33386117
v -0.11046160 0.22489668 0.33386117
v 0.32225748 -0.27187215 0.20203382
v -0.39362200 -0.17803230 0.10000000
v -0.25408611 0.22591436 0.27828881
v 0.39306881 0.20227809 0.37274495
v 0.56897871 0.19497090 0.29737202
v -0.23377976 0.24884482 0.24174843
v 0.19091200 -0.20143596 0.37536029
v -0.11615433 0.25246939 0.24274174
v -0.11615433 -0.25272157 0.24274174
v 0.09753811 0.23898686 0.30543885
v -0.49174962 -0.16087138 0.10000000
v 0.22319084 0.21032041 0.35650170
v 0.21831315 0.20120037 0.37476892
v 0.05193042 0.25041679 0.24652268
v -0.26946250 -0.22720982 0.26816466
v -0.09297873 -0.19877765 0.36490194
v 0.24286468 0.20179757 0.37210451
v -0.24579785 -0.22266868 0.28064421
v -0.24579785 0.22241652 0.28064421
v 0.57068728 0.19396417 0.29479937
v -0.14545956 0.23140075 0.31650095
v -0.14545956 -0.23165293 0.31650095
v 0.43561174 -0.01349608 0.37446997
v 0.43561174 0.01324390 0.37446997
v 0.08034889 0.25031706 0.24705124
v 0.17955253 -0.25011206 0.24777550
v 0.17955253 0.24985991 0.24777550
v -0.21424933 -0.21851415 0.29996961
v -0.21424933 0.21826200 0.29996961
v 0.21168139 0.17515222 0.39727340
v 0.41083208 -0.23502167 0.10073674
v 0.03766912 -0.20481551 0.37486431
v 0.24993347 -0.20206552 0.37293219
v 0.54708791 0.19378487 0.30767038
v -0.11712586 0.20269828 0.35298577
v -0.11712586 -0.20295046 0.35298577
v -0.13509113 -0.20716477 0.34509327
v -0.27692892 -0.21048290 0.26727371
v -0.12658125 -0.20336732 0.34745550
v -0.12658125 0.20311517 0.34745550
v 0.11586219 0.25049114 0.24717106
v 0.53006819 -0.19366500 0.31523211
v 0.06520726 0.20360483 0.37822939
v -0.07745870 0.25023389 0.24470819
v -0.17245630 -0.23634304 0.30139615
v -0.10725957 0.20055176 0.35728294
v 0.11527535 0.17676094 0.39851463
v 0.28062127 0.20322011 0.37149689
v 0.27400900 -0.20277944 0.36961778
v -0.15494745 -0.23385495 0.31276751
v -0.15494745 0.23360280 0.31276751
v 0.23715246 0.17601164 0.39649032
v 0.11049550 -0.20253243 0.37765478
v 0.41614678 0.18431223 0.36471778
v -0.08125386 0.21926893 0.34724431
v -0.08125386 -0.21952111 0.34724431
v -0.03946743 -0.21212117 0.36178015
v -0.18537431 0.21353656 0.31649216
v -0.18537431 -0.21378873 0.31649216
v -0.09166129 -0.25297176 0.24325218
v 0.15209939 0.17671089 0.39903126
v 0.23241175 0.20138492 0.37385586
v -0.25246208 0.22429647 0.27745290
v 0.23352032 0.18913839 0.39599366
v -0.13040242 0.22872628 0.32304368
v -0.13040242 -0.22897846 0.32304368
v -0.26873190 0.22666843 0.26838255
v 0.21067736 -0.20160688 0.37424579
v 0.07556270 -0.25223288 0.24637474
v 0.07745378 -0.25244537 0.24619831
v 0.39302347 0.24146962 0.24905246
v 0.39302347 -0.24172178 0.24905246
v -0.22781928 0.22022649 0.29184024
v -0.22781928 -0.22047867 0.29184024
v -0.19936825 -0.23106339 0.30764299
v 0.48183919 -0.19328742 0.33818595
v 0.48183919 0.19303526 0.33818595
v 0.55364820 0.19429565 0.30494425
v 0.25507870 0.24647643 0.24853843
v 0.25507870 -0.24672859 0.24853843
v 0.38583737 0.22992489 0.29202757
v -0.10490534 0.22385529 0.33625427
v -0.10490534 -0.22410747 0.33625427
v -0.73674246 -0.12676290 0.10000000
v -0.19636855 0.25051106 0.24136955
v -0.49167756 -0.16134007 0.10000000
v 0.47709849 -0.19363998 0.34079287
v 0.37033704 -0.24464256 0.24861479
v 0.47142526 0.19195227 0.34085265
v 0.63354982 0.21224986 0.26031409
v -0.49124063 -0.15041907 0.11672221
v -0.16538736 0.21047185 0.32755304
v -0.16538736 -0.21072403 0.32755304
v 0.57818674 0.19321138 0.28734973
v 0.24654936 0.20173715 0.37322551
v -0.55734373 -0.16525562 0.10000000
v -0.13989681 -0.25041554 0.24276968
v 0.37031103 0.24411648 0.24875515
v 0.37031103 -0.24436866 0.24875515
v 0.18512830 -0.25026543 0.24768744
v -0.20821055 0.21711043 0.30342682
v -0.20821055 -0.21736261 0.30342682
v 0.38988703 -0.18307516 0.10000000
v -0.17769237 -0.21278244 0.32085139
v -0.17769237 0.21253026 0.32085139
v 0.21346849 0.17620075 0.39774780
v 0.42898029 0.18404918 0.10000000
v 0.54036514 0.19228759 0.30745951
v 0.25691779 0.20241852 0.37381036
v 0.25691779 -0.20267070 0.37381036
v -0.06244055 -0.21609604 0.35353165
v 0.21344898 0.17552914 0.39729938
v -0.27184217 -0.22792843 0.26698355
v 0.43642080 -0.01517854 0.37364140
v 0.43642080 0.01492639 0.37364140
v -0.26435609 -0.22679689 0.27148254
v -0.26435609 0.22654471 0.27148254
v 0.53373988 -0.19346450 0.31228468
v 0.38350959 -0.24343967 0.24887734
v -0.08512699 -0.25330805 0.24332659
v 0.22571499 0.17529583 0.39670478
v 0.73669882 0.19492869 0.10000000
v 0.28937930 -0.20369592 0.36688801
v -0.12292257 -0.22748055 0.32768104
v -0.12292257 0.22722837 0.32768104
v -0.15796631 -0.15497458 0.34672250
v 0.02972048 0.29471496 0.15902160
v 0.34381645 -0.24323171 0.24912590
v -0.06435762 0.25020139 0.24500485
v 0.43545578 0.01325717 0.37490214
v 0.43545578 -0.01350933 0.37490214
v -0.07450424 -0.21849614 0.35079765
v 0.20130705 -0.18729003 0.39986707
v 0.15294095 0.17617380 0.39871607
v -0.73048196 -0.06878427 0.16028550
v 0.15292796 0.24807833 0.24807152
v -0.23765905 0.22082566 0.28568839
v -0.14563501 0.23188328 0.31725899
v -0.14563501 -0.23213545 0.31725899
v 0.16898264 0.20139141 0.37939589
v 0.46965189 0.22681352 0.25995798
v 0.17991179 0.18586728 0.39968158
v 0.05365265 0.25162383 0.24624411
v -0.23616570 0.24964935 0.24242557
v 0.50682801 0.20472483 0.32637496
v 0.43541678 -0.00012609 0.37516206
v 0.23715299 -0.20193034 0.37256738
v -0.69873124 0.24738573 0.10170468
v 0.51855927 -0.19436164 0.32205558
v 0.16612652 0.17650002 0.39888179
v 0.18183556 -0.20643725 0.36635151
v -0.30706822 0.22269542 0.24382139
v -0.25196595 0.24873142 0.24187320
v 0.56269982 0.20047351 0.10000000
v 0.49964197 0.19215666 0.32731844
v 0.49964197 -0.19240882 0.32731844
v -0.10598734 -0.22486357 0.33758516
v -0.14252438 0.23114546 0.31859064
v 0.14816778 -0.20199353 0.37865504
v 0.14816778 0.20174138 0.37865504
v 0.24840173 0.20182992 0.37320098
v 0.74663707 0.11728234 0.10000000
v -0.25830432 -0.22556312 0.27454337
v -0.15476423 0.20801515 0.33305917
v -0.07954475 -0.21920204 0.34744251
v -0.07954475 0.21894986 0.34744251
v 0.10942667 0.20227783 0.37840161
v 0.23885507 0.17509697 0.39598668
v 0.55801129 0.19936805 0.30190611
v -0.28155810 -0.22702186 0.25833383
v 0.49882037 -0.25664126 0.21841953
v 0.11987330 0.28265375 0.10000000
v 0.05366584 -0.20415496 0.37632206
v 0.05366584 0.20390278 0.37632206
v 0.36945072 0.24862484 0.10000000
v 0.45820123 0.19183319 0.34824522
v 0.32643183 -0.27092521 0.20360005
v -0.13065612 0.28464802 0.10000000
v -0.07861220 -0.25303058 0.24353681
v 0.03853720 -0.25270239 0.24577297
v -0.06255752 0.21571813 0.35395730
v -0.06255752 -0.21597031 0.35395730
v -0.03340875 0.27923984 0.10000000
v 0.43630383 -0.00012609 0.37377788
v 0.51093645 -0.19257454 0.32203932
v 0.51093645 0.19232236 0.32203932
v 0.57640707 -0.18559434 0.10000000
v -0.62199217 -0.24576440 0.17263539
v -0.49331371 -0.15327174 0.10000000
v 0.26055049 0.20204973 0.37141890
v 0.26055049 -0.20230190 0.37141890
v -0.24502745 -0.22392842 0.28286768
v -0.24502745 0.22367594 0.28286768
v 0.49486879 0.19336050 0.33238210
v 0.49486879 -0.19361267 0.33238210
v 0.56005901 0.19301738 0.29763856
v -0.08052926 -0.21970762 0.34845303
v 0.43534530 -0.01351083 0.37515557
v 0.43534530 0.01325865 0.37515557
v -0.12021594 -0.20316751 0.35102645
v -0.37039323 0.00138604 0.12149444
v 0.46120753 -0.19157293 0.34500631
v 0.04417794 -0.20470896 0.37589315
v 0.04417794 0.20445678 0.37589315
v -0.11927689 -0.22717380 0.33071133
v -0.11927689 0.22692163 0.33071133
v -0.19079897 0.21546664 0.31438209
v -0.19079897 -0.21571882 0.31438209
v 0.51376009 -0.19461184 0.32446070
v -0.15710508 -0.27987566 0.10000000
v 0.09897375 -0.20239580 0.37707915
v 0.09897375 0.20214362 0.37707915
v 0.29832656 -0.24744505 0.24821740
v 0.53548149 0.19444838 0.31415009
v -0.10133763 0.19838193 0.35954931
v -0.00931359 0.27963018 0.10000000
v -0.69827447 0.24584749 0.10000000
v 0.52413501 0.19305022 0.31660816
v 0.52413501 -0.19330237 0.31660816
v -0.19621131 -0.21688498 0.31191686
v 0.44004051 0.18875661 0.35326844
v 0.44004051 -0.18900879 0.35326844
v -0.13252744 0.25065597 0.24264782
v -0.13252744 -0.25090813 0.24264782
v 0.53262538 0.19353694 0.31441230
v 0.53262538 -0.19378912 0.31441230
v -0.25195913 0.24843054 0.24174354
v -0.25857792 -0.24919550 0.24473438
v 0.04036980 -0.25291944 0.24560108
v -0.15484872 -0.20828406 0.33301497
v 0.56967757 -0.28776994 0.10375262
v -0.22635777 -0.21976740 0.29258888
v -0.22635777 0.21951522 0.29258888
v -0.13442502 0.22932675 0.32143529
v -0.13442502 -0.22957893 0.32143529
v 0.41886692 -0.20885184 0.35739609
v -0.12970381 -0.20527109 0.34682513
v -0.12970381 0.20501891 0.34682513
v -0.13254043 -0.22982262 0.32431059
v -0.13254043 0.22957044 0.32431059
v 0.24632841 0.24792399 0.24836460
v 0.24632841 -0.24817614 0.24836460
v -0.10032677 -0.22336795 0.33946345
v 0.19718635 0.20114188 0.37630907
v 0.19718635 -0.20139404 0.37630907
v -0.11569017 -0.26843224 0.22098044
v 0.73927525 -0.18475314 0.10000000
v 0.58429119 0.25393694 0.10000000
v 0.43433478 -0.04958103 0.37498011
v 0.36128678 -0.25287705 0.10000000
v 0.04440638 0.27968327 0.10000000
v 0.59212288 0.19330690 0.27905174
v -0.21278748 0.21754033 0.30069711
v -0.21278748 -0.21779249 0.30069711
v -0.19738493 0.25073265 0.24231899
v -0.25400006 -0.24848268 0.24098596
v 0.27370356 0.20252639 0.36992750
v 0.09323552 0.20276229 0.37874603
v 0.18016015 0.17632554 0.39862834
v -0.13852001 0.18998553 0.34580819
v -0.17164658 0.23837195 0.30091762
v -0.18993793 -0.21501338 0.31416471
v -0.18993793 0.21451817 0.31401850
v -0.18993793 -0.21477034 0.31401850
v -0.18993793 0.21476123 0.31416471
v 0.11095304 0.20238601 0.37788516
v 0.01102557 0.24975430 0.24637896
v 0.01102557 -0.25000647 0.24637896
v 0.18309462 0.17668055 0.39894106
v -0.20526867 0.21614670 0.30510995
v -0.20526867 -0.21639888 0.30510995
v -0.11176437 -0.22553867 0.33400193
v -0.11176437 0.22528652 0.33400193
v 0.52971728 0.19390248 0.31651134
v 0.22926322 0.17601067 0.39690298
v 0.09930013 -0.21486363 0.35458079
v 0.18804412 -0.20152894 0.37526602
v 0.19807990 -0.24939462 0.24800944
v 0.19807990 0.24914244 0.24800944
v 0.17067226 0.20153796 0.37895722
v 0.32279363 -0.27162130 0.20285913
v -0.34126364 -0.02871862 0.10000000
v 0.21130447 -0.20146261 0.37563646
v 0.21130447 0.20121043 0.37563646
v -0.25771035 0.22385919 0.27309809
v -0.25771035 -0.22411137 0.27309809
v 0.43522833 -0.02692214 0.37487290
v 0.43522833 0.02666998 0.37487290
v -0.14018274 -0.23096927 0.31982364
v 0.48340534 -0.19200688 0.33470599
v 0.48340534 0.19175471 0.33470599
v 0.18295128 0.20152789 0.37793694
v 0.18295128 -0.20178005 0.37793694
v -0.21435234 -0.21776521 0.29978407
v -0.21435234 0.21751303 0.29978407
v -0.53967741 -0.17667436 0.10000000
v -0.24580954 -0.22316063 0.28089277
v -0.24580954 0.22290845 0.28089277
v -0.49165690 -0.16009997 0.10089164
v 0.43520882 0.02248061 0.37513932
v 0.43520882 -0.02273279 0.37513932
v 0.11654819 -0.25006200 0.24751502
v -0.28739379 -0.22612039 0.25385621
v 0.25350177 0.17521886 0.39509412
v 0.31426427 0.24401576 0.24904174
v 0.31426427 -0.24426791 0.24904174
v -0.04760436 -0.21342091 0.35885720
v 0.56370472 0.19258134 0.29522338
v 0.06483034 -0.20348302 0.37551623
v 0.06483034 0.20323084 0.37551623
v 0.43546968 0.02783507 0.37421250
v -0.73416550 0.02106266 0.13705749
v 0.01096709 -0.25031158 0.24598190
v 0.01096709 0.25005941 0.24598190
v -0.56920429 -0.15692891 0.10000000
v -0.22411414 -0.22099368 0.29550997
v -0.22411414 0.22074150 0.29550997
v 0.46542711 -0.19093625 0.34247110
v 0.11489194 -0.24974230 0.24791944
v 0.54761754 0.19286011 0.30418685
v 0.54761754 -0.19311229 0.30418685
v -0.22326639 0.24950344 0.24106055
v -0.22326639 -0.24975562 0.24106055
v 0.44810742 -0.19114612 0.35176604
v -0.20790949 0.23047075 0.30416374
v 0.04780414 -0.25231735 0.24607029
v 0.05819858 0.20392586 0.37765751
v 0.41022708 -0.28122163 0.10000000
v -0.09488132 -0.19837123 0.36295454
v 0.50319669 0.19284908 0.32654249
v 0.50319669 -0.19310124 0.32654249
v -0.29635346 0.00961770 0.10000000
v 0.54004674 -0.19339888 0.30873029
v 0.54004674 0.19314671 0.30873029
v 0.05817907 -0.20417121 0.37721561
v 0.05817907 0.20391903 0.37721561
v 0.49090467 -0.19376345 0.33446130
v -0.33703781 0.02930066 0.10000000
v 0.18100171 0.17579168 0.39829691
v 0.01910540 0.20584346 0.37343974
v 0.21123297 0.20114772 0.37491187
v 0.11642447 0.24886940 0.24801723
v 0.11486596 0.25018124 0.24726602
v 0.11486596 -0.25043342 0.24726602
v 0.14837726 -0.20181380 0.37764302
v 0.22540308 -0.24752076 0.24834478
v 0.22540308 0.24726861 0.24834478
v 0.01092811 -0.25069660 0.24572228
v 0.01092811 0.25044445 0.24572228
v 0.09123396 -0.25080058 0.24694986
v 0.09123396 0.25054843 0.24694986
v 0.57046063 -0.28624533 0.10000000
v 0.48726599 0.19297777 0.33537276
v 0.56270069 -0.19365004 0.29691463
v 0.57449062 -0.27992133 0.10000000
v 0.12114571 0.17972162 0.40035461
v 0.43001835 0.04234313 0.37818874
v -0.23246736 -0.24968445 0.24091174
v -0.23246736 0.24943230 0.24091174
v -0.26539175 -0.22595948 0.26915534
v -0.72605972 -0.09718476 0.15831621
v 0.28491357 0.20352716 0.37047661
v 0.28491357 -0.20377934 0.37047661
v -0.38444525 -0.27509158 0.10000000
v 0.24994809 -0.20204585 0.37194855
v 0.24994809 0.20179367 0.37194855
v 0.05815309 0.20380369 0.37678347
v 0.05815309 -0.20405584 0.37678347
v 0.53245642 -0.19247932 0.31143013
v 0.53245642 0.19222717 0.31143013
v 0.19703038 -0.20173911 0.37718637
v 0.19703038 0.20148696 0.37718637
v -0.19134602 -0.21680876 0.31533703
v 0.25939049 -0.24838767 0.24823462
v 0.25939049 0.24813551 0.24823462
v 0.01090211 0.25088828 0.24560238
v 0.01090211 -0.25114046 0.24560238
v 0.26033603 0.20246984 0.37279334
v 0.26033603 -0.20272202 0.37279334
v 0.27744059 0.20296913 0.37214823
v 0.55133470 0.19239483 0.30181194
v -0.18847022 0.21377765 0.31471155
v -0.18847022 -0.21402983 0.31471155
v -0.38177157 -0.17758854 0.10000000
v 0.47196790 -0.19095120 0.33951817
v 0.37194914 0.24335900 0.24885444
v 0.56455277 0.19286727 0.29495207
v -0.29007355 0.02829646 0.10000000
v 0.11764407 -0.24949667 0.24734888
v 0.11764407 0.24954894 0.24728388
v 0.11764407 -0.24980111 0.24728388
v 0.11764407 0.24924449 0.24734888
v 0.16110639 0.20144406 0.37957460
v -0.32257411 -0.01723831 0.10000000
v 0.26182941 0.20237106 0.37228455
v 0.56575915 0.23094138 0.15947038
v 0.43604389 0.01324464 0.37391434
v 0.43604389 -0.01349682 0.37391434
v 0.48780741 -0.19323326 0.33506643
v 0.36141129 -0.20115312 0.10000000
v 0.26125559 -0.24857257 0.24804001
v 0.52437708 -0.21200675 0.18041953
v -0.16770735 0.21132933 0.32663121
v -0.16770735 -0.21158151 0.32663121
v 0.54279887 -0.19374233 0.30899966
v -0.15637387 0.25069918 0.24207953
v -0.15637387 -0.25095135 0.24207953
v 0.56925448 0.19319610 0.29263305
v -0.69759545 0.24676359 0.10000000
v 0.17242039 -0.20136772 0.37643903
v 0.17242039 0.20111554 0.37643903
v 0.01085012 -0.25272481 0.24540678
v 0.43507886 -0.02021014 0.37533102
v 0.20642729 0.17537740 0.39750411
v 0.43516363 0.07760794 0.37895241
v 0.50202322 0.28445308 0.10000000
v -0.27552515 -0.22578733 0.26160606
v -0.10829464 0.23374051 0.31270067
v 0.39108837 -0.27488398 0.10000000
v -0.23981625 0.22187908 0.28447510
v -0.23981625 -0.22213125 0.28447510
v 0.27539318 -0.24550101 0.24887961
v 0.27539318 0.24524886 0.24887961
v -0.05338799 0.21424115 0.35666006
v 0.55789501 -0.19399479 0.30177814
v 0.23948218 0.20153373 0.37356669
v -0.60113057 -0.25640745 0.16869731
v -0.22530050 -0.25069986 0.24028045
v -0.59742011 -0.27771722 0.10000000
v 0.48418192 0.19148566 0.33418740
v 0.48418192 -0.19173784 0.33418740
v -0.24522858 0.22452073 0.28368617
v -0.24522858 -0.22477291 0.28368617
v 0.51441318 -0.19334430 0.32165981
v 0.51441318 0.19309212 0.32165981
v 0.05050429 0.24966234 0.24668408
v 0.05050429 -0.24991452 0.24668408
v -0.38167353 -0.17735471 0.10795827
v 0.26476406 0.17596342 0.39453434
v -0.60279337 -0.25553828 0.16895292
v 0.09206903 -0.20265806 0.37753680
v 0.26801153 0.20238856 0.37112479
v 0.22340152 -0.20176153 0.37538953
v 0.22340152 0.20150938 0.37538953
v 0.19883050 -0.20180442 0.37755353
v 0.19883050 0.20155227 0.37755353
v -0.25336671 0.24848739 0.24080776
v 0.43490295 0.04530582 0.37404970
v -0.47468871 -0.27528354 0.19544488
v -0.15359575 -0.23290455 0.31145384
v -0.19592991 -0.24952232 0.24157395
v 0.05047178 0.25049058 0.24630586
v 0.05047178 -0.25074276 0.24630586
v -0.20065760 0.21569798 0.30776916
v -0.20065760 -0.21595016 0.30776916
v 0.07219971 0.20338614 0.37832362
v 0.29140238 -0.27285700 0.20268271
v -0.27030159 -0.23388318 0.26575261
v 0.43594640 0.02916543 0.37371290
v -0.24168102 0.24871387 0.24092473
v -0.24168102 -0.24896605 0.24092473
v 0.43487696 -0.04939228 0.37378374
v -0.21731210 0.24977768 0.24196969
v -0.20607643 -0.21827664 0.30602885
v -0.20607643 0.21802447 0.30602885
v 0.05103921 -0.25001080 0.24668988
v 0.14857348 0.20231976 0.37535191
v 0.10712617 -0.25175945 0.24682053
v -0.18997611 0.20966294 0.31561833
v -0.25332089 0.22608396 0.27880511
v -0.09223317 0.25031772 0.24414573
v -0.09223317 -0.25056990 0.24414573
v 0.09673173 -0.24992198 0.24791458
v 0.25073769 -0.20223430 0.37142216
v 0.25073769 0.20198215 0.37142216
v 0.16097643 -0.25077913 0.24745220
v -0.27300770 -0.22709573 0.26529484
v 0.52189952 -0.19339855 0.31807814
v 0.52189952 0.19314637 0.31807814
v -0.20070309 -0.21727162 0.30874167
v -0.20070309 0.21701947 0.30874167
v 0.14773887 0.20177483 0.37896372
v -0.10874424 -0.22495688 0.33398891
v 0.10921948 0.20198337 0.37727708
v -0.73162150 -0.02405196 0.16189845
v 0.52377109 -0.19269411 0.31588390
v 0.52377109 0.19244193 0.31588390
v 0.44251321 0.18930509 0.35239764
v 0.16095694 0.20142748 0.37788495
v 0.16095694 -0.20167966 0.37788495
v -0.49166253 -0.16508279 0.10000000
v -0.15084362 0.23255781 0.31395285
v -0.15084362 -0.23280999 0.31395285
v 0.50203669 -0.19354866 0.32877509
v 0.50203669 0.19329651 0.32877509
v 0.23747412 0.20172740 0.37441475
v -0.09207002 0.19645569 0.36377748
v 0.19841346 0.20126255 0.37490454
v -0.06676208 -0.21672544 0.35293378
v -0.20971496 0.21782756 0.30278998
v -0.20971496 -0.21807972 0.30278998
v -0.21283850 0.21885986 0.30168458
v -0.21283850 -0.21911202 0.30168458
v 0.50202370 -0.19154550 0.32592450
v 0.20061761 0.20154705 0.37769325
v 0.20061761 -0.20179923 0.37769325
v 0.48501050 -0.19113674 0.33370260
v 0.10987168 0.20285094 0.37673978
v 0.58087539 -0.25149410 0.10000000
v 0.22706020 0.20173715 0.37645528
v 0.43646184 0.18970643 0.35620311
v 0.37821647 0.28447965 0.15147877
v -0.06394496 -0.25302895 0.24386696
v -0.14236625 -0.25257177 0.24216562
v 0.38036839 -0.18830271 0.10000000
v 0.05214803 -0.20994446 0.36350421
v -0.15465826 -0.20970505 0.33406620
v -0.15465826 0.20945287 0.33406620
v 0.16280251 0.24991253 0.24767901
v 0.16280251 -0.25016471 0.24767901
v -0.19909873 -0.25881583 0.26977183
v -0.10363813 -0.20024347 0.35913663
v 0.52466464 -0.19294203 0.31569383
v 0.52466464 0.19268985 0.31569383
v 0.57816926 -0.28231069 0.10000000
v 0.12760229 -0.24281603 0.27545713
v -0.27560934 0.22752828 0.26425941
v 0.47458355 -0.19326729 0.34165781
v 0.38621126 -0.19185420 0.13959966
v -0.21467077 0.25036385 0.24231673
v -0.14238573 -0.25284926 0.24202104
v 0.43583593 -0.02606394 0.37387860
v 0.43583593 0.02581179 0.37387860
v -0.50870164 -0.24130222 0.22791250
v 0.31121352 -0.21097743 0.35148959
v 0.43395137 -0.05377359 0.37511983
v -0.41689277 -0.26962848 0.10000000
v 0.40792617 0.24034292 0.24936519
v -0.20447843 -0.21769567 0.30628423
v -0.20447843 0.21744349 0.30628423
v -0.25616370 -0.22548322 0.27622747
v -0.18010951 0.21216114 0.31938760
v 0.23930023 0.20197499 0.37491187
v 0.23930023 -0.20222717 0.37491187
v 0.27615027 -0.20337837 0.37142865
v -0.14241174 -0.25308646 0.24180822
v -0.38404006 -0.17538980 0.10000000
v -0.25678315 0.24839589 0.24220024
v 0.13535589 0.20190252 0.37857057
v 0.13535589 -0.20215470 0.37857057
v 0.54948363 -0.18487472 0.10000000
v 0.16275704 0.20118575 0.37716362
v 0.16275704 -0.20143790 0.37716362
v 0.18448494 0.24780116 0.24812903
v 0.18448494 -0.24805331 0.24812903
v -0.09926238 0.19872747 0.36076385
v 0.48683008 -0.19258656 0.33368475
v 0.48683008 0.19233438 0.33368475
v 0.14467437 0.20788562 0.36673352
v 0.02982690 -0.20534435 0.37269866
v -0.26360404 -0.24978056 0.23854859
v -0.12969576 -0.21776256 0.34651184
v 0.56328205 0.19504278 0.30034240
f 491 468 1377
f 468 408 1154
f 1356 405 408
f 58 408 405
f 66 1022 450
f 1261 832 946
f 1299 408 58
f 1154 408 1299
f 1299 58 832
f 408 468 1356
f 896 405 1356
f 896 946 405
f 946 832 405
f 896 66 946
f 450 946 66
f 1261 1299 832
f 1299 1261 1154
f 450 1261 946
f 832 58 405
f 468 1154 654
f 1154 532 517
f 98 110 593
f 98 593 517
f 593 1154 517
f 86 705 1294
f 262 705 1146
f 450 86 335
f 86 450 705
f 1294 1154 86
f 705 262 1294
f 1022 373 705
f 705 373 1146
f 86 1154 335
f 1261 450 335
f 335 1154 1261
f 450 1022 705
f 155 1370 1021
f 1370 155 992
f 1306 409 992
f 409 1306 312
f 1370 451 1021
f 1262 451 945
f 992 409 1370
f 409 312 844
f 409 844 1370
f 999 312 1306
f 844 312 942
f 844 942 945
f 945 942 719
f 844 945 1370
f 945 719 1262
f 945 451 1370
f 719 1287 458
f 1262 719 458
f 942 1287 719
f 1287 942 312
f 1287 312 298
f 1057 1287 298
f 1363 1057 298
f 1287 1057 904
f 374 1021 704
f 261 704 1293
f 904 458 1287
f 704 87 1293
f 451 458 87
f 87 704 451
f 451 1262 458
f 1202 1293 87
f 904 1202 87
f 704 261 1145
f 704 1145 374
f 904 87 458
f 1021 451 704
f 364 1049 648
f 1049 364 25
f 1049 25 1293
f 648 165 364
f 518 165 648
f 663 845 1391
f 845 47 1391
f 432 109 489
f 904 1391 549
f 518 50 97
f 50 489 97
f 240 489 50
f 489 181 432
f 769 181 489
f 97 489 109
f 432 1391 47
f 489 240 769
f 240 866 769
f 240 549 866
f 432 181 1391
f 866 549 1391
f 769 866 411
f 1391 411 866
f 549 50 94
f 50 549 240
f 181 769 411
f 1391 181 411
f 904 549 94
f 50 518 648
f 648 657 94
f 904 657 1202
f 657 904 94
f 1049 657 648
f 648 94 50
f 657 1049 1202
f 1293 1202 1049
f 1391 247 663
f 247 765 226
f 830 658 1006
f 1006 1110 830
f 512 1006 658
f 977 486 259
f 1256 1363 77
f 1363 83 1017
f 1256 776 1363
f 77 1363 1017
f 1269 776 1256
f 83 776 169
f 1017 169 26
f 1017 83 169
f 1269 1256 77
f 1017 26 77
f 77 26 1269
f 26 169 1269
f 1269 169 776
f 83 1363 259
f 415 491 737
f 415 468 491
f 1363 298 977
f 1363 977 259
f 488 1075 1363
f 488 785 1075
f 1000 658 596
f 168 512 232
f 1006 512 168
f 1363 1278 488
f 1110 168 1286
f 232 117 168
f 168 117 1286
f 117 658 830
f 117 830 1286
f 488 658 117
f 488 117 232
f 232 785 488
f 1286 830 1110
f 168 1110 1006
f 737 956 415
f 692 56 955
f 298 955 56
f 542 1089 716
f 716 1089 1326
f 692 1326 1089
f 1089 56 692
f 1298 56 1089
f 412 663 955
f 867 955 298
f 468 56 981
f 298 56 415
f 56 468 415
f 546 629 966
f 629 546 1062
f 1298 1124 546
f 1124 1062 546
f 1082 1099 1283
f 1298 668 1099
f 1283 668 1211
f 636 1089 869
f 534 542 655
f 655 716 1044
f 993 1298 1089
f 1371 668 1298
f 1211 887 129
f 1369 362 714
f 362 1369 1331
f 921 213 934
f 1067 557 526
f 716 655 542
f 887 1092 129
f 1371 1211 668
f 1298 514 1371
f 1211 1371 514
f 291 921 323
f 1369 1310 1331
f 28 1369 714
f 514 323 887
f 1329 255 1094
f 1369 28 1329
f 1127 516 71
f 966 56 546
f 598 966 629
f 668 1283 1099
f 546 56 1298
f 1124 1298 1099
f 1099 1082 1124
f 1062 1124 1082
f 1062 177 629
f 820 1036 1369
f 1062 587 177
f 1082 587 1062
f 714 516 28
f 190 71 516
f 892 190 516
f 516 714 892
f 896 190 892
f 516 1127 812
f 532 1036 509
f 509 20 532
f 1127 71 1249
f 239 896 1356
f 28 721 1329
f 1036 820 509
f 509 820 1232
f 1283 930 1082
f 930 587 1082
f 1310 1369 1036
f 1094 1369 1329
f 981 610 1356
f 1356 610 623
f 342 623 610
f 610 981 342
f 896 239 190
f 28 812 721
f 1356 623 239
f 71 190 239
f 71 239 623
f 812 902 721
f 812 28 516
f 721 902 858
f 902 587 858
f 587 902 177
f 858 255 1329
f 721 858 1329
f 1092 1094 255
f 1369 1094 820
f 213 820 1094
f 858 930 255
f 930 858 587
f 1094 934 213
f 934 1094 1092
f 930 129 255
f 342 981 1114
f 71 1114 848
f 1114 56 598
f 342 71 623
f 1114 71 342
f 71 848 1249
f 1127 1249 812
f 966 598 56
f 848 629 177
f 1249 848 177
f 1114 598 848
f 629 848 598
f 177 902 1249
f 902 812 1249
f 1283 129 930
f 56 1114 981
f 1211 129 1283
f 887 934 1092
f 514 887 1211
f 129 1092 255
f 323 934 887
f 820 213 1232
f 20 509 1347
f 509 1232 1347
f 1347 1232 282
f 282 1232 331
f 921 291 519
f 1232 519 331
f 519 291 202
f 213 921 1232
f 934 323 921
f 519 1232 921
f 514 1298 498
f 498 323 514
f 993 498 1298
f 323 498 291
f 282 557 1347
f 331 519 435
f 993 291 498
f 291 993 202
f 519 202 435
f 869 1089 542
f 542 534 869
f 557 282 526
f 864 526 225
f 225 593 864
f 593 225 875
f 636 202 1089
f 655 368 534
f 655 1044 368
f 526 864 1067
f 875 225 351
f 526 351 225
f 1044 1385 351
f 636 869 793
f 1326 349 1044
f 1044 351 368
f 1044 716 1326
f 349 1385 1044
f 875 1385 593
f 593 1385 349
f 1385 875 351
f 526 534 351
f 331 216 282
f 331 435 216
f 636 793 202
f 869 534 793
f 534 368 351
f 793 435 202
f 435 793 534
f 1089 202 993
f 526 216 534
f 216 526 282
f 216 435 534
f 1356 468 981
f 557 98 1347
f 593 1067 864
f 98 557 110
f 20 517 532
f 517 20 1347
f 349 692 593
f 1067 593 110
f 1067 110 557
f 1347 98 517
f 532 1154 1036
f 1036 1154 1310
f 1310 1294 1331
f 1294 1310 1154
f 892 66 896
f 362 373 714
f 892 1022 66
f 1022 892 714
f 1022 714 373
f 373 362 1146
f 1146 362 262
f 1331 262 362
f 1331 1294 262
f 349 1326 692
f 226 692 955
f 663 226 955
f 1246 867 1132
f 1123 547 1061
f 1100 667 955
f 1284 667 1100
f 1212 130 888
f 715 59 515
f 363 1332 59
f 922 214 1233
f 865 527 1066
f 1066 527 556
f 412 955 268
f 497 1059 955
f 888 130 1093
f 955 1212 513
f 1212 955 667
f 292 324 922
f 1332 29 59
f 1368 1332 1309
f 513 888 324
f 1330 1091 256
f 1368 1330 29
f 1330 1368 1091
f 867 1246 805
f 547 955 867
f 667 1284 1212
f 1123 955 547
f 955 1123 1100
f 1100 1123 1083
f 1123 1061 1083
f 1100 1083 1284
f 547 630 1061
f 1061 630 176
f 547 867 630
f 867 805 630
f 515 151 688
f 1061 176 586
f 1083 1061 586
f 72 189 515
f 151 189 1189
f 189 151 515
f 515 688 715
f 189 72 238
f 1037 740 508
f 508 740 19
f 1037 508 821
f 821 508 1233
f 1284 1083 931
f 931 1083 586
f 720 29 1330
f 1126 59 813
f 813 29 720
f 1368 1309 1037
f 29 1332 1368
f 1091 1093 256
f 816 999 611
f 999 622 611
f 622 343 611
f 611 343 1246
f 1246 1132 611
f 281 1189 189
f 281 189 238
f 59 715 363
f 999 238 622
f 281 238 999
f 238 72 622
f 813 720 903
f 515 59 72
f 29 813 59
f 586 903 857
f 720 857 903
f 903 586 176
f 857 1330 256
f 720 1330 857
f 1037 821 1368
f 1368 821 1091
f 214 1091 821
f 857 931 586
f 931 857 256
f 1091 933 1093
f 256 1093 130
f 933 1091 214
f 931 256 130
f 72 1126 1250
f 1246 343 1115
f 72 1115 343
f 343 622 72
f 1115 72 847
f 72 1250 847
f 1126 813 1250
f 59 1126 72
f 847 630 805
f 1250 176 847
f 805 1115 847
f 630 847 176
f 176 1250 903
f 903 1250 813
f 1284 931 130
f 805 1246 1115
f 1212 1284 130
f 888 1093 933
f 513 1212 888
f 324 888 933
f 821 1233 214
f 1346 556 283
f 508 19 1346
f 508 1346 1233
f 1233 1346 283
f 922 520 292
f 1233 520 922
f 1233 283 330
f 520 203 292
f 214 922 933
f 933 922 324
f 520 1233 330
f 497 513 324
f 955 513 497
f 324 292 497
f 330 434 520
f 1059 292 203
f 292 1059 497
f 520 434 203
f 556 527 283
f 527 865 224
f 577 224 865
f 224 577 1351
f 203 406 955
f 145 406 868
f 955 406 145
f 47 1351 577
f 99 1029 224
f 527 224 1029
f 224 1351 99
f 1351 1158 99
f 145 367 811
f 406 794 868
f 145 868 367
f 868 533 367
f 268 955 145
f 663 412 1158
f 99 268 811
f 412 268 1158
f 663 1158 845
f 1351 47 1158
f 47 845 1158
f 268 99 1158
f 268 145 811
f 1029 811 367
f 367 527 1029
f 811 1029 99
f 330 283 217
f 330 217 434
f 406 203 794
f 868 794 533
f 527 367 533
f 794 203 434
f 434 533 794
f 955 1059 203
f 527 217 283
f 217 527 533
f 217 533 434
f 1132 867 816
f 611 1132 816
f 298 816 867
f 415 977 298
f 298 999 816
f 999 298 312
f 109 556 97
f 432 47 577
f 518 19 165
f 165 740 364
f 1066 432 865
f 865 432 577
f 432 1066 109
f 740 165 19
f 1346 19 518
f 97 1346 518
f 1346 97 556
f 556 109 1066
f 740 1037 364
f 1037 25 364
f 25 1037 1309
f 1309 1293 25
f 1332 1293 1309
f 992 151 1189
f 151 992 688
f 155 688 992
f 374 363 715
f 363 374 1145
f 1021 688 155
f 363 261 1332
f 688 1021 715
f 715 1021 374
f 261 363 1145
f 1332 261 1293
f 1189 1306 992
f 1306 1189 281
f 1306 281 999
f 663 247 226
f 467 1350 132
f 639 1312 146
f 722 639 270
f 1345 1389 484
f 21 132 371
f 1345 484 191
f 1345 191 886
f 1345 886 535
f 535 639 1345
f 639 940 111
f 940 639 535
f 639 111 754
f 639 754 270
f 639 722 1312
f 146 132 639
f 132 146 895
f 1247 819 1253
f 170 1247 1253
f 1247 210 839
f 1247 197 819
f 1247 170 210
f 894 147 1247
f 1247 206 894
f 257 531 69
f 1391 904 661
f 531 552 46
f 552 531 874
f 1391 879 379
f 968 379 69
f 968 1322 209
f 531 1322 968
f 879 69 379
f 1322 531 46
f 661 879 1391
f 531 257 874
f 257 69 477
f 968 69 531
f 69 85 477
f 85 69 879
f 85 879 661
f 477 85 661
f 1057 1350 904
f 1350 477 904
f 477 661 904
f 552 96 46
f 649 1350 467
f 1279 851 751
f 851 1322 46
f 445 1279 751
f 46 96 851
f 1279 467 52
f 52 851 1279
f 633 52 467
f 1322 851 209
f 467 1279 649
f 649 1279 445
f 445 1350 649
f 851 96 751
f 783 584 579
f 132 683 371
f 67 766 775
f 597 559 572
f 1350 572 132
f 559 132 572
f 544 1280 764
f 1280 544 1236
f 597 1280 326
f 559 597 326
f 326 1280 926
f 628 326 926
f 326 628 559
f 132 559 628
f 926 1280 1053
f 1053 231 584
f 1280 1236 1053
f 628 926 730
f 132 628 730
f 14 926 1053
f 231 1053 1236
f 730 926 14
f 584 783 1053
f 730 14 1301
f 1301 132 730
f 132 1301 287
f 332 14 1053
f 1053 783 332
f 14 377 1301
f 377 287 1301
f 67 775 472
f 67 579 584
f 766 67 584
f 313 803 579
f 579 332 783
f 803 332 579
f 332 377 14
f 803 287 377
f 803 377 332
f 67 472 702
f 67 313 579
f 702 313 67
f 1177 745 313
f 313 702 1177
f 89 9 803
f 9 89 745
f 803 313 89
f 9 287 803
f 683 132 287
f 9 683 287
f 89 313 745
f 702 472 1177
f 1206 1177 472
f 1142 1097 9
f 745 1177 1142
f 9 745 1142
f 683 9 1097
f 683 1097 371
f 1280 597 764
f 764 597 572
f 1236 183 665
f 665 231 1236
f 231 665 838
f 671 1206 472
f 511 1206 671
f 889 775 766
f 775 1008 1342
f 671 775 1342
f 775 671 472
f 838 584 231
f 838 766 584
f 766 838 889
f 775 889 1008
f 544 183 1236
f 764 183 544
f 764 680 1152
f 1057 1152 680
f 1290 1152 1057
f 353 1290 1057
f 1057 1085 353
f 764 572 1350
f 73 593 880
f 530 1321 45
f 1321 530 967
f 1154 593 73
f 84 563 73
f 551 530 45
f 530 551 566
f 530 70 967
f 566 563 530
f 593 378 880
f 1321 967 987
f 70 880 378
f 378 967 70
f 84 70 563
f 70 530 563
f 73 880 84
f 70 84 880
f 654 1154 73
f 1276 443 4
f 491 1377 4
f 443 491 4
f 958 1247 682
f 682 1247 372
f 336 206 1052
f 336 545 446
f 1235 336 1052
f 336 1235 545
f 1052 230 1235
f 230 1052 585
f 206 15 1052
f 585 1052 784
f 206 1300 15
f 1300 206 873
f 873 286 1300
f 333 1052 15
f 1052 333 784
f 376 15 1300
f 376 1300 286
f 68 767 585
f 585 784 578
f 767 68 737
f 737 68 471
f 68 585 578
f 578 784 333
f 802 578 333
f 376 333 15
f 873 1247 958
f 1247 873 206
f 873 958 286
f 802 376 286
f 802 333 376
f 471 68 703
f 68 578 314
f 703 314 1178
f 1178 314 746
f 314 703 68
f 314 802 90
f 90 802 10
f 10 746 90
f 314 90 746
f 10 802 286
f 958 10 286
f 10 958 682
f 802 314 578
f 471 703 1178
f 1143 10 1096
f 746 1143 1178
f 10 1143 746
f 682 1096 10
f 682 372 1096
f 1205 471 1178
f 850 1321 987
f 850 750 207
f 850 45 1321
f 207 45 850
f 45 207 551
f 632 206 417
f 53 632 417
f 53 417 750
f 750 850 53
f 750 417 206
f 4 835 1289
f 154 446 914
f 1151 154 914
f 154 1151 835
f 1289 835 1151
f 468 654 1377
f 737 182 666
f 182 737 914
f 1188 1151 914
f 1289 1151 1188
f 1276 4 1289
f 1188 491 443
f 1289 1188 1276
f 1276 1188 443
f 491 1188 914
f 914 737 491
f 182 545 1235
f 666 230 837
f 737 471 510
f 1205 510 471
f 767 837 585
f 837 767 737
f 585 837 230
f 666 1235 230
f 1235 666 182
f 182 446 545
f 182 914 446
f 837 737 666
f 995 197 222
f 222 616 995
f 911 222 1247
f 632 894 206
f 647 53 850
f 1169 839 210
f 1063 632 53
f 954 1063 53
f 197 1247 222
f 147 894 386
f 147 386 911
f 911 1247 147
f 911 954 829
f 12 449 62
f 62 1035 12
f 884 616 770
f 60 40 770
f 884 770 40
f 995 40 1010
f 819 995 1010
f 995 819 197
f 40 995 884
f 819 1010 1253
f 170 1253 1010
f 222 911 616
f 40 170 1010
f 770 647 12
f 1102 770 12
f 770 1102 60
f 616 884 995
f 894 1063 386
f 1102 12 1035
f 386 1063 954
f 12 647 850
f 829 770 616
f 829 616 911
f 770 829 647
f 954 911 386
f 954 647 829
f 632 1063 894
f 53 647 954
f 987 449 850
f 449 12 850
f 210 80 1169
f 40 60 593
f 593 1102 1035
f 449 967 1069
f 987 967 449
f 210 170 692
f 593 170 40
f 593 1035 1069
f 62 1069 1035
f 1069 62 449
f 593 60 1102
f 593 1069 378
f 967 378 1069
f 210 692 80
f 692 170 593
f 956 737 510
f 247 264 765
f 1057 303 1085
f 444 1085 303
f 183 1343 665
f 1343 183 804
f 1343 308 1360
f 1187 1152 1290
f 804 183 764
f 764 1152 804
f 308 1343 804
f 778 1375 308
f 251 778 382
f 1375 251 1075
f 778 251 1375
f 1375 1360 308
f 178 382 778
f 778 308 178
f 178 804 1187
f 178 645 382
f 1085 1187 353
f 303 43 82
f 645 82 1257
f 1257 82 43
f 1290 353 1187
f 444 178 1187
f 1085 444 1187
f 444 82 178
f 804 178 308
f 82 444 303
f 82 645 178
f 1152 1187 804
f 889 949 1008
f 949 889 838
f 777 671 1342
f 1008 777 1342
f 777 1008 949
f 394 1375 1075
f 785 949 394
f 838 1343 949
f 1343 838 665
f 394 1343 1360
f 1343 394 949
f 1075 785 394
f 671 777 785
f 785 777 949
f 1375 394 1360
f 785 1241 671
f 1241 511 671
f 88 212 1075
f 1075 1390 1363
f 1390 1075 212
f 1390 1057 1363
f 382 645 88
f 251 88 1075
f 88 251 382
f 212 88 645
f 645 1257 212
f 1390 212 1257
f 43 1390 1257
f 303 1390 43
f 1057 1390 303
f 1136 535 886
f 722 221 912
f 912 146 1312
f 646 851 52
f 1064 633 895
f 132 895 633
f 13 209 851
f 646 52 953
f 1064 52 633
f 953 52 1064
f 994 221 270
f 895 146 387
f 912 387 146
f 615 885 771
f 221 994 615
f 912 828 953
f 940 535 1136
f 1011 111 940
f 646 953 828
f 550 1026 370
f 1118 13 448
f 61 13 1034
f 13 61 448
f 1072 550 370
f 771 885 550
f 550 1072 771
f 994 885 615
f 961 1026 550
f 1328 994 1011
f 1136 264 1011
f 994 111 1011
f 111 994 754
f 994 1328 885
f 1136 1011 940
f 1136 886 264
f 221 722 270
f 912 1312 722
f 221 615 912
f 270 754 994
f 1328 961 885
f 885 961 550
f 264 961 1328
f 1328 1011 264
f 1072 738 1101
f 771 1072 1101
f 646 771 13
f 771 1101 13
f 895 387 1064
f 1101 1034 13
f 387 953 1064
f 646 13 851
f 771 828 615
f 828 912 615
f 828 771 646
f 953 387 912
f 13 1118 209
f 633 467 132
f 1026 247 370
f 1068 61 493
f 493 61 1034
f 968 209 1118
f 968 448 1068
f 448 968 1118
f 484 765 191
f 264 886 191
f 191 765 264
f 247 1026 961
f 247 961 264
f 738 1072 370
f 493 1034 1101
f 247 809 621
f 621 493 986
f 44 621 986
f 61 1068 448
f 738 493 1101
f 1068 809 379
f 247 379 809
f 493 621 809
f 621 44 247
f 738 986 493
f 370 44 738
f 44 986 738
f 247 44 370
f 809 1068 493
f 379 968 1068
f 1391 379 247
f 626 1190 624
f 964 1190 626
f 437 626 624
f 626 437 964
f 317 1190 964
f 964 558 317
f 437 259 486
f 558 964 437
f 1141 1314 486
f 1141 1190 317
f 317 1314 1141
f 317 558 1314
f 437 486 558
f 558 486 1314
f 180 437 624
f 180 259 437
f 180 624 1190
f 486 977 1141
f 1350 808 477
f 1350 680 764
f 751 808 445
f 808 751 96
f 1350 445 808
f 552 874 96
f 257 808 874
f 477 808 257
f 874 808 96
f 1057 680 1350
f 1292 154 780
f 684 154 1292
f 1056 835 4
f 835 1056 780
f 780 154 835
f 154 684 446
f 1084 446 684
f 1084 399 325
f 1084 325 446
f 325 507 316
f 973 316 507
f 1359 973 507
f 1292 459 1084
f 459 1292 780
f 459 780 128
f 275 459 128
f 973 1359 275
f 725 576 973
f 576 316 973
f 275 725 973
f 725 275 1377
f 275 128 982
f 982 1377 275
f 1084 459 1359
f 1292 1084 684
f 1084 1359 399
f 507 399 1359
f 1056 982 780
f 780 982 128
f 275 1359 459
f 399 507 325
f 1377 1056 4
f 1056 1377 982
f 725 1377 576
f 206 336 1090
f 336 446 325
f 566 73 563
f 1090 750 206
f 207 750 1090
f 566 551 207
f 566 1090 73
f 207 1090 566
f 101 336 654
f 336 101 654
f 654 73 1090
f 336 325 654
f 654 325 316
f 1090 336 654
f 654 316 1377
f 1377 316 576
f 731 843 524
f 1265 524 843
f 588 843 1281
f 588 1265 843
f 972 843 734
f 172 972 734
f 1172 172 1180
f 1180 734 854
f 843 242 854
f 1172 854 1171
f 1180 854 1172
f 870 172 1172
f 172 734 1180
f 734 843 854
f 1171 854 242
f 242 839 1171
f 731 242 843
f 1388 561 273
f 1388 1095 561
f 1388 1337 1095
f 1337 375 839
f 1388 375 1337
f 470 1313 1337
f 1095 1337 1313
f 163 1095 1313
f 1095 163 996
f 755 1095 608
f 755 608 17
f 608 1095 996
f 1171 1221 1219
f 495 1221 1171
f 290 1171 1219
f 290 870 1172
f 1172 1171 290
f 1388 1296 375
f 1388 273 1296
f 1095 755 561
f 321 561 755
f 561 321 273
f 321 1378 285
f 321 755 1378
f 285 1378 249
f 755 249 1378
f 249 755 17
f 285 989 273
f 321 285 273
f 568 273 989
f 22 753 1296
f 1296 273 22
f 882 700 185
f 882 185 1105
f 1179 27 606
f 1173 1179 606
f 1173 606 188
f 1179 164 735
f 1173 464 1179
f 1302 116 476
f 687 150 358
f 464 150 164
f 8 164 150
f 1179 464 164
f 27 1179 735
f 735 164 8
f 150 687 8
f 358 476 687
f 476 358 1302
f 116 1148 653
f 1148 116 1302
f 1148 358 150
f 464 1148 150
f 1148 1302 358
f 687 476 21
f 116 21 476
f 188 1131 1173
f 1131 653 1173
f 1173 653 464
f 1148 464 653
f 1131 1218 494
f 1131 1220 1218
f 482 1131 494
f 23 1174 752
f 118 752 1174
f 1174 567 988
f 284 1174 988
f 1174 284 320
f 21 116 133
f 653 1131 133
f 118 1174 562
f 1105 133 1355
f 882 118 562
f 1105 118 882
f 1355 118 1105
f 116 653 133
f 1131 1355 133
f 620 1295 1282
f 620 735 8
f 620 8 687
f 620 687 21
f 620 27 735
f 562 756 882
f 756 562 320
f 1379 284 250
f 320 562 1174
f 320 284 1379
f 16 756 250
f 1379 250 756
f 1379 756 320
f 620 21 204
f 1295 204 523
f 1266 1295 523
f 589 1282 1295
f 589 1295 1266
f 204 1295 620
f 756 16 882
f 133 401 21
f 658 1000 512
f 232 512 1000
f 80 971 253
f 971 80 1185
f 1098 713 971
f 935 337 971
f 971 447 359
f 447 971 337
f 893 359 187
f 893 187 833
f 893 971 359
f 385 439 414
f 736 456 1133
f 736 201 385
f 447 337 881
f 997 201 736
f 971 890 979
f 890 971 1185
f 971 979 1098
f 971 245 935
f 337 1104 881
f 881 1104 346
f 935 1104 337
f 1243 729 100
f 729 1243 650
f 391 315 208
f 1098 979 1088
f 1104 935 473
f 971 713 245
f 729 713 1088
f 713 729 245
f 245 729 650
f 935 245 473
f 506 385 297
f 80 385 414
f 385 506 560
f 385 560 439
f 297 385 795
f 795 385 274
f 385 201 859
f 859 201 950
f 1168 274 131
f 391 1168 315
f 391 795 1168
f 795 274 1168
f 1098 1088 713
f 1088 979 315
f 208 890 113
f 208 113 963
f 979 890 208
f 208 963 391
f 1185 695 890
f 506 297 963
f 391 963 297
f 963 157 506
f 890 695 113
f 979 208 315
f 414 1185 80
f 414 876 1185
f 876 414 439
f 1185 876 34
f 876 439 288
f 439 560 288
f 288 157 34
f 560 506 157
f 288 560 157
f 876 288 34
f 695 34 157
f 1185 34 695
f 695 157 113
f 113 157 963
f 297 795 391
f 385 100 274
f 385 859 100
f 859 1243 100
f 274 100 131
f 131 315 1168
f 1088 315 131
f 729 1088 131
f 131 100 729
f 473 245 650
f 473 650 941
f 1243 859 941
f 1243 941 650
f 473 950 346
f 941 950 473
f 859 950 941
f 473 346 1104
f 881 346 757
f 757 950 201
f 346 950 757
f 187 359 1268
f 881 265 447
f 359 447 265
f 265 881 757
f 456 1268 1133
f 265 1268 359
f 1268 456 187
f 757 997 265
f 757 201 997
f 736 1133 997
f 265 997 1133
f 1133 1268 265
f 1324 592 1054
f 1054 592 675
f 1023 1182 1324
f 1324 173 592
f 907 496 1392
f 849 350 834
f 460 779 907
f 907 263 460
f 1324 1182 173
f 974 1023 564
f 760 1054 675
f 760 675 407
f 407 863 760
f 1054 461 1324
f 1023 1324 461
f 849 834 672
f 672 863 407
f 760 863 461
f 760 461 1054
f 461 564 1023
f 906 410 1182
f 1340 833 883
f 1005 162 974
f 833 1340 974
f 974 1340 1005
f 906 974 162
f 410 906 162
f 974 906 1023
f 410 162 1005
f 849 672 407
f 779 1103 461
f 863 779 461
f 672 834 496
f 834 1392 496
f 779 460 1103
f 672 496 863
f 496 779 863
f 496 907 779
f 357 1103 460
f 907 1392 263
f 974 564 357
f 974 1043 998
f 998 1043 263
f 1043 460 263
f 998 263 1392
f 974 357 1043
f 460 1043 357
f 461 1103 564
f 1103 357 564
f 1182 1023 906
f 919 974 998
f 834 998 1392
f 834 350 998
f 350 919 998
f 1323 591 525
f 462 1055 1323
f 591 1323 1055
f 279 978 1038
f 871 591 1055
f 871 1055 1234
f 1228 1323 525
f 1228 1024 1323
f 1024 1166 565
f 1166 978 565
f 1234 1254 463
f 759 1234 1055
f 759 1254 1234
f 426 1254 759
f 1323 1024 462
f 565 462 1024
f 426 463 1254
f 759 462 426
f 462 759 1055
f 905 1228 483
f 388 1065 279
f 1065 1153 416
f 763 916 1357
f 1065 388 916
f 916 763 1065
f 1153 763 483
f 916 1166 1357
f 388 609 916
f 1024 1228 905
f 1166 905 1357
f 483 1357 905
f 609 1166 916
f 905 1166 1024
f 1357 483 763
f 763 1153 1065
f 978 1166 609
f 279 426 462
f 978 279 565
f 462 565 279
f 388 1038 609
f 279 1038 388
f 978 609 1038
f 505 416 962
f 426 279 1065
f 1065 768 426
f 765 962 380
f 416 380 962
f 244 833 187
f 456 244 187
f 80 692 385
f 736 244 456
f 736 385 244
f 244 1244 833
f 692 244 385
f 1186 244 762
f 762 244 380
f 692 380 244
f 765 380 692
f 692 226 765
f 400 919 469
f 469 474 400
f 400 474 1244
f 504 1291 236
f 277 504 1244
f 309 1117 1140
f 853 205 799
f 205 853 959
f 277 944 1013
f 944 1226 1013
f 670 799 607
f 1226 607 1013
f 607 1226 670
f 1140 175 1277
f 1140 1117 220
f 220 959 853
f 959 220 1117
f 853 670 220
f 1140 220 670
f 944 1362 1226
f 1362 1288 1140
f 670 1362 1140
f 799 670 853
f 944 277 1288
f 1362 944 1288
f 175 277 1277
f 1288 277 175
f 175 1140 1288
f 1362 670 1226
f 1277 309 1140
f 1244 1277 277
f 1028 424 975
f 244 309 1244
f 1277 1244 309
f 309 244 1186
f 1129 1186 1028
f 1117 1129 959
f 424 1028 1186
f 959 975 205
f 975 959 1028
f 1129 1028 959
f 1129 1117 1186
f 309 1186 1117
f 883 833 1244
f 1259 583 478
f 1047 1308 1264
f 1159 1264 173
f 1163 1308 1047
f 1163 1047 428
f 428 1047 814
f 173 800 1159
f 1005 726 421
f 1005 1340 726
f 1244 478 883
f 478 1244 474
f 474 529 1259
f 1259 478 474
f 1050 883 478
f 583 1050 478
f 536 583 600
f 600 421 726
f 1317 1050 583
f 1317 536 1340
f 1050 1340 883
f 1340 1050 1317
f 536 1317 583
f 536 600 726
f 536 726 1340
f 474 64 529
f 583 1259 1120
f 600 583 1120
f 1264 1159 1047
f 800 410 918
f 410 1005 918
f 1387 800 918
f 918 421 1387
f 918 1005 421
f 1159 800 1387
f 1159 1387 814
f 1387 421 600
f 1120 1387 600
f 984 1387 1120
f 529 1120 1259
f 1047 1159 814
f 390 814 1387
f 1120 529 984
f 1015 1387 984
f 64 984 529
f 1387 1015 390
f 984 64 1015
f 773 710 1316
f 300 474 339
f 474 469 339
f 1210 937 474
f 1163 749 675
f 402 300 1137
f 474 300 402
f 923 1081 919
f 350 923 919
f 1163 675 1308
f 407 749 849
f 55 749 228
f 1163 228 749
f 749 55 849
f 469 919 1081
f 300 339 824
f 1216 1137 338
f 1137 300 824
f 474 402 1210
f 402 1137 1210
f 1137 1216 581
f 1137 581 1210
f 824 338 1137
f 1216 1237 1025
f 338 824 923
f 824 339 923
f 228 1149 55
f 1025 55 1149
f 7 849 55
f 849 7 350
f 55 1025 7
f 1149 581 1025
f 1237 7 1025
f 235 7 1237
f 1216 1025 581
f 7 235 350
f 1237 338 235
f 1216 338 1237
f 338 923 235
f 235 923 350
f 1081 923 339
f 469 1081 339
f 773 1210 581
f 710 773 1149
f 1149 228 710
f 581 1149 773
f 1210 773 937
f 773 1199 937
f 134 474 1199
f 1316 134 1199
f 1353 1316 710
f 228 428 710
f 773 1316 1199
f 1199 474 937
f 134 1015 64
f 474 134 64
f 1316 390 1015
f 1353 814 390
f 390 1316 1353
f 1316 1015 134
f 814 1353 428
f 710 428 1353
f 1163 428 228
f 407 675 749
f 592 1308 675
f 1264 1308 592
f 592 173 1264
f 1182 800 173
f 800 1182 410
f 504 400 1244
f 762 75 1242
f 75 1130 1242
f 762 1365 433
f 1078 433 1365
f 1365 762 236
f 1365 1291 1078
f 433 75 762
f 433 1078 701
f 75 701 1130
f 236 762 380
f 424 1027 975
f 1242 1186 762
f 1186 1242 424
f 18 701 1078
f 701 75 433
f 1130 1027 1242
f 1130 1116 960
f 205 975 960
f 960 975 1027
f 1027 424 1242
f 1130 960 1027
f 1130 701 1116
f 701 18 1116
f 236 1291 1365
f 1078 1291 18
f 664 1234 463
f 1234 947 871
f 947 1234 664
f 871 947 591
f 1263 591 1307
f 1263 525 591
f 947 1307 591
f 504 596 400
f 1260 582 1119
f 1048 1263 1307
f 1160 1263 1048
f 947 1162 1048
f 947 1048 1307
f 1352 815 429
f 1162 429 1048
f 1048 429 815
f 483 1228 1160
f 815 389 1386
f 1260 1214 1147
f 1214 1260 453
f 582 1260 1147
f 1336 431 504
f 453 1336 1214
f 299 1051 1147
f 1214 504 299
f 431 1333 504
f 453 1260 528
f 431 761 1333
f 761 431 453
f 528 761 453
f 1336 453 431
f 504 1214 1336
f 1051 582 1147
f 504 1051 299
f 380 1051 504
f 1051 380 416
f 1153 582 1051
f 1051 416 1153
f 1153 1031 582
f 599 582 1031
f 1333 395 504
f 395 1333 761
f 761 528 65
f 299 1147 1214
f 1386 1119 599
f 582 599 1119
f 1263 1160 525
f 525 1160 1228
f 483 1031 1153
f 483 1386 1031
f 1160 1386 483
f 1386 1160 815
f 1386 599 1031
f 528 1119 985
f 1386 985 1119
f 1048 815 1160
f 1119 528 1260
f 65 985 1014
f 1386 1014 985
f 1014 1386 389
f 985 65 528
f 504 354 1198
f 354 504 395
f 463 1183 664
f 1150 227 54
f 664 1162 947
f 1162 664 604
f 227 1150 709
f 604 664 1183
f 604 54 227
f 54 604 1183
f 227 1162 604
f 1183 199 54
f 54 504 1150
f 463 426 199
f 199 1183 463
f 504 54 199
f 596 199 426
f 504 199 596
f 772 709 1150
f 1150 504 772
f 772 504 1198
f 709 772 1315
f 429 1162 227
f 1315 1198 354
f 227 709 429
f 772 1198 1315
f 354 395 65
f 761 65 395
f 1014 354 65
f 815 1352 389
f 1315 389 1352
f 389 1315 1014
f 1315 354 1014
f 1315 1352 709
f 429 709 1352
f 1116 18 674
f 852 205 960
f 1116 852 960
f 1013 504 277
f 504 943 679
f 943 504 1013
f 504 679 1291
f 1227 943 1013
f 669 799 852
f 607 1227 1013
f 1227 607 669
f 1116 674 219
f 799 669 607
f 219 852 1116
f 669 852 219
f 679 1361 674
f 1361 669 674
f 205 852 799
f 219 674 669
f 943 1361 679
f 1361 943 1227
f 674 1291 679
f 669 1361 1227
f 674 18 1291
f 380 504 236
f 242 731 1247
f 1247 731 372
f 839 135 194
f 839 194 1337
f 1247 839 242
f 841 1304 910
f 841 1327 340
f 841 340 142
f 841 142 846
f 841 846 1304
f 1327 841 1296
f 839 375 910
f 841 910 375
f 1296 393 1327
f 1296 841 375
f 21 371 204
f 132 21 401
f 1345 136 348
f 1345 639 1105
f 1345 1105 136
f 1345 348 487
f 1345 487 1389
f 133 1105 639
f 639 401 133
f 401 639 132
f 392 118 980
f 980 1106 392
f 341 980 976
f 952 1364 425
f 1355 1364 118
f 541 1364 1355
f 505 1364 541
f 425 1364 505
f 676 1364 952
f 1364 976 980
f 1364 676 1303
f 976 1364 1303
f 1106 980 897
f 897 980 341
f 980 118 1364
f 1205 1178 1281
f 1281 1178 588
f 524 372 731
f 588 1143 1265
f 1143 588 1178
f 1265 1143 1096
f 1265 1096 524
f 372 524 1096
f 1313 319 163
f 163 319 360
f 248 360 319
f 360 248 502
f 115 502 148
f 148 502 248
f 319 1313 1041
f 470 1337 194
f 194 707 470
f 707 135 1139
f 797 748 115
f 748 797 1003
f 166 5 148
f 5 166 1139
f 1139 135 839
f 115 148 797
f 119 322 540
f 839 119 540
f 119 839 1169
f 322 119 1169
f 797 540 322
f 1003 797 322
f 797 5 540
f 1139 839 5
f 839 540 5
f 797 148 5
f 135 707 194
f 707 1139 166
f 266 707 166
f 266 166 148
f 1041 1313 470
f 1041 470 707
f 707 266 1041
f 248 319 1041
f 266 248 1041
f 266 148 248
f 1070 908 108
f 295 574 1215
f 1367 970 1341
f 1367 223 900
f 1367 1341 223
f 574 295 419
f 900 223 1215
f 419 643 574
f 595 643 419
f 643 108 908
f 108 643 595
f 908 1070 1176
f 789 1070 1108
f 1070 789 1176
f 789 1108 422
f 1108 1348 422
f 1348 732 422
f 290 1219 1348
f 1348 1219 732
f 290 1348 870
f 870 1348 956
f 870 956 172
f 956 972 172
f 1281 843 972
f 1281 510 1205
f 510 1281 972
f 956 510 972
f 1215 223 927
f 927 419 295
f 1215 927 295
f 856 956 1348
f 856 1070 123
f 1070 856 1108
f 856 1348 1108
f 1204 123 691
f 691 595 103
f 123 1070 691
f 108 691 1070
f 595 691 108
f 595 419 103
f 103 419 927
f 724 103 223
f 826 223 1204
f 927 223 103
f 223 826 724
f 103 724 826
f 103 826 691
f 1204 691 826
f 223 956 1204
f 123 1204 956
f 956 856 123
f 900 161 1367
f 280 161 121
f 1215 574 121
f 711 555 143
f 900 1215 121
f 900 121 161
f 910 280 121
f 910 37 280
f 121 574 555
f 910 555 1134
f 555 910 121
f 143 643 908
f 643 143 574
f 365 732 1221
f 789 422 365
f 1221 495 271
f 1219 1221 732
f 732 365 422
f 365 1383 789
f 1383 271 48
f 1176 500 782
f 908 1176 782
f 908 782 711
f 1252 782 660
f 1134 1252 910
f 1252 1134 711
f 143 555 574
f 143 908 711
f 782 1252 711
f 1252 660 910
f 789 1383 1176
f 1176 1383 500
f 500 48 660
f 500 1383 48
f 782 500 660
f 660 48 839
f 365 1221 271
f 965 48 271
f 1383 365 271
f 965 81 48
f 271 495 965
f 495 81 965
f 1171 839 81
f 839 48 81
f 1171 81 495
f 839 910 660
f 555 711 1134
f 161 280 1367
f 37 1367 280
f 1367 37 970
f 910 970 37
f 910 833 970
f 1209 877 233
f 455 989 1311
f 306 80 548
f 258 608 996
f 1271 137 728
f 1224 806 1207
f 990 2 806
f 1325 652 2
f 1273 571 652
f 480 571 1273
f 480 1201 571
f 790 996 163
f 790 258 996
f 790 717 258
f 360 32 790
f 790 32 717
f 502 32 360
f 502 634 32
f 441 823 1201
f 1201 480 441
f 1325 1273 652
f 790 163 360
f 80 306 41
f 347 1209 893
f 137 1271 1224
f 137 1224 1207
f 1224 990 806
f 990 1325 2
f 1196 748 1003
f 634 748 1196
f 1196 1003 1033
f 1033 1003 322
f 634 115 748
f 634 502 115
f 200 501 969
f 258 1087 41
f 872 1285 1156
f 32 613 717
f 717 613 1285
f 634 1196 1165
f 613 634 1165
f 80 1087 696
f 1087 80 41
f 258 717 1087
f 1109 1222 969
f 1311 989 285
f 80 253 548
f 1222 548 253
f 457 501 200
f 1222 1109 548
f 568 1318 273
f 398 568 455
f 1318 568 398
f 1318 398 823
f 17 306 249
f 969 501 1109
f 1121 398 455
f 823 398 1121
f 455 1311 1109
f 548 1109 1311
f 269 80 696
f 696 1087 1285
f 1285 1087 717
f 1109 605 455
f 605 1109 501
f 455 605 1121
f 823 1121 1201
f 1201 1121 1275
f 1275 1121 605
f 605 1334 1275
f 1334 605 501
f 1275 571 1201
f 571 1275 641
f 685 1339 457
f 652 571 641
f 1334 501 1339
f 652 641 699
f 699 641 1339
f 641 1334 1339
f 1334 641 1275
f 1311 285 306
f 306 285 249
f 548 1311 306
f 568 989 455
f 41 608 258
f 608 41 17
f 1285 269 696
f 1165 311 1156
f 1156 33 872
f 33 80 872
f 328 322 311
f 80 311 1169
f 1169 311 322
f 322 328 1033
f 80 33 311
f 311 33 1156
f 1165 328 311
f 1196 328 1165
f 328 1196 1033
f 1165 1156 613
f 872 269 1285
f 80 269 872
f 613 1156 1285
f 613 32 634
f 306 17 41
f 457 1339 501
f 1339 685 971
f 1339 152 699
f 877 1209 347
f 656 893 833
f 893 656 347
f 356 877 1191
f 125 233 877
f 24 971 233
f 233 125 24
f 699 152 1372
f 971 24 1339
f 24 125 938
f 1339 24 152
f 24 938 152
f 152 938 1372
f 125 877 356
f 786 1207 806
f 938 786 1372
f 806 1372 786
f 1372 806 2
f 137 1207 404
f 404 786 938
f 1207 786 404
f 125 356 938
f 938 356 404
f 699 1372 652
f 2 652 1372
f 656 602 347
f 404 728 137
f 728 404 356
f 1191 728 356
f 602 728 1191
f 877 347 1191
f 602 1191 347
f 728 602 1271
f 1271 618 1224
f 990 618 924
f 1325 924 159
f 1325 159 466
f 480 1073 441
f 1113 1073 480
f 441 1073 522
f 673 910 39
f 340 381 294
f 466 891 842
f 1327 254 340
f 618 990 1224
f 1273 466 1113
f 79 1073 1113
f 466 1273 1325
f 753 393 1296
f 393 254 1327
f 753 1240 254
f 393 753 254
f 1240 1381 693
f 92 1240 693
f 92 693 522
f 441 522 823
f 1381 823 693
f 273 1318 1381
f 693 823 522
f 1240 753 22
f 823 1381 1318
f 273 1381 22
f 1381 1240 22
f 92 522 1073
f 1073 79 92
f 1113 480 1273
f 254 1240 92
f 1170 92 79
f 92 1170 254
f 1255 159 924
f 846 294 1304
f 924 1325 990
f 294 381 603
f 673 602 656
f 340 294 142
f 846 142 294
f 381 340 254
f 1195 294 603
f 1304 39 910
f 39 1304 294
f 381 891 603
f 159 1255 891
f 294 1195 39
f 39 1195 1019
f 1019 1195 243
f 1019 618 1271
f 910 673 656
f 910 656 833
f 603 1255 243
f 1255 603 891
f 924 243 1255
f 1195 603 243
f 1086 1019 1271
f 39 1019 1086
f 1086 673 39
f 673 1086 602
f 1271 602 1086
f 243 924 618
f 1019 243 618
f 381 842 891
f 842 1113 466
f 1113 842 79
f 842 381 1170
f 381 254 1170
f 891 466 159
f 79 842 1170
f 974 919 970
f 970 919 1341
f 970 833 974
f 1209 971 893
f 971 1209 233
f 200 253 971
f 253 969 1222
f 253 200 969
f 971 457 200
f 971 685 457
f 601 232 1000
f 1000 426 768
f 596 426 1000
f 948 928 307
f 928 948 296
f 928 296 420
f 307 798 186
f 948 307 186
f 479 252 798
f 580 252 479
f 798 307 479
f 855 1349 427
f 345 1241 1155
f 427 727 490
f 898 1155 1009
f 126 1155 490
f 345 1155 126
f 511 1241 345
f 1241 785 1009
f 855 1107 1349
f 1071 855 124
f 855 1071 1107
f 490 1297 215
f 490 727 126
f 727 427 1349
f 899 1297 898
f 490 898 1297
f 1297 899 232
f 218 1297 232
f 1297 218 215
f 215 1305 427
f 232 192 625
f 192 929 1305
f 192 1305 625
f 232 625 218
f 344 601 1000
f 601 1042 1230
f 601 1230 232
f 1203 690 124
f 690 102 594
f 1071 124 690
f 690 107 1071
f 690 594 107
f 102 420 594
f 420 102 928
f 928 917 307
f 479 1000 580
f 307 1000 479
f 681 232 1230
f 102 723 917
f 827 1203 1230
f 601 344 1042
f 723 344 917
f 917 344 1000
f 917 928 102
f 1042 723 827
f 344 723 1042
f 723 102 827
f 1042 827 1230
f 827 102 690
f 690 1203 827
f 768 580 1000
f 1000 307 917
f 232 681 192
f 617 681 1203
f 681 617 192
f 1230 1203 681
f 124 617 1203
f 192 617 929
f 855 617 124
f 617 855 929
f 855 1305 929
f 490 215 427
f 215 625 1305
f 625 215 218
f 427 1305 855
f 1009 785 1058
f 1241 1009 1155
f 1009 1058 898
f 1155 898 490
f 1058 899 898
f 899 1058 232
f 232 1058 785
f 541 580 768
f 252 580 541
f 160 252 541
f 63 160 541
f 63 122 160
f 712 144 554
f 234 122 792
f 122 234 901
f 901 160 122
f 160 901 252
f 122 575 792
f 144 642 575
f 122 141 957
f 63 141 122
f 352 141 63
f 141 352 957
f 541 352 63
f 554 957 1135
f 575 122 554
f 957 554 122
f 543 957 352
f 541 543 352
f 543 1135 957
f 144 909 642
f 366 733 423
f 1218 272 494
f 1218 1220 733
f 733 366 1218
f 366 423 788
f 1384 49 272
f 174 638 1355
f 638 174 49
f 1175 781 499
f 909 781 1175
f 1251 781 712
f 1135 677 1251
f 1251 712 1135
f 554 144 575
f 144 712 909
f 781 909 712
f 781 1251 659
f 1251 278 659
f 1384 788 1175
f 1175 499 1384
f 499 659 49
f 499 49 1384
f 781 659 499
f 278 638 659
f 278 1251 677
f 49 659 638
f 366 272 1218
f 1384 366 788
f 1384 272 366
f 49 195 272
f 272 195 494
f 195 1355 482
f 195 174 1355
f 494 195 482
f 174 195 49
f 482 1355 1131
f 638 278 1355
f 677 541 278
f 541 1355 278
f 1135 543 677
f 543 541 677
f 554 1135 712
f 1177 1206 1282
f 589 1142 1177
f 1177 1282 589
f 1266 1142 589
f 1266 523 1097
f 523 371 1097
f 523 204 371
f 1266 1097 1142
f 361 185 700
f 185 361 1270
f 1270 361 503
f 149 1270 503
f 747 796 114
f 185 1270 1040
f 706 136 1105
f 136 276 348
f 136 706 1138
f 796 747 1002
f 348 276 487
f 120 1389 487
f 167 149 6
f 6 1138 167
f 539 276 6
f 487 276 120
f 1389 120 484
f 114 796 149
f 503 114 149
f 120 539 861
f 276 539 120
f 861 484 120
f 796 861 539
f 796 1002 861
f 796 539 6
f 1138 6 276
f 796 6 149
f 136 1138 276
f 706 167 1138
f 267 167 706
f 267 149 167
f 1040 1105 185
f 1040 706 1105
f 706 1040 267
f 267 1040 1270
f 267 1270 149
f 1065 416 541
f 768 1065 541
f 862 198 158
f 1272 158 198
f 1074 1112 481
f 822 521 440
f 1106 897 836
f 304 836 897
f 91 304 78
f 1382 822 1319
f 1382 694 822
f 392 836 752
f 836 392 1106
f 392 752 118
f 1239 752 836
f 521 1074 440
f 1239 694 1382
f 91 694 1239
f 91 521 694
f 1174 1382 1319
f 822 694 521
f 1382 1174 23
f 1382 23 1239
f 23 752 1239
f 91 1074 521
f 1074 481 440
f 1074 91 78
f 1272 1112 465
f 1112 1272 481
f 836 91 1239
f 91 836 304
f 697 78 304
f 1074 78 1112
f 158 1272 465
f 1303 293 976
f 697 293 138
f 293 341 976
f 341 304 897
f 304 341 293
f 293 1194 138
f 38 1303 676
f 1303 38 293
f 158 138 862
f 293 697 304
f 1194 293 38
f 878 676 952
f 38 1020 1194
f 1020 138 1194
f 1020 438 862
f 505 541 416
f 878 952 425
f 878 438 1020
f 38 878 1020
f 676 878 38
f 438 878 425
f 1020 862 138
f 158 697 138
f 1112 697 465
f 1112 78 697
f 465 697 158
f 454 765 284
f 988 567 454
f 438 1208 807
f 198 807 3
f 1272 3 651
f 1272 570 481
f 1200 481 570
f 791 700 882
f 791 882 156
f 718 791 156
f 791 361 700
f 31 361 791
f 31 791 718
f 361 31 503
f 635 503 31
f 503 635 114
f 114 635 747
f 481 1200 440
f 822 440 1200
f 1272 651 570
f 198 3 1272
f 765 42 305
f 438 807 862
f 862 807 198
f 1197 1002 747
f 635 1197 747
f 1197 1032 1002
f 1032 861 1002
f 31 614 635
f 718 765 614
f 635 1164 1197
f 614 1164 635
f 765 156 42
f 284 988 454
f 567 1319 397
f 397 454 567
f 1319 567 1174
f 397 1319 822
f 1122 454 397
f 454 962 765
f 765 718 156
f 454 1122 962
f 822 1200 1122
f 397 822 1122
f 1200 1274 1122
f 1274 962 1122
f 962 1274 1335
f 1274 1200 570
f 570 640 1274
f 651 640 570
f 651 698 640
f 698 962 640
f 640 962 1335
f 1335 1274 640
f 284 305 250
f 305 284 765
f 16 305 42
f 882 42 156
f 329 765 861
f 765 484 861
f 861 1032 329
f 1164 765 329
f 1197 329 1032
f 329 1197 1164
f 1164 614 765
f 614 31 718
f 42 882 16
f 305 16 250
f 962 698 153
f 355 1192 962
f 1208 438 403
f 651 3 1373
f 698 1373 153
f 962 153 939
f 153 1373 939
f 1208 787 807
f 939 1373 787
f 807 1373 3
f 1373 807 787
f 403 939 787
f 1208 403 787
f 962 939 355
f 939 403 355
f 698 651 1373
f 438 1374 403
f 1374 355 403
f 425 1374 438
f 1192 355 1374
f 425 1192 1374
f 962 1192 505
f 425 505 1192
f 511 1282 1206
f 107 909 1071
f 798 252 186
f 234 296 948
f 296 234 792
f 948 901 234
f 901 186 252
f 901 948 186
f 296 792 420
f 575 420 792
f 642 594 420
f 575 642 420
f 107 642 909
f 642 107 594
f 1175 1071 909
f 788 1071 1175
f 1071 788 1107
f 423 1107 788
f 1107 423 1349
f 733 1349 423
f 1131 1349 1220
f 1220 1349 733
f 1131 188 1349
f 188 727 1349
f 606 727 188
f 606 126 727
f 27 345 126
f 345 27 620
f 606 27 126
f 1282 345 620
f 511 345 1282
f 553 140 1267
f 817 553 1267
f 1225 590 1341
f 289 817 1267
f 289 1267 1278
f 817 30 553
f 30 817 920
f 817 289 920
f 553 30 140
f 678 140 30
f 920 1128 30
f 678 30 1128
f 1278 1363 383
f 1363 776 260
f 776 83 801
f 83 259 396
f 919 400 106
f 596 1060 1354
f 400 596 1076
f 1060 596 1157
f 596 658 741
f 658 488 104
f 488 1278 1193
f 415 956 1007
f 223 1341 301
f 956 223 302
f 1341 919 112
f 1190 1141 11
f 1141 977 413
f 259 180 612
f 180 1190 619
f 1231 1358 932
f 289 1278 1258
f 977 415 211
f 1267 140 1018
f 590 1225 430
f 1225 1341 1245
f 1358 1231 1248
f 1231 1060 662
f 1060 1231 1338
f 1341 590 492
f 1278 1267 193
f 920 289 139
f 678 1128 810
f 1128 920 1320
f 140 678 840
f 383 1258 1278
f 260 383 1363
f 801 260 776
f 396 801 83
f 106 112 919
f 1354 1076 596
f 1076 818 400
f 1157 662 1060
f 741 1157 596
f 104 741 658
f 1193 1039 488
f 1007 93 415
f 301 302 223
f 302 1001 956
f 112 1245 1341
f 11 619 1190
f 413 11 1141
f 612 913 259
f 619 612 180
f 932 631 1231
f 1258 537 289
f 211 743 977
f 1018 831 1267
f 430 452 590
f 1245 36 1225
f 1248 1079 1358
f 662 1248 1231
f 1338 1184 1060
f 492 1004 1341
f 193 1366 1278
f 139 485 920
f 810 840 678
f 1320 915 1128
f 840 310 140
f 977 637 413
f 1278 1366 1193
f 259 913 396
f 400 991 229
f 400 229 436
f 400 538 991
f 400 436 686
f 400 686 1
f 400 1 951
f 400 818 538
f 400 951 106
f 1060 1181 196
f 1060 196 1354
f 956 1045 1012
f 956 1012 1007
f 956 742 1045
f 956 774 825
f 956 825 1080
f 956 1080 742
f 956 1001 774
f 488 475 51
f 488 708 475
f 488 1039 708
f 488 51 104
f 1030 689 318
f 1030 105 95
f 977 1046 384
f 977 384 637
f 977 184 76
f 977 76 1046
f 1231 631 241
f 590 936 569
f 1231 1016 127
f 1231 241 1380
f 1231 127 35
f 1060 1184 1181
f 1358 573 171
f 1358 1344 932
f 1358 1229 573
f 1358 171 1344
f 1225 983 327
f 289 537 442
f 289 442 57
f 289 57 739
f 289 369 758
f 1267 1376 644
f 1030 1161 744
f 1030 1217 1161
f 1225 627 983
f 1225 36 1077
f 1225 1077 627
f 1030 744 1111
f 1030 1167 1217
f 1030 1111 105
f 1267 831 1376
f 415 93 211
f 289 739 369
f 977 418 1238
f 977 1238 184
f 977 743 418
f 289 758 1144
f 1231 1380 1016
f 590 246 492
f 590 452 936
f 1225 327 430
f 1030 318 1167
f 590 569 246
f 1231 35 1338
f 1358 1079 1229
f 1341 1004 301
f 1267 644 1213
f 1267 1213 334
f 1267 334 193
f 1030 95 1223
f 1030 74 689
f 1030 1223 74
f 860 179 237
f 860 237 179
f 289 1144 925
f 289 1125 925
f 289 925 1125
f 140 310 1018
f 1128 915 810
f 920 485 1320
f 289 925 139
f 818 744 1161
f 689 74 1223
f 1111 744 818
f 818 1076 1354
f 1354 196 1181
f 1380 241 631
f 932 1344 171
f 171 573 1229
f 1248 662 1157
f 1157 741 104
f 475 708 1039
f 1039 1193 1366
f 1376 831 1018
f 1018 310 840
f 810 915 1320
f 1320 485 139
f 369 739 57
f 57 442 537
f 537 1258 383
f 383 260 801
f 801 396 913
f 913 612 619
f 619 11 413
f 413 637 384
f 384 1046 76
f 184 1238 418
f 418 743 211
f 211 93 1007
f 1012 1045 742
f 742 1080 825
f 774 1001 302
f 302 301 1004
f 246 569 936
f 452 430 327
f 36 1245 112
f 112 106 951
f 1 686 436
f 436 229 991
f 991 538 818
f 818 1161 1217
f 689 1223 95
f 1354 1181 1184
f 1380 631 932
f 1248 1157 104
f 475 1039 1366
f 1018 840 810
f 810 1320 139
f 369 57 537
f 537 383 801
f 801 913 619
f 619 413 384
f 76 184 418
f 211 1007 1012
f 1012 742 825
f 774 302 1004
f 246 936 452
f 452 327 983
f 1077 36 112
f 112 951 1
f 1 436 991
f 991 818 1217
f 318 689 95
f 818 1354 1184
f 1079 1248 104
f 51 475 1366
f 1018 810 139
f 369 537 801
f 801 619 384
f 384 76 418
f 211 1012 825
f 774 1004 492
f 246 452 983
f 627 1077 112
f 112 1 991
f 991 1217 1167
f 318 95 105
f 818 1184 1338
f 1229 1079 104
f 51 1366 193
f 1018 139 925
f 369 801 384
f 384 418 211
f 211 825 774
f 774 492 246
f 627 112 991
f 991 1167 318
f 818 1338 35
f 1229 104 51
f 51 193 334
f 1018 925 1144
f 758 369 384
f 211 774 246
f 983 627 991
f 818 35 127
f 171 1229 51
f 51 334 1213
f 1018 1144 758
f 758 384 211
f 246 983 991
f 818 127 1016
f 932 171 51
f 51 1213 644
f 1018 758 211
f 211 246 991
f 1111 818 1016
f 932 51 644
f 1376 1018 211
f 211 991 318
f 105 1111 1016
f 932 644 1376
f 1376 211 318
f 105 1016 1380
f 1376 318 105
f 105 1380 932
f 932 1376 105

