# https://github.com/mikedh/trimesh

o CAR
v 0.58869902 0.13241062 0.00000000
v 0.18674072 0.16858613 0.21975534
v 0.18674072 -0.15470280 0.21975534
v -0.20831055 0.20546503 0.11313758
v 0.04161506 0.16981332 0.22051698
v 0.04161506 -0.15592999 0.22051698
v 0.44901967 0.16171326 0.15530608
v 0.03783289 -0.19368735 0.11730074
v -0.01508091 -0.19323167 0.11655417
v -0.01508091 0.20711500 0.11655417
v -0.59979875 -0.01986463 0.00000000
v -0.10503390 0.18930925 0.18171879
v -0.10503390 -0.17542590 0.18171879
v -0.09293618 -0.19357168 0.11468805
v -0.09293618 0.20745501 0.11468805
v 0.08469005 -0.15501993 0.22305662
v 0.08469005 0.16890327 0.22305662
v 0.34318685 -0.02523969 0.21983853
v -0.13829608 -0.16241164 0.18199330
v -0.13829608 0.17629498 0.18199330
v 0.03820334 -0.19218453 0.12133529
v 0.11491613 0.16807690 0.22152554
v 0.11491613 -0.15419358 0.22152554
v 0.18822758 0.16862826 0.22034542
v -0.16158897 -0.16633052 0.16934530
v -0.50051810 -0.19052101 0.05760554
v 0.03780689 -0.19434994 0.11699790
v -0.18033806 0.18264693 0.15772848
v -0.18033806 -0.16876358 0.15772848
v -0.39783094 -0.11328206 0.00650146
v 0.06426121 -0.15541791 0.22233658
v 0.06426121 0.16930124 0.22233658
v 0.03628882 0.17040288 0.22196486
v 0.09524890 0.14841697 0.23895466
v 0.46145138 -0.16835404 0.00000000
v 0.46012110 0.21824386 0.00000000
v 0.32854864 0.19990042 0.12228278
v 0.20862003 -0.15499914 0.21620973
v 0.20862003 0.16888247 0.21620973
v -0.06630440 0.18185714 0.19953271
v 0.08465885 0.16891470 0.22321776
v 0.08465885 -0.15503136 0.22321776
v -0.20741313 -0.19252334 0.11208862
v -0.08314415 -0.17162580 0.19300055
v -0.13378867 0.19448910 0.16635129
v -0.13378867 -0.18060578 0.16635129
v -0.08432314 -0.15289442 0.20939574
v 0.14587781 0.20491045 0.11873586
v 0.14587781 -0.19102711 0.11873586
v -0.12774242 -0.16096221 0.18812482
v 0.04725454 -0.21683755 0.00000000
v -0.12093974 -0.17815764 0.17286102
v -0.12093974 0.19204097 0.17286102
v 0.43914968 -0.14766616 0.16061046
v 0.43914968 0.16154950 0.16061046
v -0.28698990 0.09940122 0.11976769
v -0.47469493 -0.12628194 0.00000000
v -0.22087760 0.18937162 0.13443300
v -0.19237832 -0.17046829 0.15043788
v -0.08250245 0.18529355 0.19312952
v -0.10508068 -0.17561982 0.18204555
v -0.10508068 0.18950314 0.18204555
v 0.29869830 -0.18615804 0.11959451
v 0.40210014 0.16064829 0.17841856
v 0.40210014 -0.14676494 0.17841856
v -0.20937979 0.18718278 0.14110270
v -0.04462335 -0.19405386 0.11549491
v -0.04462335 0.20793722 0.11549491
v -0.12851965 -0.17997151 0.16989299
v -0.12851965 0.19385484 0.16989299
v -0.21265070 0.18672203 0.13753307
v -0.21265070 -0.17283870 0.13753307
v -0.14581328 0.19714274 0.16013213
v -0.28322333 0.01864303 0.00000000
v 0.34313486 -0.01986278 0.22022844
v -0.56306196 0.20386274 0.00000000
v -0.49073647 -0.19534318 0.05603654
v 0.15870076 -0.15405346 0.22060536
v 0.15870076 0.16793681 0.22060536
v 0.02959583 0.15847438 0.23765294
v 0.10579215 0.20548700 0.11864047
v -0.18137082 -0.19350955 0.11250219
v -0.52858942 -0.18421237 0.04192834
v -0.14364827 0.19633391 0.16123693
v -0.14364827 -0.18245058 0.16123693
v -0.18227853 0.18366486 0.15784286
v -0.18227853 -0.16978153 0.15784286
v -0.13413806 -0.19621048 0.11119857
v -0.04312607 -0.19370893 0.11568260
v -0.04312607 0.20759226 0.11568260
v 0.14810552 -0.15400978 0.22086789
v 0.14810552 0.16789314 0.22086789
v -0.33525545 0.21633006 0.00000000
v -0.13458670 -0.16231859 0.18467122
v -0.29586874 -0.00938481 0.00000000
v -0.14219797 -0.18172392 0.16096150
v -0.12023010 -0.15936434 0.19163585
v -0.12023010 0.17324767 0.19163585
v -0.09075006 -0.15359623 0.20565868
v 0.15414658 0.14738967 0.23821644
v 0.25467399 -0.18981214 0.11892303
v 0.25467399 0.20369549 0.11892303
v 0.20149411 -0.22849578 0.00000000
v -0.29653645 -0.01587340 0.00000000
v 0.51109973 0.20685005 0.00000000
v 0.21611677 -0.19081786 0.11882450
v 0.21611677 0.20470118 0.11882450
v -0.10966086 -0.15747715 0.19700001
v -0.10966086 0.17136050 0.19700001
v -0.06149952 -0.16711296 0.20029386
v 0.47409187 0.22381950 0.00000000
v 0.11557896 0.14816353 0.23905084
v 0.05284194 -0.15570202 0.22178810
v 0.05284194 0.16958535 0.22178810
v 0.05964462 -0.19302425 0.11834778
v 0.22543397 -0.21144391 0.08188314
v 0.10837458 -0.16617758 0.19914791
v 0.02486957 0.17067010 0.21897552
v 0.02486957 -0.15678677 0.21897552
v 0.29244355 0.20092085 0.11919025
v 0.29244355 -0.18703752 0.11919025
v 0.17906722 0.20597620 0.11854898
v 0.17906722 -0.19209286 0.11854898
v 0.19947527 0.16890717 0.21935504
v 0.05283154 -0.19432213 0.11722092
v 0.46065350 -0.14577952 0.00000000
v -0.19229462 0.20659799 0.11356302
v -0.16274155 0.17942390 0.16766451
v -0.16274155 -0.16554057 0.16766451
v 0.14504341 0.14777154 0.23858815
v -0.08442719 -0.19097010 0.12963904
v 0.04920069 -0.18662136 0.14528156
v 0.40980033 0.16060022 0.17470535
v 0.05282115 0.16955833 0.22030122
v 0.05282115 -0.15567498 0.22030122
v 0.20777002 0.16910135 0.21761602
v 0.18954258 -0.15441130 0.21842290
v -0.42599078 -0.14336060 0.00000000
v -0.39783059 -0.11324925 0.00589007
v 0.29242277 -0.18670764 0.11934231
v 0.17979246 0.16830149 0.21842705
v 0.23194985 0.20307057 0.11902596
v 0.23194985 -0.18918724 0.11902596
v -0.09836638 -0.15445506 0.20170495
v -0.10214853 -0.17489250 0.18196964
v -0.10214853 0.18877583 0.18196964
v 0.05280556 0.16940131 0.22124221
v 0.05280556 -0.15551798 0.22124221
v 0.05960825 -0.19327924 0.11778786
v -0.20857610 -0.17283273 0.14076310
v 0.18961568 0.16868778 0.22005947
v 0.18961568 -0.15480442 0.22005947
v -0.17221513 0.20693955 0.11360722
v -0.20547734 -0.17271939 0.14333654
v 0.07436133 -0.15524545 0.22290638
v 0.10646019 0.14818120 0.23900925
v 0.18129493 -0.15432510 0.21946421
v 0.18129493 0.16820845 0.21946421
v 0.32036914 -0.18531514 0.11942160
v 0.32036914 0.19919847 0.11942160
v 0.37599049 0.16159375 0.19299223
v 0.08226999 0.16878474 0.22250814
v 0.05959264 -0.19355946 0.11752429
v -0.14071094 -0.16290086 0.18085500
v 0.05278476 0.16939143 0.22085230
v 0.05278476 -0.15550810 0.22085230
v 0.22663403 -0.21105903 0.08284202
v -0.49952121 -0.19099726 0.05662886
v -0.04340226 0.17789340 0.20837483
v 0.29717016 -0.14467158 0.00000000
v 0.05958225 0.20795878 0.11733815
v 0.39666463 0.16149000 0.18247537
v 0.14462623 -0.19081408 0.11905806
v 0.34378214 0.03978795 0.21890273
v -0.19174666 -0.16981401 0.15045765
v -0.19174666 0.18369736 0.15045765
v -0.16741557 -0.19394494 0.11276214
v -0.58794558 -0.07373740 0.04687544
v -0.10143368 -0.15626297 0.20144242
v -0.14149335 0.20808902 0.11339172
v -0.14149335 -0.19420569 0.11339172
v -0.56284762 0.20426599 0.00000000
v 0.08223359 -0.15472905 0.22201943
v 0.31277364 -0.18710744 0.11917049
v 0.22093218 0.14818851 0.23468360
v 0.08801902 -0.19355012 0.11773710
v -0.21512820 -0.17343162 0.13633264
v -0.21512820 0.18731497 0.13633264
v -0.01196582 -0.15972742 0.21530900
v 0.14193969 -0.19339388 0.11797268
v -0.30912416 -0.14132506 0.00000000
v 0.06889954 0.16907050 0.22080987
v 0.11321089 -0.19157455 0.11855521
v 0.45387199 -0.22148866 0.00000000
v -0.06823402 0.18230670 0.19759364
v 0.18768048 -0.15469934 0.21963666
v 0.44948470 -0.14777781 0.15491783
v 0.13965999 0.16811772 0.22325935
v 0.17518628 0.14712454 0.23736902
v -0.12338580 0.17287414 0.18915938
v -0.12338580 -0.15899082 0.18915938
v 0.03629469 -0.19256250 0.11798346
v 0.34374054 0.00694166 0.21992950
v -0.14500936 0.19962572 0.14187875
v -0.14219750 0.19560693 0.16096134
v 0.12680067 0.14799040 0.23894167
v -0.12112170 -0.17848153 0.17351450
v -0.01689038 0.17410879 0.21464123
v -0.37066648 0.15066387 0.00000000
v -0.15945981 -0.19545618 0.11079078
v -0.14682998 0.17726119 0.17679757
v -0.14682998 -0.16337784 0.17679757
v 0.10033075 -0.19403620 0.11769739
v -0.11962444 0.17260536 0.19128518
v -0.11962444 -0.15872202 0.19128518
v 0.10032556 -0.19422778 0.11753338
v 0.34371454 -0.01045894 0.21956039
v 0.34371454 0.02434226 0.21956039
v -0.07654942 -0.16995983 0.19427582
v -0.07654942 0.18384318 0.19427582
v 0.27606854 0.22587842 0.07361738
v -0.09771391 -0.15506359 0.20251078
v -0.09771391 0.16894694 0.20251078
v -0.05894800 -0.14866430 0.22524186
v 0.42912372 -0.14756712 0.16579967
v 0.42912372 0.16145047 0.16579967
v 0.59207514 0.10687246 0.00000000
v -0.11661951 0.20783661 0.11390691
v -0.11661951 -0.19395328 0.11390691
v 0.14391182 -0.20906122 0.09486988
v 0.20159899 0.16884815 0.21946940
v 0.29910587 -0.18690625 0.11918194
v 0.45557282 0.16172446 0.15139811
v 0.34217563 -0.04923175 0.21891361
v -0.22161246 -0.17388886 0.13193520
v -0.22161246 0.18777219 0.13193520
v -0.11964522 -0.15972125 0.19246169
v 0.42152293 -0.14557484 0.00000000
v 0.03722344 0.20665544 0.11924044
v 0.19251662 0.16837274 0.21819828
v 0.28360164 0.08232792 0.23523234
v 0.15699035 0.14794153 0.23842179
v 0.32400042 0.14335530 0.00000000
v -0.05357463 -0.15868634 0.22072748
v 0.06401686 0.16908705 0.22180889
v 0.09878671 0.16864826 0.22311379
v 0.09878671 -0.15476494 0.22311379
v -0.13175334 -0.19527509 0.11298829
v 0.32256582 -0.18590240 0.11942543
v 0.11850095 0.16634442 0.22742994
v 0.15017726 0.16793446 0.22038959
v -0.16759259 0.18037294 0.16494343
v -0.16759259 -0.16648962 0.16494343
v -0.14309980 -0.18224755 0.16112697
v 0.07761183 0.16901790 0.22278367
v -0.56609738 -0.13242922 0.06659918
v -0.51193672 -0.21082462 0.00000000
v -0.17916339 -0.16904198 0.15924161
v -0.17916339 0.18292531 0.15924161
v 0.43134622 0.16263762 0.16756339
v -0.04797697 -0.16496382 0.20738530
v 0.19321577 0.14756427 0.23649737
v 0.06399086 0.16903114 0.22142936
v 0.06399086 -0.15514782 0.22142936
v -0.08689414 -0.15228554 0.20713283
v 0.05870103 0.16953441 0.22303581
v -0.07339833 -0.16940877 0.19547657
v 0.11766111 0.20565129 0.11834153
v 0.11766111 -0.19176794 0.11834153
v 0.11386851 0.16835867 0.22237594
v 0.14625431 0.14734853 0.23841662
v -0.19693693 0.20656525 0.11369663
v 0.03601849 -0.15621541 0.21979174
v 0.34758559 0.03016947 0.21842493
v 0.20079578 -0.18964265 0.11913955
v 0.41258673 -0.14975827 0.17704262
v 0.32044270 0.19894385 0.11959759
v -0.22294257 -0.17428086 0.13154425
v -0.12649470 0.17414474 0.18804890
v -0.12649470 -0.16026141 0.18804890
v 0.11310692 -0.15457283 0.22301502
v 0.11310692 0.16845616 0.22301502
v -0.05620897 0.20739549 0.11564282
v -0.05620897 -0.19351216 0.11564282
v 0.09874512 0.14818743 0.23893387
v -0.46613329 -0.11817707 0.02851602
v 0.08819157 0.20697199 0.11784106
v -0.13330258 0.17459287 0.18394391
v -0.13330258 -0.16070954 0.18394391
v 0.18189019 -0.15437190 0.21845563
v 0.18189019 0.16825523 0.21845563
v 0.29148958 0.20209866 0.11905871
v 0.29148958 -0.18821531 0.11905871
v 0.12373874 0.14750817 0.23882933
v -0.27672755 -0.16081216 0.11922634
v 0.36177533 -0.14509690 0.19644373
v 0.44869735 0.16092305 0.15477710
v 0.28186466 0.22824693 0.00000000
v 0.26206697 0.22033258 0.00000000
v -0.20800686 -0.19232511 0.11239103
v 0.16146655 -0.15409089 0.21988012
v 0.09872953 -0.15477663 0.22327496
v 0.09872953 0.16865996 0.22327496
v 0.30885630 -0.18758002 0.11908834
v -0.13635431 -0.19481706 0.11330178
v 0.34310450 0.03953286 0.22001563
v -0.39807506 -0.12164890 0.00000000
v 0.03069227 0.17070779 0.22141378
v -0.22557173 -0.17538958 0.13148605
v -0.03430883 -0.19381135 0.11578995
v -0.03430883 0.20769468 0.11578995
v 0.13802757 0.14784691 0.23874930
v -0.17964839 0.20673685 0.11839785
v -0.58959878 -0.02930266 0.04896830
v -0.30237318 0.03067434 0.00000000
v 0.07452892 0.16881280 0.22204282
v 0.11307053 -0.15458661 0.22253931
v 0.11307053 0.16846994 0.22253931
v 0.02899686 0.17052343 0.22021939
v -0.14316739 0.17625990 0.17862029
v -0.14316739 -0.16237654 0.17862029
v -0.16178087 0.20787965 0.11423994
v -0.13636470 -0.19291637 0.11385962
v 0.44200952 0.16707661 0.00000000
v 0.03068188 0.17070130 0.22106026
v 0.03068188 -0.15681794 0.22106026
v -0.12956202 -0.16046130 0.18611053
v -0.12956202 0.17434462 0.18611053
v -0.07589698 -0.19380642 0.11493498
v -0.07589698 0.20768974 0.11493498
v -0.30948363 -0.13719318 0.00000000
v -0.18890290 0.18480470 0.15407526
v -0.16485875 0.20695644 0.12109399
v 0.17731522 0.14796700 0.23770175
v 0.45244832 0.16145801 0.15294034
v 0.45671043 0.16114630 0.15030390
v 0.17277662 0.16820791 0.21888973
v 0.17277662 -0.15432458 0.21888973
v -0.22510737 0.18767030 0.12935970
v -0.22510737 -0.17378698 0.12935970
v 0.26800900 -0.18974896 0.11868206
v 0.02764575 -0.19464108 0.11680944
v 0.17731002 0.14757839 0.23740800
v 0.23097506 0.17020818 0.21555728
v 0.04157978 -0.15609573 0.21978420
v -0.07316334 0.16389062 0.21344679
v 0.47203214 0.16462421 0.14704930
v -0.10084881 0.16919623 0.20068079
v 0.27329884 -0.18715865 0.11956950
v -0.20735984 -0.19169957 0.11270469
v 0.41237304 -0.14687282 0.17351631
v 0.21206946 -0.15548106 0.21783178
v 0.21206946 0.16936441 0.21783178
v 0.41917573 0.16236728 0.17337283
v 0.06543093 -0.19308689 0.11804182
v 0.20600234 0.14835645 0.23622125
v 0.06845666 0.16910940 0.22227938
v 0.06845666 -0.15522607 0.22227938
v -0.18460943 0.18353878 0.15559930
v -0.18460943 -0.16965545 0.15559930
v -0.15301659 -0.16494765 0.17413446
v 0.12211650 0.20589615 0.11823678
v 0.12211650 -0.19201280 0.11823678
v -0.10085921 -0.15511896 0.20056641
v -0.10085921 0.16900231 0.20056641
v -0.47208020 -0.11952105 0.00000000
v -0.07766015 -0.17040860 0.19516468
v 0.00419638 -0.19282045 0.11749516
v 0.00419638 0.20670378 0.11749516
v -0.19294059 0.18492194 0.15103418
v -0.19294059 -0.17103861 0.15103418
v 0.10552196 0.18574971 0.18574207
v -0.07063834 0.20755250 0.11516842
v -0.07063834 -0.19366915 0.11516842
v -0.12128286 0.19265834 0.17412562
v -0.12128286 -0.17877499 0.17412562
v 0.32486158 -0.12665122 0.22293948
v 0.17275064 0.16807144 0.21925105
v -0.15016295 -0.19476170 0.11268103
v -0.50111155 -0.20703710 0.00000000
v -0.56346254 0.20342570 0.00000000
v 0.12455281 0.13575114 0.24091767
v -0.10164164 0.18862039 0.18242428
v -0.10164164 -0.17473706 0.18242428
v 0.39269544 -0.14850135 0.18580171
v 0.40478794 -0.14722218 0.17748305
v 0.40478794 0.16110553 0.17748305
v 0.12889321 0.14781443 0.23884549
v 0.12963923 -0.15424140 0.22069113
v 0.12963923 0.16812473 0.22069113
v -0.10089560 -0.19555114 0.11395943
v 0.40401070 -0.14654658 0.17743754
v -0.55075959 -0.18249203 0.00000000
v 0.13039046 -0.15439034 0.22250034
v 0.13039046 0.16827370 0.22250034
v -0.16257882 0.20778255 0.11401064
v 0.60000000 0.15008461 0.06017079
v 0.04716714 -0.18665442 0.14274761
v 0.44256272 0.16080946 0.15810150
v 0.20745279 -0.15530296 0.21803362
v 0.20745279 0.16918629 0.21803362
v -0.22224833 0.18920045 0.13353114
v -0.10843379 -0.15584120 0.19674349
v 0.43930749 0.16197512 0.16244575
v -0.22534710 0.19024283 0.13161842
v -0.21959297 -0.17439237 0.13460507
v 0.37636182 0.16116982 0.19223274
v -0.10394734 -0.15709531 0.20045983
v -0.07567238 -0.15000576 0.21222718
v -0.56531433 0.19488964 0.00000000
v 0.08123802 0.14846506 0.23866612
v -0.39538808 0.20657315 0.09520622
v 0.31953021 -0.15046798 0.21985891
v -0.13040683 0.19362375 0.16709888
v -0.56159998 0.20336129 0.00000000
v 0.26642337 0.20303964 0.11900985
v 0.26642337 -0.18915630 0.11900985
v 0.36845843 0.16026226 0.19416638
v 0.12960283 0.20592266 0.11828046
v 0.12960283 -0.19203931 0.11828046
v 0.34351178 0.00694166 0.22027523
v 0.22621242 -0.15579256 0.21463122
v 0.45202085 -0.15565688 0.15759227
v 0.11221532 -0.19359430 0.11794590
v 0.41834133 0.16137898 0.17118983
v 0.41834133 -0.14749566 0.17118983
v 0.41761099 0.16678449 0.00000000
v 0.39112018 -0.14607740 0.18342584
v -0.10018595 -0.15574932 0.20168417
v 0.34273975 -0.03060722 0.22015305
v -0.12212248 -0.15896766 0.18988670
v -0.12212248 0.17285102 0.18988670
v 0.59105862 0.11564533 0.00000000
v -0.58931664 -0.04801840 0.04843428
v 0.20815722 -0.15513994 0.21740264
v 0.09103002 0.14805410 0.23882470
v 0.15150297 -0.15421332 0.22147356
v 0.15150297 0.16809667 0.22147356
v -0.47601854 -0.12973583 0.00000000
v -0.20738555 0.20606042 0.11251909
v -0.20738555 -0.19217709 0.11251909
v -0.14177930 -0.18155949 0.16063802
v -0.16147787 0.20711830 0.11357553
v 0.18853171 0.14797116 0.23710127
v -0.11004038 -0.17652311 0.17947368
v -0.11004038 0.19040646 0.17947368
v -0.20081761 0.18627858 0.14667730
v -0.20081761 -0.17239523 0.14667730
v 0.37776530 0.15430705 0.00000000
v 0.38656079 -0.14621491 0.18551603
v 0.13183054 -0.15442986 0.22282006
v 0.13183054 0.16831318 0.22282006
v 0.20950322 0.14732642 0.23523435
v 0.15298983 0.16811642 0.22276808
v -0.19823526 -0.17258337 0.14867926
v -0.18170327 0.20699491 0.11364542
v 0.42811774 0.16240418 0.16902506
v 0.42282792 0.16201038 0.17114954
v 0.42282792 -0.14812705 0.17114954
v 0.44209350 -0.14803822 0.16062424
v 0.08722188 -0.19299617 0.11801947
v 0.17565158 -0.15424218 0.21984892
v 0.17565158 0.16812553 0.21984892
v -0.12706266 -0.17919490 0.16889799
v -0.24537406 0.19299642 0.12281408
v 0.47610698 0.16095021 0.14036083
v 0.08235990 0.16860863 0.22144114
v -0.02692647 0.20799882 0.11585494
v -0.02692647 -0.19411547 0.11585494
v 0.16959494 0.14759894 0.23775893
v 0.41598356 0.14906422 0.17745315
v -0.06698613 -0.21445291 0.00000000
v 0.05091837 -0.19319815 0.11801401
v -0.14393888 -0.18256745 0.16093942
v 0.36805702 0.15946412 0.19375717
v 0.32755914 -0.18636427 0.11924016
v 0.16277666 0.16814397 0.22095368
v 0.16277666 -0.15426064 0.22095368
v 0.08945478 -0.19191638 0.11840211
v 0.37927313 -0.14737934 0.19085722
v 0.00943978 -0.15780989 0.21809588
v -0.39783442 -0.13246064 0.00000000
v -0.59000503 -0.01377265 0.05300198
v 0.02974350 -0.15665808 0.21900150
v -0.00043036 -0.22109528 0.06860558
v -0.11085399 -0.15782158 0.19659970
v 0.07508778 -0.19423790 0.11748919
v -0.21063538 0.20687112 0.11120758
v 0.30779801 0.15463081 0.00000000
v -0.09951270 -0.17475550 0.18518823
v 0.08944439 -0.19217344 0.11809642
v 0.08944439 0.20605679 0.11809642
v 0.43940182 0.16229553 0.16315295
v -0.13580582 -0.16093050 0.18257063
v -0.13580582 0.17481383 0.18257063
v 0.17409714 -0.19066110 0.11875978
v 0.17409714 0.20454446 0.11875978
v 0.15443510 0.16819259 0.22255232
v 0.05844110 0.16939950 0.22199604
v 0.05844110 -0.15551615 0.22199604
v 0.44329878 -0.11017991 0.17304482
v 0.23269727 -0.15616440 0.21746365
v 0.11134970 0.14778323 0.23892867
v -0.17376309 0.20748986 0.11410162
v -0.14564463 -0.16351224 0.17778690
v -0.14564463 0.17739557 0.17778690
v 0.00401442 0.20878073 0.11637949
v 0.00401442 -0.19489738 0.11637949
v 0.27357081 -0.20804548 0.08567905
v -0.14565504 -0.16258373 0.17722231
v -0.14565504 0.17646706 0.17722231
v -0.20559066 -0.17234949 0.14240958
v -0.20559066 0.18623282 0.14240958
v -0.13204967 0.17530746 0.18547626
v -0.13204967 -0.16142412 0.18547626
v -0.13204446 0.17457677 0.18468396
v -0.13204446 -0.16069342 0.18468396
v 0.14460151 -0.15406672 0.22137998
v 0.14460151 0.16795005 0.22137998
v 0.03574815 -0.19264473 0.11766387
v 0.03574815 0.20652806 0.11766387
v 0.39774068 -0.14762748 0.18200158
v -0.11089038 0.17121726 0.19586407
v -0.11089038 -0.15733394 0.19586407
v 0.39176225 -0.14658844 0.18322230
v 0.39176225 0.16047179 0.18322230
v -0.13508058 0.19479714 0.16576042
v -0.13508058 -0.18091379 0.16576042
v -0.14033388 0.17670055 0.18102202
v -0.11089558 -0.15696091 0.19560672
v -0.11089558 0.17084425 0.19560672
v -0.03735460 -0.16292541 0.20840174
v 0.35396146 0.15911046 0.20014790
v -0.49496553 -0.15625754 0.00000000
v 0.59652099 0.09385418 0.00000000
v 0.03044794 -0.15645638 0.21960457
v 0.03044794 0.17033970 0.21960457
v 0.31779353 -0.18171135 0.14554666
v -0.09351324 0.16680631 0.20402624
v 0.25115957 -0.18807676 0.11936390
v -0.15035530 -0.19324260 0.11332154
v -0.15035530 0.20712593 0.11332154
v -0.18640849 0.18253852 0.15369158
v -0.18640849 -0.16865519 0.15369158
v 0.11283658 0.16842965 0.22352710
v -0.12187165 -0.16050982 0.19152866
v -0.07613612 -0.16991903 0.19544296
v -0.14265531 0.19590294 0.16110642
v -0.14265531 -0.18201958 0.16110642
v -0.38036843 -0.11241506 0.01436156
v 0.25266202 -0.18833046 0.11916294
v 0.25266202 0.20221379 0.11916294
v -0.11846509 -0.15897832 0.19240398
v -0.11846509 0.17286167 0.19240398
v -0.58974399 -0.03266622 0.04904175
v -0.13962958 -0.19260262 0.11413411
v 0.10224134 0.14795869 0.23892606
v 0.10224134 0.16876342 0.22219360
v 0.10224134 -0.15488007 0.22219360
v -0.14341694 0.19622552 0.16105730
v 0.41138786 0.16213022 0.17687294
v 0.41138786 -0.14824687 0.17687294
v -0.14270224 0.19605679 0.16118559
v 0.11432865 -0.15451565 0.22278106
v 0.11432865 0.16839898 0.22278106
v 0.32978698 0.15506978 0.00000000
v 0.16421674 -0.15440361 0.22121362
v 0.16421674 0.16828694 0.22121362
v -0.16110703 -0.19203881 0.11380814
v 0.29564314 -0.14691563 0.00000000
v 0.25567214 0.20246100 0.11907691
v 0.25567214 -0.18857767 0.11907691
v -0.20623739 0.20622133 0.11419259
v -0.08824942 -0.15340882 0.20719494
v -0.06935424 0.20786001 0.11498854
v -0.06935424 -0.19397667 0.11498854
v 0.34087787 -0.18299260 0.11864882
v 0.43707534 0.16118376 0.16124159
v 0.36375868 -0.14571842 0.19579909
v 0.36375868 0.15960175 0.19579909
v -0.09429568 -0.19422362 0.11435350
v -0.09429568 0.20810694 0.11435350
v -0.18092033 -0.16828089 0.15702014
v -0.18092033 0.18216422 0.15702014
v 0.03570656 0.20708044 0.11714061
v 0.03570656 -0.19319711 0.11714061
v 0.32993309 0.15839401 0.05845446
v 0.40910298 -0.14782578 0.17707416
v 0.40910298 0.16170911 0.17707416
v -0.09679969 0.18046252 0.20293797
v 0.24129475 -0.19002425 0.11893290
v 0.24129475 0.20390758 0.11893290
v 0.57569572 -0.15664442 0.10881597
v -0.16127912 -0.19227170 0.11347802
v -0.20133879 0.18477326 0.14446858
v 0.36903810 -0.14622842 0.19369096
v 0.36903810 0.16011175 0.19369096
v 0.23441384 -0.19102964 0.11841609
v 0.22555053 0.16995513 0.21567666
v 0.18686289 0.16825731 0.21846344
v 0.43554169 -0.14774390 0.16279370
v 0.14453392 0.16826485 0.22260691
v 0.07121204 -0.19390961 0.11750478
v 0.34407586 0.00694166 0.21927706
v 0.08408708 0.16888887 0.22275326
v 0.39396395 -0.14829315 0.18510065
v -0.23461137 0.18814391 0.12318971
v -0.23461137 -0.17426058 0.12318971
v -0.60000000 -0.07364446 0.00000000
v 0.05306290 0.16974678 0.22230538
v 0.05306290 -0.15586343 0.22230538
v -0.08299078 -0.17114961 0.19180846
v -0.08299078 0.18503294 0.19180846
v 0.16719566 -0.19261353 0.11834986
v 0.19818857 0.16857600 0.21807092
v -0.59891489 -0.07231602 0.00000000
v 0.03698479 -0.19356762 0.11719206
v -0.09206797 -0.17343007 0.18919057
v -0.22655662 -0.17408168 0.12853738
v -0.22655662 0.18796501 0.12853738
v -0.58792311 -0.07096193 0.04687697
v 0.12409986 -0.19377210 0.11779774
v -0.58860130 -0.05820346 0.04767992
v 0.45843301 0.17418060 0.00000000
v -0.12382250 -0.19303594 0.11423238
v -0.19177110 0.18349563 0.15040929
v -0.19177110 -0.16961230 0.15040929
v 0.31982832 -0.14040289 0.00000000
v -0.12080197 0.19200665 0.17250308
v -0.12080197 -0.17812332 0.17250308
v 0.05304209 0.16965529 0.22195964
v 0.05304209 -0.15577194 0.22195964
v -0.11057707 0.17012223 0.19566441
v -0.56396239 0.20295134 0.00000000
v 0.18002381 -0.19006949 0.11915359
v -0.07496208 -0.17961355 0.17111089
v 0.16566201 -0.15446340 0.22149176
v 0.16566201 0.16834673 0.22149176
v 0.22310922 -0.18964369 0.11895448
v 0.22310922 0.20352704 0.11895448
v -0.31103713 -0.13358842 0.00000000
v -0.17213508 -0.19401515 0.11237379
v -0.10493771 -0.17530970 0.18137593
v -0.10493771 0.18919306 0.18137593
v -0.14197684 -0.16324137 0.18038425
v -0.13517416 -0.18051583 0.16433751
v 0.16187986 0.14763662 0.23806566
v 0.17548523 -0.15451850 0.22055596
v 0.17548523 0.16840183 0.22055596
v 0.08782766 -0.19263745 0.11836317
v -0.17112298 0.21431902 0.13056683
v -0.09587612 0.16766594 0.20286691
v 0.24476934 0.17087406 0.21154360
v -0.15309378 -0.16524007 0.17449709
v 0.27706644 -0.21224662 0.07218486
v 0.18151587 -0.19031044 0.11890196
v 0.18151587 0.20419379 0.11890196
v -0.14398526 -0.18253511 0.16133841
v 0.43028335 -0.22407014 0.00000000
v -0.06204002 -0.14842683 0.21893855
v 0.43245878 -0.14779485 0.16470845
v -0.11856386 -0.19477079 0.11378813
v -0.11856386 0.20865414 0.11378813
v -0.15855050 -0.16446701 0.17002635
v -0.15855050 0.17835034 0.17002635
v 0.34401868 -0.00375433 0.21926925
v 0.34401868 0.01763766 0.21926925
v -0.03391634 -0.19524077 0.11559630
v 0.44303321 0.16217935 0.16101362
v 0.22009923 0.16931155 0.21495758
v 0.34369002 -0.01704494 0.21930377
v 0.42691859 0.16175786 0.16821965
v 0.20744856 -0.15508402 0.21599177
v 0.22155476 -0.18903414 0.11924770
v -0.39789642 -0.11328467 0.00594803
v 0.34413351 -0.01815630 0.21890094
v -0.15878518 -0.24281450 0.13542551
v 0.17165627 -0.19269333 0.11821989
v -0.01504194 0.20692058 0.11691368
v -0.01504194 -0.19303725 0.11691368
v -0.16258818 0.20738483 0.11375773
v 0.16635085 0.16818921 0.22212342
v 0.59025093 0.12228878 0.00000000
v 0.03785628 -0.19344275 0.11761786
v -0.20379551 -0.17225149 0.14378441
v -0.29569954 0.02258164 0.00000000
v 0.21320801 -0.19114513 0.11875536
v 0.21320801 0.20502846 0.11875536
v -0.05234186 0.15979893 0.23232690
v 0.13611440 0.16793134 0.22146317
v 0.13611440 -0.15404802 0.22146317
v 0.10436506 0.14836914 0.23907165
v 0.06430539 0.16939612 0.22303581
v 0.17129116 -0.15412712 0.21962656
v 0.17693050 -0.15458712 0.22081590
v 0.17693050 0.16847046 0.22081590
v 0.08250676 -0.15478110 0.22216642
v 0.34321546 -0.02187810 0.22006727
v -0.01808845 -0.19386879 0.11607483
v -0.01808845 0.20775212 0.11607483
v -0.18763386 -0.17040927 0.15446283
v -0.18763386 0.18429262 0.15446283
v 0.06958482 -0.15503527 0.22117462
v 0.06958482 0.16891860 0.22117462
v -0.09045042 -0.21751510 0.00000000
v 0.42332441 -0.14736697 0.16847423
v 0.42332441 0.16125032 0.16847423
v 0.22453370 0.20313140 0.11905612
v 0.22453370 -0.18924807 0.11905612
v 0.14364751 0.14817600 0.23891828
v -0.19422262 0.18487957 0.14974515
v -0.19422262 -0.17099624 0.14974515
v -0.08462323 0.16511850 0.20818793
v 0.06428460 0.16939222 0.22268229
v 0.06428460 -0.15550888 0.22268229
v -0.20676898 -0.17374565 0.14337136
v -0.17970953 -0.16849689 0.15794086
v -0.17970953 0.18238022 0.15794086
v -0.08084106 -0.17085794 0.19218510
v 0.25173402 -0.19013368 0.11880164
v 0.25173402 0.20401703 0.11880164
v -0.20624728 0.20624135 0.11389106
v 0.36057699 0.15978917 0.19756148
v 0.08695154 -0.19380562 0.11769947
v 0.21596781 0.16951651 0.21694550
v 0.15346032 0.14769563 0.23835161
v -0.10277238 -0.19334475 0.11463633
v 0.03623922 0.20652074 0.11775326
v 0.10584153 0.20639160 0.11802440
v 0.10584153 -0.19250826 0.11802440
v 0.03781469 0.20787871 0.11709355
v 0.03781469 -0.19399538 0.11709355
v 0.19742738 0.13959389 0.23749699
v -0.02275214 0.23471975 0.07207688
v -0.08786279 -0.17245871 0.19065079
v -0.47229270 -0.12138930 0.00000000
v -0.14813748 -0.16404928 0.17662862
v 0.27153180 -0.22643802 0.00000000
v 0.01117784 0.23086758 0.00000000
v -0.55620461 0.20217762 0.00000000
v -0.22759949 0.00793536 0.00000000
v -0.01511472 -0.19351138 0.11628930
v -0.01511472 0.20739471 0.11628930
v 0.04384535 -0.15604176 0.22137479
v 0.04384535 0.16992510 0.22137479
v 0.43435803 0.16163124 0.16346040
v -0.14210162 0.19556370 0.16089510
v -0.14210162 -0.18168038 0.16089484
v 0.11488751 -0.15428377 0.22114602
v 0.11488751 0.16816712 0.22114602
v -0.06500801 -0.16779298 0.19890798
v 0.08465626 0.16891678 0.22258090
v 0.08465626 -0.15503344 0.22258090
v 0.18290916 0.14742684 0.23705709
v -0.46736276 -0.11786146 0.00000000
v 0.43158796 -0.14804959 0.16653037
v 0.43158796 0.16193292 0.16653037
v 0.39304115 -0.14636983 0.18255633
v 0.33355942 -0.05940863 0.22288688
v 0.36582522 -0.14713250 0.19727556
v -0.16157061 -0.19325606 0.11341185
v 0.05381990 -0.14419633 0.24047512
v -0.08240072 -0.19430134 0.11460590
v -0.08240072 0.20818467 0.11460590
v 0.38581074 -0.17507411 0.14063598
v -0.10962187 -0.15793102 0.19753550
v -0.08997023 0.18638594 0.18877155
v -0.08997023 -0.17250258 0.18877155
v 0.42703898 -0.14720451 0.16640690
v 0.42703898 0.16108784 0.16640690
v 0.05848374 0.22934667 0.00000000
v -0.06275950 -0.19432758 0.11504106
v -0.47939782 -0.20459318 0.05136460
v -0.05444916 -0.19561430 0.11507250
v -0.13835067 -0.19495458 0.11309461
v 0.42930306 0.16221157 0.16823430
v -0.19035156 0.20643110 0.11347517
v 0.18893982 -0.19027458 0.11886167
v 0.18893982 0.20415790 0.11886167
v -0.08771134 -0.19391585 0.11458850
v -0.08771134 0.20779918 0.11458850
v 0.02730306 -0.21083473 0.09709824
v 0.19800142 0.16888844 0.21896513
v 0.19800142 -0.15500511 0.21896513
v 0.15188508 -0.19154986 0.11848788
v 0.15188508 0.20543318 0.11848788
v 0.07478625 0.16902699 0.22256790
v 0.07478625 -0.15514366 0.22256790
v 0.29247736 -0.18721558 0.11915724
v -0.11341961 0.17110056 0.19426542
v -0.11341961 -0.15721721 0.19426542
v 0.13449756 0.14743438 0.23867654
v 0.04258829 -0.15589068 0.22077531
v 0.04258829 0.16977403 0.22077531
v 0.32345986 -0.18641236 0.11925913
v 0.34386790 0.00694166 0.21958118
v 0.38548742 0.16112132 0.18701334
v -0.53429391 -0.19968810 0.00000000
v -0.06279070 0.20769338 0.11522743
v -0.06279070 -0.19381005 0.11522743
v -0.15613980 -0.19400553 0.11311488
v -0.20533927 -0.17130342 0.14195322
v 0.19798061 0.16885154 0.21878837
v 0.19798061 -0.15496821 0.21878837
v -0.14244053 -0.18373316 0.16129443
v -0.10209913 -0.17532452 0.18425376
v -0.39806284 -0.12176923 0.00000000
v -0.09076306 -0.15322452 0.20540394
v -0.19174954 0.18408986 0.15065727
v -0.19174954 -0.17020653 0.15065727
v 0.40809699 0.16130465 0.17614979
v 0.40809699 -0.14742130 0.17614979
v -0.23694771 -0.17443316 0.12187934
v -0.37088338 -0.11433510 0.02511885
v 0.59638112 0.00837954 0.00000000
v -0.06166381 0.18102734 0.20023178
v -0.15358873 0.17853983 0.17319557
v -0.15358873 -0.16465650 0.17319557
v 0.13748688 -0.15422582 0.22197264
v 0.13748688 0.16810914 0.22197264
v 0.45419252 0.16128879 0.15180934
v 0.04698092 0.23064328 0.00000000
v 0.22063196 0.20502534 0.11867998
v 0.22063196 -0.19114201 0.11867998
v -0.09304795 -0.17307655 0.18708894
v -0.09304795 0.18695988 0.18708894
v 0.25312731 -0.21045518 0.08162706
v -0.31957627 -0.13538330 0.00000000
v -0.20794756 0.18777402 0.14263105
v 0.30977638 0.16886501 0.21819596
v 0.45050430 0.16301926 0.15789762
v -0.19170248 0.20611839 0.11339874
v 0.14805093 -0.15410623 0.22028823
v -0.09760214 0.20901805 0.11419339
v -0.09760214 -0.19513472 0.11419339
v 0.07335182 0.19823202 0.16435108
v -0.39807837 -0.12165457 0.00000000
v 0.17387400 0.17529886 0.20520136
v 0.16997185 0.16800283 0.21981514
v 0.03686566 0.20737597 0.11721814
v -0.22024867 -0.17472532 0.13453173
v -0.07906166 -0.15197958 0.21192155
v 0.18961307 0.16848059 0.21768361
v -0.20131695 -0.17109241 0.14451537
v -0.20131695 0.18497575 0.14451537
v 0.45187115 0.16221387 0.15583950
v -0.12104632 0.19216314 0.17320076
v -0.12104632 -0.17827981 0.17320076
v 0.34381072 -0.00375433 0.21957598
v 0.34381072 0.01763766 0.21957598
v 0.05960044 0.20729618 0.11764099
v 0.13896335 -0.19304711 0.11822040
v 0.13896335 0.20693046 0.11822040
v -0.17607814 -0.16776878 0.15997569
v -0.17607814 0.18165214 0.15997569
v 0.16466644 0.14716431 0.23781872
v 0.02545662 -0.15680987 0.21989145
v 0.19526810 -0.15460988 0.21834575
v 0.43299166 0.16207043 0.16613630
v -0.09837936 0.16920116 0.20238862
v -0.09837936 -0.15531783 0.20238862
v -0.11275158 -0.15868928 0.19607462
v -0.22622181 -0.16134378 0.13381897
v -0.10594367 -0.15565132 0.19796440
v -0.10594367 0.16953467 0.19796440
v 0.08801108 0.20743545 0.11773685
v 0.41937588 -0.14788946 0.17218569
v 0.04748714 0.16992640 0.22258351
v -0.06664563 0.20722965 0.11576655
v -0.14264371 -0.18203190 0.16111692
v -0.09048633 0.16748394 0.20582635
v 0.08754161 0.14845129 0.23881170
v 0.21981834 0.16961862 0.21719751
v 0.21452853 -0.15518102 0.21569422
v -0.12863663 -0.18004142 0.17021401
v -0.12863663 0.19392478 0.17021401
v 0.18504330 0.14785185 0.23719226
v 0.08371773 -0.15498341 0.22212382
v 0.32823875 0.15449232 0.21177422
v -0.06968176 0.18245768 0.19779545
v -0.06968176 -0.16857435 0.19779545
v -0.03625262 -0.16265440 0.20942412
v -0.15297812 0.17787178 0.17319373
v -0.15297812 -0.16398845 0.17319373
v -0.07800770 -0.19533487 0.11460174
v 0.11700084 0.14841125 0.23922501
v 0.18125073 0.16815047 0.21908469
v -0.20664834 0.18647971 0.14196232
v 0.18213758 0.15835325 0.23679493
v -0.10900061 0.19002356 0.17843494
v -0.10900061 -0.17614023 0.17843494
v -0.21966419 0.18837728 0.13470604
v 0.16386322 -0.15424297 0.21939663
v 0.05577149 -0.19474377 0.11709979
v 0.05728435 -0.19491376 0.11695865
v 0.30974010 0.20021823 0.11924197
v 0.30974010 -0.18633489 0.11924197
v -0.18693410 0.18322373 0.15347219
v -0.18693410 -0.16934040 0.15347219
v -0.16417327 -0.17780818 0.16611439
v 0.38079268 -0.14758740 0.19054876
v 0.38079268 0.16147074 0.19054876
v 0.43823989 0.16247906 0.16395540
v 0.19938429 0.20422368 0.11883074
v 0.19938429 -0.19034034 0.11883074
v 0.30399122 0.19098245 0.15362206
v -0.08860294 0.18612677 0.18900342
v -0.08860294 -0.17224344 0.18900342
v -0.59407264 -0.09436778 0.00000000
v -0.16177351 0.20745138 0.11309564
v -0.39802072 -0.12202952 0.00000000
v 0.37700012 -0.14786945 0.19263430
v 0.29159096 -0.18867151 0.11889183
v 0.37246154 0.16060435 0.19268212
v 0.50216118 0.17684242 0.12825127
v -0.39767118 -0.11329272 0.01337777
v -0.13698856 0.17542002 0.18204243
v -0.13698856 -0.16153669 0.18204243
v 0.45787072 0.16161164 0.14987978
v 0.19256082 0.16843226 0.21858041
v -0.45055366 -0.12516196 0.00000000
v -0.11659612 -0.19328990 0.11421574
v 0.29157015 0.20233572 0.11900412
v 0.29157015 -0.18845239 0.11900412
v 0.14342397 -0.19316981 0.11814995
v -0.17124711 0.18073088 0.16274146
v -0.17124711 -0.16684755 0.16274146
v 0.30723095 -0.13941759 0.00000000
v -0.14683257 -0.16318342 0.17668111
v -0.14683257 0.17706674 0.17668111
v 0.16609612 0.14800314 0.23819824
v 0.33850556 0.15428188 0.00000000
v 0.42761344 0.16087261 0.16596761
v 0.20085556 0.16897735 0.21904829
v 0.20085556 -0.15509402 0.21904829
v -0.05463111 -0.16583430 0.20282532
v 0.16608051 0.14746585 0.23783950
v -0.22215241 -0.17530021 0.13358684
v 0.34445797 -0.00510030 0.21891312
v 0.34445797 0.01898365 0.21891312
v -0.21616354 -0.17439498 0.13718603
v -0.21616354 0.18827830 0.13718603
v 0.42231323 -0.14772906 0.16982774
v 0.30212900 -0.18770920 0.11910187
v -0.07278026 -0.19560390 0.11466127
v 0.17589332 0.14727920 0.23736382
v 0.58468038 0.16298549 0.00000000
v 0.22682477 -0.15591420 0.21351041
v -0.10301673 -0.17494190 0.18214483
v -0.10301673 0.18882523 0.18214483
v -0.13105172 -0.11693713 0.19737800
v 0.01909771 0.24281450 0.04721728
v 0.27037449 -0.18754283 0.11930072
v -0.05616477 0.20720365 0.11600388
v 0.34368595 0.01764827 0.21992171
v 0.34368595 -0.00376493 0.21992171
v -0.06428206 -0.16775438 0.20063812
v 0.15636697 -0.14278949 0.23989366
v 0.11767409 0.14798158 0.23897286
v -0.58906424 -0.04798488 0.04822840
v 0.11766370 0.20550520 0.11845722
v -0.19480591 0.18370306 0.14855071
v -0.12118668 0.19254916 0.17380719
v -0.12118668 -0.17866582 0.17380719
v 0.13050744 0.16815566 0.22351671
v 0.37104284 0.18849335 0.12796638
v 0.13925076 0.15573636 0.23974526
v 0.03824345 0.20834160 0.11699529
v -0.19361123 0.20676202 0.11394046
v 0.40078374 0.17082240 0.18109997
v 0.34365475 0.00694166 0.22012965
v 0.18504372 -0.15450174 0.21805390
v -0.56366366 0.20495112 0.00136374
v 0.41016874 -0.14844678 0.17764446
v 0.12822254 0.14824255 0.23910543
v 0.14078978 -0.15810726 0.21308121
v -0.25033325 0.18519887 0.11505711
v -0.20625143 0.20602767 0.11349856
v 0.44548118 0.16742134 0.00000000
v 0.39503490 0.16076786 0.18185475
v 0.39503490 -0.14688452 0.18185475
v -0.08946854 -0.17284832 0.19006813
v -0.11869818 0.19195890 0.17487251
v 0.11385555 -0.15455229 0.22292403
v 0.11385555 0.16843564 0.22292403
v 0.19404271 0.16850647 0.21856078
v 0.59263098 0.10086841 0.00000000
v -0.21132213 -0.17340796 0.13963470
v -0.12849006 0.17345466 0.18644734
v -0.06831447 -0.16831910 0.19795401
v -0.06831447 0.18220242 0.19795401
v 0.08286266 0.16886480 0.22272129
v 0.18640538 0.14712011 0.23678934
v 0.44173036 0.16653698 0.16152489
v -0.22992515 -0.17457495 0.12666706
v 0.39437762 -0.19827047 0.09473562
v 0.09121997 0.23316554 0.00000000
v 0.03825400 -0.15628143 0.22105765
v 0.03825400 0.17016476 0.22105765
v 0.29088190 0.20594241 0.00000000
v 0.36188231 0.16050909 0.19859618
v 0.25646679 -0.20969763 0.08288004
v -0.10920357 0.23476095 0.00000000
v -0.06756843 -0.19538193 0.11482945
v 0.02615109 -0.19511938 0.11661838
v -0.05472469 0.17961704 0.20316584
v -0.05472469 -0.16573371 0.20316584
v -0.03140567 0.23043441 0.00000000
v 0.34436439 0.00694166 0.21902230
v 0.40407049 -0.14701710 0.17763146
v 0.40407049 0.16090042 0.17763146
v 0.45644698 -0.14143294 0.00000000
v -0.50227241 -0.18956898 0.05810831
v -0.39932964 -0.11557486 0.00000000
v 0.20376172 0.16868232 0.21713512
v 0.20376172 -0.15479898 0.21713512
v -0.20070063 -0.17210020 0.14629414
v -0.20070063 0.18598329 0.14629414
v 0.39121636 0.16173094 0.18590568
v 0.39121636 -0.14784760 0.18590568
v 0.44336854 0.16145644 0.15811085
v -0.06910208 -0.16872356 0.19876242
v 0.34359757 -0.00376613 0.22012446
v 0.34359757 0.01764946 0.22012446
v -0.10085142 -0.15549147 0.20082116
v -0.30099326 0.00815137 0.01719555
v 0.36428735 -0.14621581 0.19600505
v 0.03066368 -0.15672463 0.22071452
v 0.03066368 0.17060796 0.22071452
v -0.10010018 -0.17469650 0.18456906
v -0.10010018 0.18857984 0.18456906
v -0.15731785 0.17941585 0.17150567
v -0.15731785 -0.16553252 0.17150567
v 0.40632940 -0.14864694 0.17956856
v -0.13036274 -0.21685799 0.00000000
v 0.07450033 -0.15487410 0.22166332
v 0.07450033 0.16875743 0.22166332
v 0.23398258 -0.19091350 0.11857392
v 0.42370652 0.16260124 0.17132007
v -0.08574878 0.16574808 0.20763945
v -0.01212954 0.23074668 0.00000000
v -0.56329825 0.20372053 0.00000000
v 0.41462934 0.16148271 0.17328653
v 0.41462934 -0.14759936 0.17328653
v -0.16164772 -0.16646545 0.16953349
v 0.34735374 0.15804782 0.20261475
v 0.34735374 -0.14416450 0.20261475
v -0.11070062 0.20756731 0.11411826
v -0.11070062 -0.19368397 0.11411826
v 0.42142163 0.16187209 0.17152984
v 0.42142163 -0.14798876 0.17152984
v -0.20624598 0.20578697 0.11339483
v -0.21154101 -0.19231386 0.11578750
v 0.02761717 -0.19529302 0.11648086
v -0.12855765 -0.15958471 0.18641198
v 0.45106338 -0.22317342 0.00300210
v -0.18576489 -0.16877138 0.15407110
v -0.18576489 0.18265471 0.15407110
v -0.11221869 0.19050394 0.17714823
v -0.11221869 -0.17662061 0.17714823
v 0.33041486 -0.16003894 0.20591687
v -0.10844172 -0.15717434 0.19746010
v -0.10844172 0.17105766 0.19746010
v -0.11071102 -0.17681556 0.17944847
v -0.11071102 0.19069889 0.17944847
v 0.19238406 0.20538173 0.11869168
v 0.19238406 -0.19149838 0.11869168
v -0.08494009 -0.17165182 0.19157076
v 0.15307041 0.16795604 0.22104726
v 0.15307041 -0.15407270 0.22104726
v -0.09723081 -0.20770326 0.09678435
v 0.58674153 -0.14075998 0.00000000
v 0.46275428 0.21019209 0.00000000
v 0.34278915 -0.03262229 0.21998409
v 0.28435075 -0.19525910 0.00000000
v 0.03084643 0.23078915 0.00000000
v 0.46901963 0.16168806 0.14324139
v -0.17490866 0.18107480 0.16055769
v -0.17490866 -0.16719146 0.16055769
v -0.16258662 0.20762866 0.11385519
v -0.20787872 -0.19174361 0.11278877
v 0.21428418 0.16906365 0.21594200
v 0.06990974 0.16925237 0.22299682
v 0.13944945 0.14810297 0.23890267
v -0.11549468 0.15903096 0.19664655
v -0.14199594 0.19774010 0.16073410
v -0.15662902 -0.16496817 0.17133177
v -0.15662902 0.17865707 0.17121480
v -0.15662902 -0.16477374 0.17121480
v -0.15662902 0.17885152 0.17133177
v 0.08408376 0.16895134 0.22230813
v 0.00414178 0.20684598 0.11710317
v 0.00414178 -0.19296264 0.11710317
v 0.14179702 0.14838698 0.23915285
v -0.16889361 0.17995990 0.16408796
v -0.16889361 -0.16607657 0.16408796
v -0.09409017 -0.17338840 0.18720154
v -0.09409017 0.18727175 0.18720154
v 0.41909515 0.16216452 0.17320907
v 0.17873190 0.14785107 0.23752238
v 0.07476143 -0.16484837 0.20366463
v 0.14575662 -0.15418062 0.22021282
v 0.15378525 -0.19247316 0.11840755
v 0.15378525 0.20635649 0.11840755
v 0.13185914 0.16827290 0.22316578
v 0.25355623 -0.21025450 0.08228730
v -0.27768958 -0.01593236 0.00000000
v 0.16436490 -0.15412755 0.22050917
v 0.16436490 0.16801088 0.22050917
v -0.21084695 0.18612989 0.13847847
v -0.21084695 -0.17224656 0.13847847
v 0.34350399 -0.01449518 0.21989832
v 0.34350399 0.02837852 0.21989832
v -0.11682486 -0.17773288 0.17585891
v 0.38204560 -0.14656297 0.18776479
v 0.38204560 0.16044630 0.18776479
v 0.14168235 0.16826485 0.22234955
v 0.14168235 -0.15438150 0.22234955
v -0.17616054 -0.16716963 0.15982726
v -0.17616054 0.18105296 0.15982726
v -0.20132630 -0.17148597 0.14471422
v -0.20132630 0.18536930 0.14471422
v -0.39800419 -0.12103744 0.00071331
v 0.34348838 0.02502702 0.22011146
v 0.34348838 -0.01114370 0.22011146
v 0.08855988 -0.19300706 0.11801202
v -0.23459370 -0.17385378 0.12308497
v 0.19812274 0.14721762 0.23607530
v 0.24673274 0.20225514 0.11923339
v 0.24673274 -0.18837179 0.11923339
v -0.04276216 -0.16369419 0.20708576
v 0.44628510 0.16110761 0.15617870
v 0.04718560 -0.15574388 0.22041298
v 0.04718560 0.16962721 0.22041298
v 0.34369707 0.02931059 0.21937000
v -0.59201107 0.02389266 0.02964599
v 0.00409500 -0.19320673 0.11678552
v 0.00409500 0.20709006 0.11678552
v -0.46004210 -0.11850059 0.00000000
v -0.18396998 -0.16975241 0.15640798
v -0.18396998 0.18363574 0.15640798
v 0.36766302 -0.14570646 0.19397688
v 0.08723488 -0.19275130 0.11833555
v 0.43341536 0.16133062 0.16334948
v 0.43341536 -0.14744730 0.16334948
v -0.18329178 0.20664529 0.11284844
v -0.18329178 -0.19276196 0.11284844
v 0.35380726 -0.14587436 0.20141283
v -0.17100626 0.19141914 0.16333099
v 0.03356464 -0.19481134 0.11685623
v 0.04188019 0.17018322 0.22212601
v 0.32350299 -0.21793477 0.00000000
v -0.08058373 -0.15165445 0.21036363
v 0.39787868 0.16132180 0.18123399
v 0.39787868 -0.14743846 0.18123399
v -0.24176144 0.01473670 0.00000000
v 0.42735872 -0.14767657 0.16698423
v 0.42735872 0.16155990 0.16698423
v 0.04186458 -0.15629443 0.22177249
v 0.04186458 0.17017776 0.22177249
v 0.38804506 -0.14796822 0.18756904
v -0.27430892 0.03048306 0.00000000
v 0.14012270 0.14767588 0.23863753
v 0.01060565 0.17171730 0.21875179
v 0.16430770 0.16796071 0.21992950
v 0.08846090 0.20613806 0.11841378
v 0.08721410 0.20718753 0.11781282
v 0.08721410 -0.19330420 0.11781282
v 0.11402314 -0.15440850 0.22211442
v 0.17564379 -0.19097407 0.11867582
v 0.17564379 0.20485742 0.11867582
v 0.00406382 -0.19351474 0.11657782
v 0.00406382 0.20739810 0.11657782
v 0.06830850 -0.19359793 0.11755989
v 0.06830850 0.20748128 0.11755989
v 0.45168983 -0.22195373 0.00000000
v 0.38513412 0.16142475 0.18829821
v 0.44548188 -0.14787750 0.15753170
v 0.45491382 -0.21689453 0.00000000
v 0.09223790 0.15081983 0.24028369
v 0.33933601 0.04091704 0.22255099
v -0.19065256 -0.19270502 0.11272939
v -0.19065256 0.20658838 0.11272939
v -0.21699207 -0.17372505 0.13532427
v -0.58552645 -0.07070527 0.04665297
v 0.22325218 0.16986426 0.21638129
v 0.22325218 -0.15598094 0.21638129
v -0.31223487 -0.21303073 0.00000000
v 0.19527980 -0.15459414 0.21755884
v 0.19527980 0.16847747 0.21755884
v 0.04184380 0.17008549 0.22142678
v 0.04184380 -0.15620214 0.22142678
v 0.42128646 -0.14694092 0.16914410
v 0.42128646 0.16082427 0.16914410
v 0.15294563 -0.15434875 0.22174910
v 0.15294563 0.16823210 0.22174910
v -0.15775549 -0.16640447 0.17226962
v 0.20283372 -0.19166760 0.11858770
v 0.20283372 0.20555094 0.11858770
v 0.00404302 0.20775316 0.11648190
v 0.00404302 -0.19386983 0.11648190
v 0.20359015 0.16901841 0.21823467
v 0.20359015 -0.15513508 0.21823467
v 0.21727380 0.16941784 0.21771858
v 0.43638909 0.16095840 0.16144955
v -0.15545485 0.17806466 0.17176924
v -0.15545485 -0.16418133 0.17176924
v -0.31009593 -0.13502830 0.00000000
v 0.37289565 -0.14571842 0.19161454
v 0.29288064 0.20172974 0.11908355
v 0.44696354 0.16133635 0.15596166
v -0.23673751 0.02967970 0.00000000
v 0.08943658 -0.19255480 0.11787910
v 0.08943658 0.20668169 0.11782710
v 0.08943658 -0.19279835 0.11782710
v 0.08943658 0.20643813 0.11787910
v 0.12420644 0.16819778 0.22365968
v -0.26273796 -0.00674811 0.00000000
v 0.20478486 0.16893938 0.21782764
v 0.44792865 0.19179564 0.04757630
v 0.34415644 0.01763825 0.21913147
v 0.34415644 -0.00375492 0.21913147
v 0.38556726 -0.14754407 0.18805314
v 0.28445036 -0.15387996 0.00000000
v 0.20432580 -0.19181552 0.11843201
v 0.41482299 -0.16256286 0.06433562
v -0.13884455 0.17610600 0.18130497
v -0.13884455 -0.16222267 0.18130497
v 0.42956042 -0.14795133 0.16719973
v -0.12977777 0.20760188 0.11366362
v -0.12977777 -0.19371854 0.11366362
v 0.45072491 0.16159942 0.15410644
v -0.56275503 0.20445341 0.00000000
v 0.13325764 -0.15405164 0.22115122
v 0.13325764 0.16793497 0.22115122
v 0.00400142 -0.19513731 0.11632542
v 0.34338442 -0.00912558 0.22026482
v 0.16046316 0.14734446 0.23800329
v 0.34345223 0.06912889 0.22316193
v 0.39693990 0.23460500 0.00000000
v -0.22509879 -0.17358733 0.12928485
v -0.09131438 0.19403494 0.17016054
v 0.30819202 -0.21286465 0.00000000
v -0.19653167 0.18454580 0.14758008
v -0.19653167 -0.17066246 0.14758008
v 0.21563587 -0.18935827 0.11910369
v 0.21563587 0.20324162 0.11910369
v -0.04738906 0.17843546 0.20532805
v 0.44163734 -0.14815330 0.16142251
v 0.18690707 0.16826952 0.21885335
v -0.48558313 -0.19808342 0.05495785
v -0.18491907 -0.19351735 0.11222436
v -0.48261476 -0.21513124 0.00000000
v 0.38266686 0.16023106 0.18734992
v 0.38266686 -0.14634774 0.18734992
v -0.20086154 0.18665912 0.14694894
v -0.20086154 -0.17277579 0.14694894
v 0.40685187 -0.14763290 0.17732785
v 0.40685187 0.16151623 0.17732785
v 0.03572476 0.20677241 0.11734726
v 0.03572476 -0.19288908 0.11734726
v -0.31001750 -0.13484123 0.00636662
v 0.20713258 0.14781327 0.23562747
v -0.48691337 -0.19738809 0.05516234
v 0.06897655 -0.15508391 0.22202944
v 0.20973055 0.16895338 0.21689983
v 0.17404254 -0.15436669 0.22031162
v 0.17404254 0.16825004 0.22031162
v 0.15438573 -0.15440100 0.22204282
v 0.15438573 0.16828435 0.22204282
v -0.20737204 0.20583245 0.11264621
v 0.34324369 0.04328719 0.21923976
v -0.38442964 -0.21318430 0.07635590
v -0.12755527 -0.17928110 0.16916307
v -0.16142260 -0.19257532 0.11325916
v 0.03569875 0.20743500 0.11704469
v 0.03569875 -0.19355167 0.11704469
v -0.16520475 0.17960092 0.16621533
v -0.16520475 -0.16571759 0.16621533
v 0.05308110 0.16975145 0.22265890
v 0.22844323 -0.21124306 0.08214617
v -0.22091994 -0.18006401 0.13260209
v 0.34407845 0.03037488 0.21897032
v -0.19802349 0.20601363 0.11273978
v -0.19802349 -0.19213030 0.11273978
v 0.34322290 -0.03247129 0.21902699
v -0.17852835 0.20686468 0.11357575
v -0.16953982 -0.16757878 0.16482308
v -0.16953982 0.18146211 0.16482308
v 0.03615270 -0.19296610 0.11735190
v 0.11418011 0.16889834 0.22028153
v 0.08102226 -0.19436502 0.11745642
v -0.15665956 0.17477289 0.17249466
v -0.20733538 0.18790970 0.14304409
v -0.07846521 0.20729671 0.11531658
v -0.07846521 -0.19341338 0.11531658
v 0.07270671 -0.19289505 0.11833166
v 0.19591148 -0.15474490 0.21713773
v 0.19591148 0.16862826 0.21713773
v 0.12410247 -0.19358077 0.11796176
v -0.22308483 -0.17463405 0.13223587
v 0.41284094 -0.14767630 0.17446251
v 0.41284094 0.16155963 0.17446251
v -0.16524114 -0.16677476 0.16699334
v -0.16524114 0.18065811 0.16699334
v 0.11351242 0.16846240 0.22317098
v -0.09167406 -0.17292297 0.18719113
v 0.08269691 0.16862923 0.22182166
v -0.58997587 -0.01219903 0.04951876
v 0.41433820 -0.14711275 0.17270712
v 0.41433820 0.16099608 0.17270712
v 0.34933190 0.15848661 0.20191811
v 0.12408688 0.16818452 0.22230796
v 0.12408688 -0.15430119 0.22230796
v -0.39800870 -0.12502370 0.00000000
v -0.12535357 0.19308878 0.17116228
v -0.12535357 -0.17920546 0.17116228
v 0.39695068 -0.14779639 0.18302007
v 0.39695068 0.16167974 0.18302007
v 0.18530062 0.16842446 0.21953180
v -0.07833469 0.16420709 0.21102198
v 0.15405210 0.16805258 0.21992363
v -0.05808834 -0.16633782 0.20234702
v -0.17245064 0.18130458 0.16223198
v -0.17245064 -0.16742124 0.16223198
v -0.17494947 0.18213042 0.16134766
v -0.17494947 -0.16824708 0.16134766
v 0.39694029 -0.14619386 0.18073960
v 0.15581542 0.16828018 0.22215460
v 0.15581542 -0.15439685 0.22215460
v 0.38332973 -0.14586686 0.18696208
v 0.08321867 0.16932329 0.22139182
v 0.46002164 -0.19415274 0.00000000
v 0.17696949 0.16843226 0.22116422
v 0.34449080 0.15880768 0.20496249
v 0.29789450 0.23462626 0.04118302
v -0.05583464 -0.19538062 0.11509357
v -0.11857167 -0.19501488 0.11373250
v 0.29961604 -0.14359963 0.00000000
v 0.03703975 -0.16091303 0.21080337
v -0.12840528 -0.16072150 0.18725296
v -0.12840528 0.17460483 0.18725296
v 0.12556334 0.20697256 0.11814321
v 0.12556334 -0.19308923 0.11814321
v -0.16395766 -0.20001013 0.13581746
v -0.08758918 -0.15315224 0.20730930
v 0.41505304 -0.14731109 0.17255506
v 0.41505304 0.16119442 0.17255506
v 0.45785674 -0.21880602 0.00000000
v 0.09740316 -0.18721029 0.14036570
v -0.22516614 0.18906516 0.13140753
v 0.37498817 -0.14757130 0.19332625
v 0.30429034 -0.14644082 0.03167973
v -0.17641529 0.20733362 0.11385338
v -0.11858726 -0.19523687 0.11361683
v 0.34399007 -0.01380862 0.21910288
v 0.34399007 0.02769197 0.21910288
v -0.41163998 -0.18599924 0.10233000
v 0.24429214 -0.16173941 0.20119167
v 0.34248242 -0.03597634 0.22009586
v -0.33819289 -0.20866025 0.00000000
v 0.32166226 0.19931687 0.11949215
v -0.16826142 -0.16711400 0.16502738
v -0.16826142 0.18099733 0.16502738
v -0.20960963 -0.17334404 0.14098198
v -0.14876628 0.17677145 0.17551008
v 0.18676151 0.16862253 0.21992950
v 0.18676151 -0.15473920 0.21992950
v 0.21624154 -0.15566016 0.21714292
v -0.11860806 -0.19542663 0.11344658
v -0.31191072 -0.13326930 0.00000000
v -0.21010519 0.20575925 0.11376019
v 0.10360604 0.16856455 0.22285646
v 0.10360604 -0.15468122 0.22285646
v 0.43490823 -0.14085724 0.00000000
v 0.12552696 0.16799114 0.22173090
v 0.12552696 -0.15410778 0.22173090
v 0.14290928 0.20528346 0.11850322
v 0.14290928 -0.19140011 0.11850322
v -0.08408858 0.16602451 0.20861108
v 0.38478539 -0.14702671 0.18694780
v 0.38478539 0.16091004 0.18694780
v 0.11106082 0.17335103 0.21338682
v 0.01918285 -0.15723294 0.21815893
v -0.21556190 -0.19278191 0.11083887
v -0.10843528 -0.16716751 0.19720947
v 0.44594697 0.16307676 0.16027392
f 906 37 277
f 221 952 1199
f 122 1199 952
f 952 853 122
f 896 160 1362
f 277 160 120
f 1210 571 120
f 708 552 142
f 896 1210 120
f 896 120 160
f 906 277 120
f 1199 688 823
f 120 571 552
f 906 552 1129
f 552 906 120
f 142 640 904
f 640 142 571
f 362 729 1216
f 786 419 362
f 1216 492 268
f 1214 1216 729
f 729 362 419
f 122 1066 688
f 952 507 968
f 1210 221 923
f 923 416 292
f 1210 923 292
f 853 952 1343
f 853 1066 122
f 1066 853 1104
f 853 1343 1104
f 1199 122 688
f 688 592 102
f 362 1378 786
f 107 688 1066
f 592 688 107
f 592 416 102
f 102 416 923
f 721 102 221
f 823 221 1199
f 923 221 102
f 221 823 721
f 102 721 823
f 102 823 688
f 906 966 37
f 268 492 961
f 492 81 961
f 1166 836 81
f 836 48 81
f 1166 81 492
f 836 906 657
f 552 708 1129
f 160 277 1362
f 37 1362 277
f 1362 37 966
f 961 81 48
f 906 830 966
f 1204 873 231
f 452 985 1306
f 303 80 545
f 255 605 992
f 1266 136 725
f 1219 803 1202
f 986 2 803
f 1320 649 2
f 1268 568 649
f 1247 657 906
f 1378 268 48
f 1171 497 779
f 904 1171 779
f 904 779 708
f 1247 779 657
f 1129 1247 906
f 1247 1129 708
f 142 552 571
f 142 904 708
f 779 1247 708
f 507 1276 968
f 786 1378 1171
f 1171 1378 497
f 497 48 657
f 497 1378 48
f 779 497 657
f 657 48 836
f 362 1216 268
f 961 48 268
f 1378 362 268
f 467 1332 192
f 1260 1138 1092
f 1260 1092 521
f 369 521 1092
f 1308 316 162
f 162 316 357
f 245 357 316
f 357 245 499
f 114 499 147
f 147 499 245
f 316 1308 1037
f 1138 585 1173
f 192 704 467
f 704 134 1134
f 794 745 114
f 745 794 999
f 165 5 147
f 5 165 1134
f 1134 134 836
f 114 147 794
f 118 319 537
f 836 118 537
f 673 1359 948
f 636 398 132
f 398 636 131
f 389 117 976
f 976 1102 389
f 338 976 972
f 948 1359 422
f 1350 1359 117
f 538 1359 1350
f 502 1359 538
f 422 1359 502
f 118 836 1164
f 1359 972 976
f 1359 673 1298
f 972 1359 1298
f 1102 976 893
f 893 976 338
f 976 117 1359
f 1200 1173 1276
f 1276 1173 585
f 521 369 728
f 585 1138 1260
f 786 1104 419
f 1362 1336 221
f 571 292 416
f 896 221 1210
f 416 640 571
f 592 640 416
f 640 107 904
f 107 640 592
f 904 1066 1171
f 786 1066 1104
f 1066 786 1171
f 1362 221 896
f 1104 1343 419
f 1343 729 419
f 287 1214 1343
f 1343 1214 729
f 287 1343 866
f 866 1343 952
f 866 952 171
f 952 968 171
f 1276 840 968
f 1276 507 1200
f 263 165 147
f 319 118 1164
f 794 537 319
f 999 794 319
f 794 5 537
f 1134 836 5
f 836 537 5
f 794 147 5
f 134 704 192
f 704 1134 165
f 263 704 165
f 477 568 1268
f 1037 1308 467
f 1037 467 704
f 704 263 1037
f 245 316 1037
f 263 245 1037
f 263 147 245
f 1066 904 107
f 292 571 1210
f 1362 966 1336
f 1202 783 401
f 1334 24 151
f 24 934 151
f 151 934 1367
f 124 873 353
f 783 1202 803
f 934 783 1367
f 803 1367 783
f 1367 803 2
f 136 1202 401
f 401 783 934
f 24 124 934
f 124 353 934
f 934 353 401
f 696 1367 649
f 2 649 1367
f 653 599 344
f 401 725 136
f 725 401 353
f 1186 725 353
f 599 725 1186
f 873 344 1186
f 1334 682 967
f 1160 325 308
f 1191 325 1160
f 325 1191 1029
f 1160 1151 610
f 868 266 1280
f 80 266 868
f 610 1151 1280
f 610 32 631
f 303 17 41
f 454 1334 498
f 599 1186 344
f 1334 151 696
f 873 1204 344
f 653 889 830
f 889 653 344
f 353 873 1186
f 124 231 873
f 24 967 231
f 231 124 24
f 696 151 1367
f 967 24 1334
f 92 519 1069
f 92 1235 690
f 92 690 519
f 438 519 820
f 1376 820 690
f 270 1313 1376
f 690 820 519
f 1235 750 22
f 820 1376 1313
f 270 1376 22
f 1376 1235 22
f 1235 1376 690
f 1069 79 92
f 1109 477 1268
f 251 1235 92
f 1165 92 79
f 92 1165 251
f 1250 158 920
f 843 291 1299
f 920 1320 986
f 291 378 600
f 670 599 653
f 463 887 839
f 725 599 1266
f 1266 615 1219
f 986 615 920
f 1320 920 158
f 1320 158 463
f 477 1069 438
f 1109 1069 477
f 438 1069 519
f 670 906 39
f 337 378 291
f 308 33 1151
f 1322 251 337
f 615 986 1219
f 1268 463 1109
f 79 1069 1109
f 463 1268 1320
f 750 390 1291
f 390 251 1322
f 750 1235 251
f 390 750 251
f 80 1083 693
f 1029 999 319
f 631 114 745
f 631 499 114
f 198 498 965
f 255 1083 41
f 868 1280 1151
f 32 610 714
f 714 610 1280
f 631 1191 1160
f 610 631 1160
f 1191 999 1029
f 1083 80 41
f 255 714 1083
f 1105 1217 965
f 1306 985 282
f 80 250 545
f 1217 545 250
f 454 498 198
f 1217 1105 545
f 565 1313 270
f 395 565 452
f 1320 1268 649
f 477 1196 568
f 787 992 162
f 787 255 992
f 787 714 255
f 357 32 787
f 787 32 714
f 499 32 357
f 499 631 32
f 438 820 1196
f 1196 477 438
f 1313 565 395
f 787 162 357
f 80 303 41
f 344 1204 889
f 136 1266 1219
f 136 1219 1202
f 1219 986 803
f 986 1320 2
f 1191 745 999
f 631 745 1191
f 41 605 255
f 649 568 638
f 1329 498 1334
f 649 638 696
f 696 638 1334
f 638 1329 1334
f 1329 638 1270
f 1306 282 303
f 303 282 246
f 545 1306 303
f 565 985 452
f 682 1334 454
f 605 41 17
f 1280 266 693
f 1160 308 1151
f 1151 33 868
f 33 80 868
f 325 319 308
f 80 308 1164
f 1164 308 319
f 319 325 1029
f 80 33 308
f 1105 602 452
f 1313 395 820
f 17 303 246
f 965 498 1105
f 1117 395 452
f 820 395 1117
f 452 1306 1105
f 545 1105 1306
f 266 80 693
f 693 1083 1280
f 1280 1083 714
f 132 1101 636
f 602 1105 498
f 452 602 1117
f 820 1117 1196
f 1196 1117 1270
f 1270 1117 602
f 602 1329 1270
f 1329 602 498
f 1270 568 1196
f 568 1270 638
f 55 746 226
f 297 471 336
f 471 466 336
f 1205 933 471
f 1158 746 672
f 399 297 1132
f 471 297 399
f 919 1077 915
f 347 919 915
f 1158 672 1303
f 404 746 846
f 770 707 1311
f 1158 226 746
f 746 55 846
f 466 915 1077
f 297 336 821
f 1211 1132 335
f 1132 297 821
f 471 399 1205
f 399 1132 1205
f 1132 1211 578
f 1132 578 1205
f 1382 418 597
f 580 1254 1116
f 597 580 1116
f 1259 1154 1043
f 797 407 914
f 407 1001 914
f 1382 797 914
f 914 418 1382
f 914 1001 418
f 1154 797 1382
f 1154 1382 811
f 821 335 1132
f 1116 1382 597
f 980 1382 1116
f 526 1116 1254
f 1043 1154 811
f 387 811 1382
f 1116 526 980
f 1011 1382 980
f 64 980 526
f 1382 1011 387
f 980 64 1011
f 133 1011 64
f 1144 226 707
f 578 1144 770
f 1205 770 933
f 770 1194 933
f 133 471 1194
f 1311 133 1194
f 1348 1311 707
f 226 425 707
f 770 1311 1194
f 1194 471 933
f 707 770 1144
f 471 133 64
f 1311 387 1011
f 1348 811 387
f 387 1311 1348
f 1311 1011 133
f 811 1348 425
f 707 425 1348
f 1158 425 226
f 404 672 746
f 589 1303 672
f 233 7 1232
f 1211 1232 1021
f 335 821 919
f 821 336 919
f 226 1144 55
f 1021 55 1144
f 7 846 55
f 846 7 347
f 55 1021 7
f 1144 578 1021
f 1232 7 1021
f 471 64 526
f 1211 1021 578
f 7 233 347
f 1232 335 233
f 1211 335 1232
f 335 919 233
f 233 919 347
f 1077 919 336
f 466 1077 336
f 770 1205 578
f 1135 1113 218
f 274 501 1239
f 306 1113 1135
f 850 203 796
f 203 850 955
f 274 940 1009
f 940 1221 1009
f 667 796 604
f 1221 604 1009
f 604 1221 667
f 1135 174 1272
f 501 1286 234
f 218 955 850
f 955 218 1113
f 850 667 218
f 1135 218 667
f 940 1357 1221
f 1357 1283 1135
f 667 1357 1135
f 796 667 850
f 940 274 1283
f 1357 940 1283
f 241 1239 830
f 502 413 958
f 209 987 315
f 1061 765 423
f 762 958 377
f 413 377 958
f 241 830 185
f 453 241 185
f 80 689 382
f 733 241 453
f 733 382 241
f 174 274 1272
f 689 241 382
f 1181 241 759
f 759 241 377
f 689 377 241
f 762 377 689
f 689 224 762
f 397 915 466
f 466 471 397
f 397 471 1239
f 1046 879 475
f 1158 1303 1043
f 1158 1043 425
f 425 1043 811
f 172 797 1154
f 1001 723 418
f 1001 1335 723
f 1239 475 879
f 475 1239 471
f 471 526 1254
f 1254 475 471
f 1154 1259 172
f 580 1046 475
f 533 580 597
f 597 418 723
f 1312 1046 580
f 1312 533 1335
f 1046 1335 879
f 1335 1046 1312
f 533 1312 580
f 533 597 723
f 533 723 1335
f 1113 1124 955
f 1283 274 174
f 174 1135 1283
f 1357 667 1221
f 1272 306 1135
f 1239 1272 274
f 1024 421 971
f 241 306 1239
f 1272 1239 306
f 306 241 1181
f 1124 1181 1024
f 1259 1303 589
f 421 1024 1181
f 955 971 203
f 971 955 1024
f 1124 1024 955
f 1124 1113 1181
f 306 1181 1113
f 879 830 1239
f 1254 580 475
f 1043 1303 1259
f 1010 351 65
f 769 706 1145
f 1145 501 769
f 769 501 1193
f 706 769 1310
f 426 1157 225
f 1310 1193 351
f 225 706 426
f 769 1193 1310
f 351 392 65
f 758 65 392
f 501 197 593
f 812 1347 386
f 1310 386 1347
f 386 1310 1010
f 1310 351 1010
f 1310 1347 706
f 426 706 1347
f 1112 18 671
f 849 203 956
f 1112 849 956
f 1009 501 274
f 225 1145 706
f 65 981 1010
f 1381 1010 981
f 1010 1381 386
f 981 65 525
f 501 351 1193
f 351 501 392
f 460 1178 661
f 1145 225 54
f 661 1157 943
f 1157 661 601
f 501 939 676
f 601 661 1178
f 601 54 225
f 54 601 1178
f 225 1157 601
f 1178 197 54
f 54 501 1145
f 460 423 197
f 197 1178 460
f 501 54 197
f 593 197 423
f 836 372 906
f 1242 728 369
f 836 134 192
f 836 192 1332
f 1242 836 239
f 838 1299 906
f 838 1322 337
f 838 337 141
f 838 141 843
f 838 843 1299
f 1322 838 1291
f 239 728 1242
f 838 906 372
f 1291 390 1322
f 1291 838 372
f 21 368 202
f 131 21 398
f 1340 135 345
f 1340 636 1101
f 1340 1101 135
f 1340 345 484
f 1340 484 1384
f 676 1356 671
f 939 501 1009
f 501 676 1286
f 1222 939 1009
f 666 796 849
f 604 1222 1009
f 1222 604 666
f 1112 671 217
f 796 666 604
f 217 849 1112
f 666 849 217
f 1115 525 1255
f 1356 666 671
f 203 849 796
f 217 671 666
f 939 1356 676
f 1356 939 1222
f 671 1286 676
f 666 1356 1222
f 671 18 1286
f 377 501 234
f 943 1229 661
f 203 971 956
f 956 971 1023
f 1023 421 1237
f 1125 956 1023
f 1125 698 1112
f 698 18 1112
f 234 1286 1360
f 1074 1286 18
f 661 1229 460
f 1229 943 867
f 1125 1112 956
f 867 943 588
f 1258 588 1302
f 1258 522 588
f 943 1302 588
f 501 593 397
f 1255 579 1115
f 1044 1258 1302
f 1155 1258 1044
f 943 1157 1044
f 943 1044 1302
f 430 75 759
f 589 172 1259
f 1177 797 172
f 797 1177 407
f 501 397 1239
f 759 75 1237
f 75 1125 1237
f 759 1360 430
f 1074 430 1360
f 1360 759 234
f 1360 1286 1074
f 1347 812 426
f 430 1074 698
f 75 698 1125
f 234 759 377
f 421 1023 971
f 1237 1181 759
f 1181 1237 421
f 18 698 1074
f 698 75 430
f 1125 1023 1237
f 579 596 1115
f 1047 377 413
f 1148 579 1047
f 1047 413 1148
f 1148 1027 579
f 596 579 1027
f 1328 392 501
f 392 1328 758
f 758 525 65
f 296 1142 1209
f 1381 1115 596
f 377 1047 501
f 1258 1155 522
f 522 1155 1223
f 480 1027 1148
f 480 1381 1027
f 1155 1381 480
f 1381 1155 812
f 1381 596 1027
f 525 1115 981
f 1381 981 1115
f 1044 812 1155
f 1209 501 296
f 1157 426 1044
f 1044 426 812
f 480 1223 1155
f 812 386 1381
f 1255 1209 1142
f 1209 1255 450
f 579 1255 1142
f 1331 428 501
f 450 1331 1209
f 296 1047 1142
f 337 291 141
f 428 1328 501
f 450 1255 525
f 428 758 1328
f 758 428 450
f 525 758 450
f 1331 450 428
f 501 1209 1331
f 1047 579 1142
f 501 1047 296
f 393 798 83
f 1056 1226 1333
f 1336 587 489
f 1273 1262 191
f 916 286 138
f 675 1123 807
f 1123 916 1315
f 139 675 837
f 380 1253 1273
f 257 380 1358
f 798 257 773
f 1226 1056 659
f 105 111 915
f 1349 1072 593
f 1072 815 397
f 1152 659 1056
f 738 1152 593
f 103 738 655
f 1188 1035 485
f 1003 93 412
f 298 299 221
f 299 997 952
f 1185 1136 11
f 593 1056 1349
f 397 593 1072
f 1056 593 1152
f 593 655 738
f 655 485 103
f 485 1273 1188
f 412 952 1003
f 221 1336 298
f 952 221 299
f 1336 915 111
f 111 1240 1336
f 1136 973 410
f 256 178 609
f 178 1185 616
f 1226 1353 928
f 286 1273 1253
f 973 412 209
f 1262 139 1014
f 587 1220 427
f 1220 1336 1240
f 1353 1226 1243
f 1056 194 1349
f 256 909 393
f 397 987 227
f 397 227 433
f 397 535 987
f 397 433 683
f 397 683 1
f 397 1 947
f 397 815 535
f 397 947 105
f 1056 1176 194
f 1273 1361 1188
f 952 1041 1008
f 952 1008 1003
f 952 739 1041
f 952 771 822
f 952 822 1076
f 952 1076 739
f 952 997 771
f 485 472 51
f 485 705 472
f 485 1035 705
f 1243 1075 1353
f 11 616 1185
f 410 11 1136
f 609 909 256
f 616 609 178
f 928 628 1226
f 1253 534 286
f 209 740 973
f 1014 828 1262
f 427 449 587
f 1240 36 1220
f 915 397 105
f 659 1243 1226
f 1333 1179 1056
f 489 1000 1336
f 191 1361 1273
f 138 482 916
f 807 837 675
f 1315 911 1123
f 837 307 139
f 973 634 410
f 435 1369 400
f 152 1368 935
f 1203 784 804
f 935 1368 784
f 804 1368 3
f 1368 804 784
f 400 935 784
f 1203 400 784
f 958 935 352
f 935 400 352
f 695 648 1368
f 958 152 935
f 1369 352 400
f 422 1369 435
f 1187 352 1369
f 422 1187 1369
f 958 1187 502
f 422 502 1187
f 508 1277 1201
f 106 905 1067
f 795 249 184
f 232 293 944
f 1192 326 1028
f 637 958 1330
f 1330 1269 637
f 281 302 247
f 302 281 762
f 16 302 42
f 878 42 155
f 326 762 857
f 762 481 857
f 857 1028 326
f 1159 762 326
f 293 232 789
f 326 1192 1159
f 1159 611 762
f 611 31 715
f 42 878 16
f 302 16 247
f 958 695 152
f 352 1187 958
f 1203 435 400
f 648 3 1368
f 695 1368 152
f 814 30 550
f 27 342 125
f 342 27 617
f 603 27 125
f 1277 342 617
f 508 342 1277
f 550 139 1262
f 814 550 1262
f 1220 587 1336
f 286 814 1262
f 286 1262 1273
f 603 125 724
f 30 814 916
f 814 286 916
f 550 30 139
f 675 139 30
f 916 1123 30
f 675 30 1123
f 1273 1358 380
f 1358 773 257
f 773 83 798
f 83 256 393
f 785 1067 1170
f 944 897 232
f 897 184 249
f 897 944 184
f 293 789 417
f 572 417 789
f 639 591 417
f 572 639 417
f 106 639 905
f 639 106 591
f 1170 1067 905
f 485 51 103
f 1067 785 1103
f 420 1103 785
f 1103 420 1344
f 730 1344 420
f 1126 1344 1215
f 1215 1344 730
f 1126 186 1344
f 186 724 1344
f 603 724 186
f 332 1149 1256
f 76 182 415
f 209 1003 1008
f 1008 739 822
f 771 299 1000
f 243 932 449
f 449 324 979
f 1073 36 111
f 111 947 1
f 104 1012 1375
f 1256 447 332
f 616 410 381
f 447 1018 702
f 154 1365 1017
f 1365 154 988
f 1301 406 988
f 406 1301 309
f 1365 448 1017
f 1257 448 941
f 988 406 1365
f 406 309 841
f 406 841 1365
f 815 1156 1212
f 739 1076 822
f 771 997 299
f 299 298 1000
f 243 566 932
f 449 427 324
f 36 1240 111
f 111 105 947
f 1 683 433
f 433 227 987
f 987 535 815
f 995 309 1301
f 686 1218 95
f 1349 1176 1179
f 1375 628 928
f 1243 1152 103
f 472 1035 1361
f 1014 837 807
f 807 1315 138
f 366 57 534
f 534 380 798
f 798 909 616
f 1014 1139 755
f 771 489 243
f 86 1149 332
f 86 702 1289
f 1 433 987
f 1282 309 295
f 209 771 243
f 979 624 987
f 815 35 126
f 170 1224 51
f 51 331 1208
f 488 465 1372
f 755 381 209
f 243 979 987
f 815 126 1012
f 928 170 51
f 51 1208 641
f 1014 755 209
f 209 243 987
f 1107 815 1012
f 928 51 641
f 1371 1014 209
f 104 1107 1012
f 841 309 938
f 841 938 941
f 941 938 716
f 841 941 1365
f 941 716 1257
f 941 448 1365
f 716 1282 455
f 1257 716 455
f 938 1282 716
f 1282 938 309
f 1008 1041 739
f 1053 1282 295
f 1358 1053 295
f 1282 1053 900
f 371 1017 701
f 258 701 1288
f 900 455 1282
f 701 87 1288
f 104 1375 928
f 928 1371 104
f 412 93 209
f 1262 1371 641
f 1026 1156 741
f 1026 1212 1156
f 1220 624 979
f 1220 36 1073
f 1220 1073 624
f 1026 741 1107
f 1026 1162 1212
f 1026 1107 104
f 1262 828 1371
f 286 366 755
f 286 736 366
f 973 415 1233
f 973 1233 182
f 973 740 415
f 286 755 1139
f 1226 1375 1012
f 587 243 489
f 587 449 932
f 1220 324 427
f 1026 315 1162
f 1226 126 35
f 1026 686 315
f 1026 104 95
f 973 1042 381
f 973 381 634
f 973 182 76
f 973 76 1042
f 1226 628 238
f 587 932 566
f 1226 1012 126
f 1226 238 1375
f 587 566 243
f 1056 1179 1176
f 1353 570 170
f 1353 1339 928
f 1353 1224 570
f 1353 170 1339
f 1220 979 324
f 286 534 439
f 286 439 57
f 286 57 736
f 57 439 534
f 170 570 1224
f 1243 659 1152
f 1152 738 103
f 472 705 1035
f 1035 1188 1361
f 1371 828 1014
f 1014 307 837
f 807 911 1315
f 1315 482 138
f 366 736 57
f 928 1339 170
f 534 1253 380
f 380 257 798
f 798 393 909
f 909 609 616
f 616 11 410
f 410 634 381
f 381 1042 76
f 182 1233 415
f 415 740 209
f 209 93 1003
f 139 307 1014
f 1226 35 1333
f 1353 1075 1224
f 1336 1000 298
f 1262 641 1208
f 1262 1208 331
f 1262 331 191
f 1026 95 1218
f 1026 74 686
f 1026 1218 74
f 286 1139 921
f 695 958 637
f 1123 911 807
f 916 482 1315
f 286 921 138
f 815 741 1156
f 686 74 1218
f 1107 741 815
f 815 1072 1349
f 1349 194 1176
f 1375 238 628
f 1236 1005 1150
f 123 614 1198
f 190 614 925
f 852 614 123
f 614 852 925
f 852 1300 925
f 487 213 424
f 213 622 1300
f 622 213 216
f 424 1300 852
f 1005 782 1054
f 1225 1198 678
f 1005 1054 894
f 1150 894 487
f 1054 895 894
f 895 1054 230
f 230 1054 782
f 538 577 765
f 249 577 538
f 159 249 538
f 63 159 538
f 63 121 159
f 1038 720 824
f 924 913 304
f 476 996 577
f 304 996 476
f 678 230 1225
f 101 720 913
f 824 1198 1225
f 598 341 1038
f 720 341 913
f 913 341 996
f 913 924 101
f 709 143 551
f 341 720 1038
f 720 101 824
f 1038 824 1225
f 824 101 687
f 687 1198 824
f 765 577 996
f 996 304 913
f 230 678 190
f 614 678 1198
f 678 614 190
f 551 143 572
f 730 363 1213
f 363 420 785
f 1379 49 269
f 173 635 1350
f 635 173 49
f 1170 778 496
f 905 778 1170
f 1246 778 709
f 1130 674 1246
f 1246 709 1130
f 1213 1215 730
f 143 709 905
f 778 905 709
f 778 1246 656
f 1246 275 656
f 1379 785 1170
f 1170 496 1379
f 496 656 49
f 496 49 1379
f 778 656 496
f 275 635 656
f 538 349 63
f 232 121 789
f 121 232 897
f 897 159 121
f 159 897 249
f 121 572 789
f 143 639 572
f 121 140 953
f 63 140 121
f 349 140 63
f 140 349 953
f 417 101 924
f 551 953 1130
f 572 121 551
f 953 551 121
f 540 953 349
f 538 540 349
f 540 1130 953
f 143 905 639
f 363 730 420
f 1213 269 491
f 970 915 966
f 1266 599 1082
f 240 920 615
f 1015 240 615
f 378 839 887
f 839 1109 463
f 1109 839 79
f 839 378 1165
f 378 251 1165
f 887 463 158
f 79 839 1165
f 670 1082 599
f 966 915 1336
f 966 830 970
f 1204 967 889
f 967 1204 231
f 198 250 967
f 250 965 1217
f 250 198 965
f 967 454 198
f 967 682 454
f 598 230 996
f 1015 615 1266
f 843 141 291
f 378 337 251
f 1190 291 600
f 1299 39 906
f 39 1299 291
f 378 887 600
f 158 1250 887
f 291 1190 39
f 39 1190 1015
f 1015 1190 240
f 996 423 765
f 906 670 653
f 906 653 830
f 600 1250 240
f 1250 600 887
f 920 240 1250
f 1190 600 240
f 1082 1015 1266
f 39 1015 1082
f 1082 670 39
f 190 1300 622
f 487 724 125
f 724 424 1344
f 895 1292 894
f 487 894 1292
f 1292 895 230
f 216 1292 230
f 1292 216 213
f 213 1300 424
f 230 190 622
f 190 925 1300
f 487 1292 213
f 230 622 216
f 341 598 996
f 598 1038 1225
f 598 1225 230
f 1198 687 123
f 687 101 591
f 1067 123 687
f 687 106 1067
f 687 591 106
f 101 417 591
f 342 1236 1150
f 593 423 996
f 944 924 304
f 924 944 293
f 924 293 417
f 304 795 184
f 944 304 184
f 476 249 795
f 577 249 476
f 795 304 476
f 852 1344 424
f 275 1246 674
f 424 724 487
f 894 1150 1005
f 125 1150 487
f 342 1150 125
f 508 1236 342
f 1236 782 1005
f 852 1103 1344
f 1067 852 123
f 852 1067 1103
f 1108 694 462
f 1016 137 1189
f 1016 435 858
f 502 538 413
f 874 948 422
f 874 435 1016
f 38 874 1016
f 673 874 38
f 435 874 422
f 1016 858 137
f 157 694 137
f 38 1016 1189
f 1108 78 694
f 462 694 157
f 451 762 281
f 984 564 451
f 435 1203 804
f 196 804 3
f 1267 3 648
f 1267 567 478
f 1195 478 567
f 788 697 878
f 694 290 137
f 1070 478 437
f 1070 91 78
f 1267 1108 462
f 1108 1267 478
f 833 91 1234
f 91 833 301
f 694 78 301
f 1070 78 1108
f 157 1267 462
f 1298 290 972
f 788 878 155
f 290 338 972
f 338 301 893
f 301 338 290
f 290 1189 137
f 38 1298 673
f 1298 38 290
f 157 137 858
f 290 694 301
f 1189 290 38
f 874 673 948
f 762 715 155
f 632 1159 1192
f 611 1159 632
f 762 155 42
f 281 984 451
f 564 1314 394
f 394 451 564
f 1314 564 1169
f 394 1314 819
f 1118 451 394
f 451 958 762
f 715 762 611
f 451 1118 958
f 819 1195 1118
f 394 819 1118
f 1195 1269 1118
f 1269 958 1118
f 958 1269 1330
f 1269 1195 567
f 567 637 1269
f 648 637 567
f 648 695 637
f 1267 648 567
f 715 788 155
f 788 358 697
f 31 358 788
f 31 788 715
f 358 31 500
f 632 500 31
f 500 632 113
f 113 632 744
f 478 1195 437
f 819 437 1195
f 91 1070 518
f 196 3 1267
f 762 42 302
f 435 804 858
f 858 804 196
f 1192 998 744
f 632 1192 744
f 1192 1028 998
f 1028 857 998
f 31 611 632
f 703 135 1101
f 1261 520 1093
f 520 368 1093
f 520 202 368
f 1261 1093 1137
f 358 183 697
f 183 358 1265
f 1265 358 500
f 148 1265 500
f 744 793 113
f 183 1265 1036
f 1261 1137 586
f 135 273 345
f 135 703 1133
f 793 744 998
f 345 273 484
f 119 1384 484
f 166 148 6
f 6 1133 166
f 536 273 6
f 484 273 119
f 1384 119 481
f 479 1350 1126
f 49 656 635
f 363 269 1213
f 1379 363 785
f 1379 269 363
f 49 193 269
f 269 193 491
f 193 1350 479
f 193 173 1350
f 491 193 479
f 173 193 49
f 113 793 148
f 635 275 1350
f 674 538 275
f 538 1350 275
f 1130 540 674
f 540 538 674
f 551 1130 709
f 1172 1201 1277
f 586 1137 1172
f 1172 1277 586
f 389 749 117
f 1267 157 196
f 1070 1108 478
f 819 518 437
f 1102 893 833
f 301 833 893
f 91 301 78
f 1377 819 1314
f 1377 691 819
f 389 833 749
f 833 389 1102
f 858 196 157
f 1234 749 833
f 518 1070 437
f 1234 691 1377
f 91 691 1234
f 91 518 691
f 1169 1377 1314
f 819 691 518
f 1377 1169 23
f 1377 23 1234
f 23 749 1234
f 703 166 1133
f 500 113 148
f 119 536 857
f 273 536 119
f 857 481 119
f 793 857 536
f 793 998 857
f 793 536 6
f 1133 6 273
f 793 6 148
f 135 1133 273
f 423 276 1061
f 264 166 703
f 264 148 166
f 1036 1101 183
f 1036 703 1101
f 703 1036 264
f 264 1036 1265
f 264 1265 148
f 1061 413 538
f 765 1061 538
f 574 222 861
f 517 1228 327
f 494 510 321
f 951 510 494
f 321 289 494
f 327 431 517
f 1055 289 201
f 289 1055 494
f 517 431 201
f 553 524 280
f 524 861 222
f 929 918 321
f 222 574 1346
f 201 403 951
f 144 403 864
f 951 403 144
f 47 1346 574
f 99 1025 222
f 524 222 1025
f 222 1346 99
f 1346 1153 99
f 144 364 808
f 321 884 929
f 1245 175 844
f 802 1111 844
f 627 844 175
f 175 1245 899
f 899 1245 810
f 1279 927 129
f 802 1241 1111
f 1207 1279 129
f 884 1089 929
f 510 1207 884
f 403 791 864
f 818 1228 212
f 1341 553 280
f 505 19 1341
f 505 1341 1228
f 1228 1341 280
f 918 517 289
f 1228 517 918
f 1228 280 327
f 517 201 289
f 212 918 929
f 108 553 97
f 951 1055 201
f 524 215 280
f 215 524 530
f 215 530 431
f 1127 863 813
f 608 1127 813
f 295 813 863
f 412 973 295
f 295 995 813
f 995 295 309
f 431 530 791
f 429 47 574
f 515 19 164
f 164 737 361
f 1062 429 861
f 861 429 574
f 429 1062 108
f 737 164 19
f 1341 19 515
f 97 1341 515
f 1341 97 553
f 265 144 808
f 144 864 364
f 864 530 364
f 265 951 144
f 660 409 1153
f 99 265 808
f 409 265 1153
f 660 1153 842
f 1346 47 1153
f 47 842 1153
f 265 99 1153
f 844 627 802
f 1025 808 364
f 364 524 1025
f 808 1025 99
f 327 280 215
f 327 215 431
f 403 201 791
f 864 791 530
f 524 364 530
f 791 201 431
f 1079 1057 583
f 951 1119 1096
f 1096 1119 1079
f 1119 1057 1079
f 1096 1079 1279
f 544 627 1057
f 1057 627 175
f 544 863 627
f 863 802 627
f 512 150 685
f 1057 175 583
f 1119 951 544
f 72 187 512
f 150 187 1184
f 187 150 512
f 512 685 712
f 187 72 235
f 1033 737 505
f 505 737 19
f 1033 505 818
f 818 505 1228
f 1279 1079 927
f 1207 951 664
f 1207 129 884
f 712 59 512
f 360 1327 59
f 918 212 1228
f 861 524 1062
f 1062 524 553
f 409 951 265
f 494 1055 951
f 884 129 1089
f 951 1207 510
f 927 1079 583
f 289 321 918
f 1327 29 59
f 1363 1327 1304
f 510 884 321
f 1325 1087 253
f 1363 1325 29
f 1325 1363 1087
f 863 1241 802
f 544 951 863
f 664 1279 1207
f 253 1089 129
f 717 854 899
f 899 583 175
f 854 1325 253
f 717 1325 854
f 1033 818 1363
f 1363 818 1087
f 212 1087 818
f 854 927 583
f 927 854 253
f 1087 929 1089
f 583 899 854
f 929 1087 212
f 927 253 129
f 72 1121 1245
f 1241 340 1111
f 72 1111 340
f 340 619 72
f 1111 72 844
f 72 1245 844
f 1121 810 1245
f 59 1121 72
f 1241 1127 608
f 717 29 1325
f 1121 59 810
f 810 29 717
f 1363 1304 1033
f 29 1327 1363
f 1087 1089 253
f 813 995 608
f 995 619 608
f 619 340 608
f 608 340 1241
f 553 108 1062
f 278 1184 187
f 278 187 235
f 59 712 360
f 995 235 619
f 278 235 995
f 235 72 619
f 810 717 899
f 512 59 72
f 29 810 59
f 67 310 576
f 67 772 469
f 67 576 581
f 763 67 581
f 310 800 576
f 576 329 780
f 800 329 576
f 329 374 14
f 800 284 374
f 800 374 329
f 67 469 699
f 374 284 1296
f 699 310 67
f 1172 742 310
f 310 699 1172
f 89 9 800
f 9 89 742
f 800 310 89
f 9 284 800
f 680 131 284
f 9 680 284
f 89 310 742
f 131 625 727
f 594 1275 323
f 556 594 323
f 323 1275 922
f 625 323 922
f 323 625 556
f 131 556 625
f 922 1275 1049
f 1049 229 581
f 1275 1231 1049
f 625 922 727
f 699 469 1172
f 14 922 1049
f 229 1049 1231
f 727 922 14
f 581 780 1049
f 727 14 1296
f 1296 131 727
f 131 1296 284
f 329 14 1049
f 1049 780 329
f 14 374 1296
f 1316 527 963
f 541 181 1231
f 761 181 541
f 761 677 1147
f 1053 1147 677
f 1285 1147 1053
f 350 1285 1053
f 1053 1081 350
f 761 569 1345
f 73 590 876
f 527 1316 45
f 772 885 1004
f 1149 590 73
f 84 560 73
f 548 527 45
f 527 548 563
f 527 70 963
f 563 560 527
f 590 375 876
f 1316 963 983
f 974 606 1034
f 375 963 70
f 229 662 835
f 1201 1172 469
f 1137 1093 9
f 742 1172 1137
f 9 742 1137
f 680 9 1093
f 680 1093 368
f 1275 594 761
f 761 594 569
f 1231 181 662
f 662 229 1231
f 1275 541 1231
f 668 1201 469
f 508 1201 668
f 885 772 763
f 772 1004 1337
f 668 772 1337
f 772 668 469
f 835 581 229
f 835 763 581
f 763 835 885
f 636 110 751
f 636 1307 145
f 719 636 267
f 1340 1384 481
f 21 131 368
f 1340 481 189
f 1340 189 882
f 1340 882 532
f 532 636 1340
f 636 936 110
f 936 636 532
f 464 1345 131
f 636 751 267
f 636 719 1307
f 145 131 636
f 131 145 891
f 1242 816 1248
f 169 1242 1248
f 1242 208 836
f 1242 195 816
f 1242 169 208
f 890 146 1242
f 1017 685 154
f 737 1033 361
f 1033 25 361
f 25 1033 1304
f 1304 1288 25
f 1327 1288 1304
f 988 150 1184
f 150 988 685
f 154 685 988
f 371 360 712
f 360 371 1140
f 1242 204 890
f 360 258 1327
f 685 1017 712
f 712 1017 371
f 258 360 1140
f 1327 258 1288
f 1184 1301 988
f 1301 1184 278
f 1301 278 995
f 660 244 224
f 464 1274 646
f 549 96 46
f 646 1345 464
f 1274 848 748
f 848 1317 46
f 442 1274 748
f 46 96 848
f 1274 464 52
f 52 848 1274
f 630 52 464
f 1317 848 207
f 474 658 900
f 646 1274 442
f 442 1345 646
f 848 96 748
f 780 581 576
f 131 680 368
f 67 763 772
f 594 556 569
f 1345 569 131
f 556 131 569
f 541 1275 761
f 658 875 1386
f 254 528 69
f 1386 900 658
f 528 549 46
f 549 528 870
f 1386 875 376
f 964 376 69
f 964 1317 207
f 528 1317 964
f 875 69 376
f 1317 528 46
f 1279 664 1096
f 528 254 870
f 254 69 474
f 964 69 528
f 69 85 474
f 85 69 875
f 85 875 658
f 474 85 658
f 1053 1345 900
f 1345 474 900
f 1264 773 1251
f 1386 244 660
f 244 762 224
f 827 655 1002
f 1002 1106 827
f 509 1002 655
f 973 483 256
f 1251 1358 77
f 1358 83 1013
f 1251 773 1358
f 77 1358 1013
f 1288 1197 1045
f 83 773 168
f 1013 168 26
f 1013 83 168
f 1264 1251 77
f 1013 26 77
f 77 26 1264
f 26 168 1264
f 1264 168 773
f 83 1358 256
f 412 488 734
f 50 546 237
f 97 486 108
f 429 1386 47
f 486 237 766
f 237 862 766
f 237 546 862
f 429 179 1386
f 862 546 1386
f 766 862 408
f 1386 408 862
f 546 50 94
f 412 465 488
f 179 766 408
f 1386 179 408
f 900 546 94
f 50 515 645
f 645 654 94
f 900 654 1197
f 654 900 94
f 1045 654 645
f 645 94 50
f 654 1045 1197
f 543 626 962
f 539 1085 713
f 713 1085 1321
f 689 1321 1085
f 1085 56 689
f 1293 56 1085
f 409 660 951
f 863 951 295
f 465 56 977
f 295 56 412
f 56 465 412
f 295 951 56
f 626 543 1058
f 1293 1120 543
f 1120 1058 543
f 1078 1095 1278
f 1293 665 1095
f 1278 665 1206
f 633 1085 865
f 531 539 652
f 652 713 1040
f 989 1293 1085
f 167 116 1281
f 1358 295 973
f 1358 973 256
f 485 1071 1358
f 485 782 1071
f 996 655 593
f 167 509 230
f 1002 509 167
f 1358 1273 485
f 1106 167 1281
f 230 116 167
f 766 179 486
f 116 655 827
f 116 827 1281
f 485 655 116
f 485 116 230
f 230 782 485
f 1281 827 1106
f 167 1106 1002
f 734 952 412
f 689 56 951
f 928 641 1371
f 381 415 209
f 209 822 771
f 1371 209 315
f 624 111 987
f 987 1162 315
f 815 1333 35
f 1224 103 51
f 51 191 331
f 1014 921 1139
f 755 366 381
f 366 798 381
f 465 405 1149
f 1351 402 405
f 58 405 402
f 66 1018 447
f 1256 829 942
f 1294 405 58
f 1149 405 1294
f 1294 58 829
f 405 465 1351
f 892 402 1351
f 771 1000 489
f 987 815 1212
f 315 686 95
f 815 1349 1179
f 1075 1243 103
f 51 472 1361
f 1014 807 138
f 366 534 798
f 798 616 381
f 381 76 415
f 209 1008 822
f 892 942 402
f 243 449 979
f 624 1073 111
f 111 1 987
f 987 1212 1162
f 315 95 104
f 815 1179 1333
f 1224 1075 103
f 51 1361 191
f 1014 138 921
f 1045 25 1288
f 87 701 448
f 448 1257 455
f 1197 1288 87
f 900 1197 87
f 701 258 1140
f 701 1140 371
f 900 87 455
f 1017 448 701
f 361 1045 645
f 1045 361 25
f 448 455 87
f 645 164 361
f 515 164 645
f 660 842 1386
f 842 47 1386
f 429 108 486
f 900 1386 546
f 515 50 97
f 50 486 97
f 237 486 50
f 486 179 429
f 98 590 514
f 942 829 402
f 892 66 942
f 447 942 66
f 1256 1294 829
f 1294 1256 1149
f 447 1256 942
f 829 58 402
f 465 1149 651
f 1149 529 514
f 98 109 590
f 1366 665 1293
f 590 1149 514
f 1371 315 104
f 259 702 1141
f 447 86 332
f 86 447 702
f 1289 1149 86
f 702 259 1289
f 1018 370 702
f 702 370 1141
f 652 1040 365
f 288 989 200
f 516 200 432
f 865 1085 539
f 539 531 865
f 554 279 523
f 860 523 223
f 223 590 860
f 590 223 871
f 633 200 1085
f 652 365 531
f 989 288 495
f 523 860 1063
f 871 223 348
f 523 348 223
f 1040 1380 348
f 633 865 790
f 1321 346 1040
f 1040 348 365
f 1040 713 1321
f 346 1380 1040
f 871 1380 590
f 1227 516 328
f 883 930 1088
f 511 883 1206
f 128 1088 252
f 320 930 883
f 817 211 1227
f 20 506 1342
f 506 1227 1342
f 1342 1227 279
f 279 1227 328
f 917 288 516
f 590 1380 346
f 516 288 200
f 211 917 1227
f 930 320 917
f 516 1227 917
f 511 1293 495
f 495 320 511
f 989 495 1293
f 320 495 288
f 279 554 1342
f 328 516 432
f 1018 711 370
f 1063 109 554
f 1342 98 514
f 529 1149 1032
f 1032 1149 1305
f 1305 1289 1326
f 1289 1305 1149
f 888 66 892
f 359 370 711
f 888 1018 66
f 1018 888 711
f 1063 590 109
f 370 359 1141
f 1141 359 259
f 1326 259 359
f 1326 1289 259
f 346 1321 689
f 224 689 951
f 660 224 951
f 1241 863 1127
f 1119 544 1057
f 1096 664 951
f 523 214 531
f 1380 871 348
f 523 531 348
f 328 214 279
f 328 432 214
f 633 790 200
f 865 531 790
f 531 365 348
f 790 432 200
f 432 790 531
f 1085 200 989
f 1206 128 1278
f 214 523 279
f 214 432 531
f 1351 465 977
f 554 98 1342
f 590 1063 860
f 98 554 109
f 20 514 529
f 514 20 1342
f 346 689 590
f 513 711 888
f 1120 1293 1095
f 1095 1078 1120
f 1058 1120 1078
f 1058 176 626
f 817 1032 1364
f 1058 584 176
f 1078 584 1058
f 711 513 28
f 188 71 513
f 888 188 513
f 543 56 1293
f 892 188 888
f 513 1122 809
f 529 1032 506
f 506 20 529
f 1122 71 1244
f 236 892 1351
f 28 718 1324
f 1032 817 506
f 506 817 1227
f 1278 926 1078
f 288 917 320
f 1206 883 128
f 1364 359 711
f 359 1364 1326
f 917 211 930
f 1063 554 523
f 713 652 539
f 883 1088 128
f 1366 1206 665
f 1293 511 1366
f 1206 1366 511
f 926 584 1078
f 1364 1305 1326
f 28 1364 711
f 511 320 883
f 1324 252 1090
f 1364 28 1324
f 1122 513 71
f 962 56 543
f 595 962 626
f 665 1278 1095
f 71 845 1244
f 855 926 252
f 926 855 584
f 1090 930 211
f 930 1090 1088
f 926 128 252
f 339 977 1110
f 71 1110 845
f 1110 56 595
f 339 71 620
f 1110 71 339
f 211 817 1090
f 1122 1244 809
f 962 595 56
f 845 626 176
f 1244 845 176
f 1110 595 845
f 626 845 595
f 176 898 1244
f 898 809 1244
f 1278 128 926
f 56 1110 977
f 71 236 620
f 1305 1364 1032
f 1090 1364 1324
f 977 607 1351
f 1351 607 620
f 339 620 607
f 607 977 339
f 892 236 188
f 28 809 718
f 1351 620 236
f 71 188 236
f 70 876 375
f 809 898 718
f 809 28 513
f 718 898 855
f 898 584 855
f 584 898 176
f 855 252 1324
f 718 855 1324
f 1088 1090 252
f 1364 1090 817
f 650 1126 132
f 1143 461 650
f 1126 1213 491
f 1126 1215 1213
f 479 1126 491
f 23 1169 749
f 117 749 1169
f 1169 564 984
f 281 1169 984
f 1169 281 317
f 21 115 132
f 1168 650 461
f 117 1169 559
f 1101 132 1350
f 878 117 559
f 1101 117 878
f 1350 117 1101
f 115 650 132
f 1126 1350 132
f 617 1290 1277
f 617 732 8
f 617 8 684
f 355 473 684
f 1174 163 732
f 1168 461 1174
f 1297 115 473
f 684 149 355
f 461 149 163
f 8 163 149
f 1174 461 163
f 27 1174 732
f 732 163 8
f 149 684 8
f 617 684 21
f 473 355 1297
f 115 1143 650
f 1143 115 1297
f 1143 355 149
f 461 1143 149
f 1143 1297 355
f 684 473 21
f 115 21 473
f 186 1126 1168
f 1126 650 1168
f 444 334 877
f 1094 710 967
f 931 334 967
f 967 444 356
f 444 967 334
f 889 356 185
f 889 185 830
f 889 967 356
f 382 436 411
f 733 453 1128
f 733 199 382
f 967 80 1180
f 993 199 733
f 967 886 975
f 886 967 1180
f 967 975 1094
f 967 242 931
f 334 1100 877
f 877 1100 343
f 931 1100 334
f 1238 726 100
f 726 1238 647
f 1290 202 520
f 617 27 732
f 559 753 878
f 753 559 317
f 1374 281 247
f 317 559 1169
f 317 281 1374
f 16 753 247
f 1374 247 753
f 1374 753 317
f 617 21 202
f 1168 603 186
f 1261 1290 520
f 586 1277 1290
f 586 1290 1261
f 202 1290 617
f 753 16 878
f 132 398 21
f 655 996 509
f 230 509 996
f 80 967 250
f 1372 313 573
f 1086 747 204
f 205 747 1086
f 563 548 205
f 563 1086 73
f 205 1086 563
f 651 73 1086
f 333 322 651
f 651 322 313
f 1086 333 651
f 651 313 1372
f 563 73 560
f 728 840 521
f 1260 521 840
f 585 840 1276
f 585 1260 840
f 968 840 731
f 171 968 731
f 1167 171 1175
f 1175 731 851
f 840 239 851
f 1167 851 1166
f 504 396 1354
f 969 1354 272
f 722 573 969
f 84 70 560
f 272 722 969
f 722 272 1372
f 272 127 978
f 978 1372 272
f 1080 456 1354
f 1287 1080 681
f 1080 1354 396
f 1175 851 1167
f 1052 978 777
f 777 978 127
f 272 1354 456
f 396 504 322
f 1372 1052 4
f 1052 1372 978
f 722 1372 573
f 204 333 1086
f 333 443 322
f 752 246 1373
f 287 866 1167
f 1167 1166 287
f 1383 1291 372
f 1383 270 1291
f 1091 752 558
f 318 558 752
f 558 318 270
f 318 1373 282
f 318 752 1373
f 282 1373 246
f 287 1166 1214
f 246 752 17
f 282 985 270
f 318 282 270
f 565 270 985
f 22 750 1291
f 1291 270 22
f 878 697 183
f 878 183 1101
f 1174 27 603
f 1168 1174 603
f 1383 372 1332
f 866 171 1167
f 171 731 1175
f 731 840 851
f 1166 851 239
f 239 836 1166
f 728 239 840
f 1383 558 270
f 1383 1091 558
f 1383 1332 1091
f 1332 372 836
f 388 312 206
f 467 1308 1332
f 1091 1332 1308
f 162 1091 1308
f 1091 162 992
f 752 1091 605
f 752 605 17
f 605 1091 992
f 1166 1216 1214
f 492 1216 1166
f 970 1039 994
f 859 776 458
f 669 831 493
f 831 1387 493
f 776 457 1099
f 669 493 859
f 493 776 859
f 493 903 776
f 354 1099 457
f 903 1387 260
f 970 561 354
f 776 1099 458
f 994 1039 260
f 1039 457 260
f 994 260 1387
f 970 354 1039
f 457 1039 354
f 458 1099 561
f 1099 354 561
f 1177 1019 902
f 915 970 994
f 831 994 1387
f 458 561 1019
f 970 1019 561
f 757 1050 672
f 757 672 404
f 404 859 757
f 1050 458 1319
f 1019 1319 458
f 846 831 669
f 669 859 404
f 757 859 458
f 757 458 1050
f 831 347 994
f 902 407 1177
f 1335 830 879
f 1001 161 970
f 830 1335 970
f 970 1335 1001
f 902 970 161
f 407 902 161
f 970 902 1019
f 407 161 1001
f 846 669 404
f 480 1352 901
f 385 1061 276
f 1061 1148 413
f 760 912 1352
f 1061 385 912
f 912 760 1061
f 1148 760 480
f 912 1161 1352
f 385 606 912
f 1020 1223 901
f 1161 901 1352
f 901 1223 480
f 606 1161 912
f 901 1161 1020
f 1352 480 760
f 760 1148 1061
f 974 1161 606
f 276 423 459
f 974 276 562
f 459 562 276
f 385 1034 606
f 276 1034 385
f 1161 974 562
f 347 915 994
f 1318 588 522
f 459 1051 1318
f 588 1318 1051
f 276 974 1034
f 867 588 1051
f 867 1051 1229
f 1223 1318 522
f 1223 1020 1318
f 1020 1161 562
f 1319 1177 172
f 1229 1249 460
f 756 1229 1051
f 756 1249 1229
f 423 1249 756
f 1318 1020 459
f 562 459 1020
f 423 460 1249
f 756 459 423
f 459 756 1051
f 411 1180 80
f 206 886 112
f 206 112 959
f 975 886 206
f 206 959 388
f 1180 692 886
f 503 294 959
f 388 959 294
f 959 156 503
f 886 692 112
f 975 206 312
f 1084 975 312
f 411 872 1180
f 872 411 436
f 1180 872 34
f 872 436 285
f 436 557 285
f 285 156 34
f 557 503 156
f 285 557 156
f 872 285 34
f 692 34 156
f 382 557 436
f 1094 975 1084
f 1100 931 470
f 967 710 242
f 726 710 1084
f 710 726 242
f 242 726 647
f 931 242 470
f 503 382 294
f 80 382 411
f 382 503 557
f 1180 34 692
f 294 382 792
f 792 382 271
f 382 199 856
f 856 199 946
f 1163 271 130
f 388 1163 312
f 388 792 1163
f 792 271 1163
f 1094 1084 710
f 733 1128 993
f 343 946 754
f 185 356 1263
f 877 262 444
f 356 444 262
f 262 877 754
f 453 1263 1128
f 262 1263 356
f 1263 453 185
f 754 993 262
f 754 199 993
f 754 946 199
f 262 993 1128
f 1128 1263 262
f 1319 589 1050
f 1050 589 672
f 1019 1177 1319
f 1319 172 589
f 903 493 1387
f 846 347 831
f 457 776 903
f 903 260 457
f 130 100 726
f 692 156 112
f 112 156 959
f 294 792 388
f 382 100 271
f 382 856 100
f 856 1238 100
f 271 100 130
f 130 312 1163
f 1084 312 130
f 726 1084 130
f 573 313 969
f 470 242 647
f 470 647 937
f 1238 856 937
f 1238 937 647
f 470 946 343
f 937 946 470
f 856 946 937
f 470 343 1100
f 877 343 754
f 220 907 613
f 62 1031 12
f 880 613 767
f 60 40 767
f 880 767 40
f 991 40 1006
f 816 991 1006
f 991 816 195
f 40 991 880
f 816 1006 1248
f 169 1248 1006
f 12 446 62
f 40 169 1006
f 767 644 12
f 1098 767 12
f 767 1098 60
f 613 880 991
f 890 1059 383
f 1098 12 1031
f 383 1059 950
f 12 644 847
f 826 767 613
f 907 220 1242
f 764 834 582
f 834 764 734
f 582 834 228
f 663 1230 228
f 1230 663 180
f 180 443 542
f 180 910 443
f 834 734 663
f 991 195 220
f 220 613 991
f 826 613 907
f 629 890 204
f 644 53 847
f 1164 836 208
f 1059 629 53
f 950 1059 53
f 195 1242 220
f 146 890 383
f 146 383 907
f 907 1242 146
f 907 950 826
f 761 1147 801
f 689 169 590
f 952 734 507
f 244 261 762
f 1053 300 1081
f 441 1081 300
f 181 1338 662
f 1338 181 801
f 1338 305 1355
f 1182 1147 1285
f 801 181 761
f 208 689 80
f 305 1338 801
f 775 1370 305
f 248 775 379
f 1370 248 1071
f 775 248 1370
f 1370 1355 305
f 177 379 775
f 775 305 177
f 272 456 127
f 177 642 379
f 446 963 1065
f 767 826 644
f 950 907 383
f 950 644 826
f 629 1059 890
f 53 644 950
f 983 446 847
f 446 12 847
f 208 80 1164
f 40 60 590
f 590 1098 1031
f 1200 507 468
f 983 963 446
f 208 169 689
f 590 169 40
f 590 1031 1065
f 62 1065 1031
f 1065 62 446
f 590 60 1098
f 590 1065 375
f 963 375 1065
f 869 1242 954
f 373 15 1295
f 373 1295 283
f 68 764 582
f 582 781 575
f 764 68 734
f 734 68 468
f 68 582 575
f 575 781 330
f 799 575 330
f 373 330 15
f 1048 330 781
f 1242 869 204
f 869 954 283
f 799 373 283
f 799 330 373
f 468 68 700
f 68 575 311
f 700 311 1173
f 1173 311 743
f 311 700 68
f 311 799 90
f 333 542 443
f 70 527 560
f 73 876 84
f 70 84 876
f 651 1149 73
f 1271 440 4
f 488 1372 4
f 440 488 4
f 954 1242 679
f 679 1242 369
f 333 204 1048
f 90 799 10
f 1230 333 1048
f 333 1230 542
f 1048 228 1230
f 228 1048 582
f 204 15 1048
f 582 1048 781
f 204 1295 15
f 1295 204 869
f 869 283 1295
f 330 1048 15
f 1183 1146 910
f 747 847 53
f 747 414 204
f 4 832 1284
f 153 443 910
f 1146 153 910
f 153 1146 832
f 1284 832 1146
f 465 651 1372
f 734 180 663
f 180 734 910
f 53 414 747
f 1284 1146 1183
f 1271 4 1284
f 1183 488 440
f 1284 1183 1271
f 1271 1183 440
f 488 1183 910
f 910 734 488
f 180 542 1230
f 663 228 834
f 734 468 507
f 679 1092 10
f 10 743 90
f 311 90 743
f 10 799 283
f 954 10 283
f 10 954 679
f 799 311 575
f 468 700 1173
f 1138 10 1092
f 743 1138 1173
f 10 1138 743
f 177 801 1182
f 679 369 1092
f 1200 468 1173
f 847 1316 983
f 847 747 205
f 847 45 1316
f 205 45 847
f 45 205 548
f 629 204 414
f 53 629 414
f 735 490 1097
f 261 882 189
f 189 762 261
f 244 1022 957
f 244 957 261
f 735 1068 367
f 490 1030 1097
f 244 806 618
f 618 490 982
f 44 618 982
f 61 1064 445
f 481 762 189
f 1064 806 376
f 244 376 806
f 490 618 806
f 618 44 244
f 735 982 490
f 367 44 735
f 44 982 735
f 244 44 367
f 806 1064 490
f 376 964 1064
f 825 908 612
f 1081 1182 350
f 1068 735 1097
f 768 1068 1097
f 643 768 13
f 768 1097 13
f 891 384 1060
f 1097 1030 13
f 384 949 1060
f 643 13 848
f 768 825 612
f 1386 376 244
f 825 768 643
f 949 384 908
f 13 1114 207
f 630 464 131
f 1022 244 367
f 1064 61 490
f 490 61 1030
f 964 207 1114
f 964 445 1064
f 445 964 1114
f 777 153 832
f 1345 442 805
f 549 870 96
f 254 805 870
f 474 805 254
f 870 805 96
f 1053 677 1345
f 1287 153 777
f 681 153 1287
f 1052 832 4
f 832 1052 777
f 805 748 96
f 153 681 443
f 1080 443 681
f 1080 396 322
f 1080 322 443
f 322 504 313
f 969 313 504
f 1354 969 504
f 1287 456 1080
f 456 1287 777
f 456 777 127
f 314 1309 1136
f 623 1185 621
f 960 1185 623
f 434 623 621
f 623 434 960
f 314 1185 960
f 960 555 314
f 434 256 483
f 555 960 434
f 1136 1309 483
f 1136 1185 314
f 1323 1007 261
f 314 555 1309
f 434 483 555
f 555 483 1309
f 178 434 621
f 178 256 434
f 178 621 1185
f 483 973 1136
f 1345 805 474
f 1345 677 761
f 748 805 442
f 379 642 88
f 1071 782 391
f 668 774 782
f 782 774 945
f 1370 391 1355
f 782 1236 668
f 1236 508 668
f 88 210 1071
f 1071 1385 1358
f 1385 1071 210
f 1385 1053 1358
f 1338 391 945
f 248 88 1071
f 88 248 379
f 210 88 642
f 642 1252 210
f 1385 210 1252
f 43 1385 1252
f 300 1385 43
f 1053 1385 300
f 1131 532 882
f 261 957 1323
f 1147 1182 801
f 300 43 82
f 642 82 1252
f 1252 82 43
f 1285 350 1182
f 441 177 1182
f 1081 441 1182
f 441 82 177
f 801 177 305
f 82 441 300
f 82 642 177
f 719 219 908
f 885 945 1004
f 945 885 835
f 774 668 1337
f 1004 774 1337
f 774 1004 945
f 391 1370 1071
f 782 945 391
f 835 1338 945
f 1338 835 662
f 391 1338 1355
f 990 110 1007
f 547 1022 367
f 1114 13 445
f 61 13 1030
f 13 61 445
f 1068 547 367
f 768 881 547
f 547 1068 768
f 990 881 612
f 957 1022 547
f 1323 990 1007
f 1131 261 1007
f 643 949 825
f 110 990 751
f 990 1323 881
f 1131 1007 936
f 1131 882 261
f 219 719 267
f 908 1307 719
f 219 612 908
f 267 751 990
f 1323 957 881
f 881 957 547
f 891 145 384
f 643 848 52
f 1060 630 891
f 131 891 630
f 13 207 848
f 643 52 949
f 1060 52 630
f 949 52 1060
f 990 219 267
f 908 145 1307
f 908 384 145
f 612 881 768
f 219 990 612
f 908 825 949
f 936 532 1131
f 1007 110 936

